<svg id="Layer_1" data-name="Layer 1" xmlns="http://www.w3.org/2000/svg" viewBox="0 0 388.71 106.08"><defs><style>.cls-1{fill:#fff;}.cls-2{fill:transparent;}</style></defs><title>UoA_Primary_Logo_MONO</title><path class="cls-1" d="M338,332.55,324.81,298H313l1.68,1.26a2.24,2.24,0,0,1,1.16,1.9,7.76,7.76,0,0,1-.67,2.74L303.68,333c-1.24,3.13-2.36,4.83-3.84,5.87L298,340.1H311.6l-1.26-1.2c-1.09-1-1.59-1.79-1.59-2.38a5.93,5.93,0,0,1,.49-2.38l3.73-9.3h14.24l3.47,9.41a7.32,7.32,0,0,1,.64,2.51c0,.5-.46,1-1.55,2.16l-1.12,1.18h15.18l-1.45-1.23A13.92,13.92,0,0,1,338,332.55Zm-22.81-13.19,5.19-13.07,4.79,13.07Z" transform="translate(-226.93 -235.01)"/><path class="cls-1" d="M372.57,315.45c3.32-2,5-4.62,5-7.76,0-6-5.37-9.71-14-9.71H347.79l1.42,1.23c2,1.74,2.16,3.66,2.16,6.62v26.36c0,3-.15,4.89-2.17,6.69l-1.37,1.22h14.93c11.36,0,18.42-5.19,18.42-13.55C381.18,321.31,378.21,317.5,372.57,315.45Zm-8.67,18.87c-1.06,0-2.65-.15-4.64-.36V319.87a31.21,31.21,0,0,1,4.46-.43c5.56,0,9.45,3.2,9.45,7.77S369.71,334.32,363.9,334.32Zm-2-19.94a20,20,0,0,1-2.6-.16V303.57a19,19,0,0,1,3.56-.41c4.21,0,6.63,2,6.63,5.43C369.45,312.27,366.68,314.38,361.86,314.38Z" transform="translate(-226.93 -235.01)"/><path class="cls-1" d="M403.62,334.14a50.84,50.84,0,0,1-6.75-.62v-13.3h3c2.93,0,4.78.06,5.77,1.25l1.24,1.49v-8.58h-10V304.17a27.85,27.85,0,0,1,5.36-.65,10.86,10.86,0,0,1,7,2.08l1.13.86V298H385.46l1.42,1.23c2,1.74,2.16,3.66,2.16,6.62v26.36c0,3-.14,4.88-2.17,6.69l-1.37,1.22h27.08l3.68-10.42-1.74,1.15A18.93,18.93,0,0,1,403.62,334.14Z" transform="translate(-226.93 -235.01)"/><path class="cls-1" d="M451.43,333.1l-10-13.41c6-2.65,8.73-6.06,8.73-10.68,0-6.6-5.69-11-14.15-11H420l1.41,1.23c2,1.74,2.16,3.66,2.16,6.62v26.36c0,3-.14,4.88-2.16,6.69L420,340.1h14.84l-1.37-1.22c-2-1.81-2.17-3.73-2.17-6.69V317.93L444,335.43a10.6,10.6,0,0,0,8.49,4.56l5.39-.28-1.25-1.13A38.93,38.93,0,0,1,451.43,333.1Zm-20.1-15.31V303.7a24.45,24.45,0,0,1,3.75-.42c4.25,0,7.1,2.52,7.1,6.27,0,4-3.05,6.52-9.9,8Z" transform="translate(-226.93 -235.01)"/><path class="cls-1" d="M492.82,302.88c-5.09-4.07-10.39-4.9-16.78-4.9H460l1.42,1.23c2,1.73,2.1,3.64,2.1,6.62v26.36c0,3-.1,4.9-2.11,6.69L460,340.1h14.08c10.09,0,16.05-2,20.58-7a21,21,0,0,0,5.54-14.71A19,19,0,0,0,492.82,302.88Zm-.6,16c0,9-6.3,15.52-15,15.52a43.5,43.5,0,0,1-5.91-.57V304.33a23,23,0,0,1,5.49-.69C486.17,303.64,492.22,309.64,492.22,318.92Z" transform="translate(-226.93 -235.01)"/><path class="cls-1" d="M522.37,334.14a51,51,0,0,1-6.75-.62v-13.3h3c2.93,0,4.78.06,5.77,1.25L525.6,323v-8.58h-10V304.17a27.85,27.85,0,0,1,5.36-.65,10.86,10.86,0,0,1,7,2.08l1.13.86V298H504.21l1.42,1.23c2,1.74,2.17,3.66,2.17,6.62v26.36c0,3-.15,4.88-2.17,6.69l-1.37,1.22h27.07L535,329.68l-1.74,1.15A18.93,18.93,0,0,1,522.37,334.14Z" transform="translate(-226.93 -235.01)"/><path class="cls-1" d="M556.89,334.14a49.2,49.2,0,0,1-6.74-.62v-13.3h3c2.93,0,4.78.06,5.77,1.25l1.24,1.5v-8.59h-10V304.17a27.68,27.68,0,0,1,5.36-.65,10.86,10.86,0,0,1,7,2.08l1.12.86V298H538.73l1.43,1.23c2,1.74,2.16,3.66,2.16,6.62v26.36c0,3-.15,4.89-2.17,6.69l-1.37,1.22h27.08l3.68-10.42-1.74,1.15A18.91,18.91,0,0,1,556.89,334.14Z" transform="translate(-226.93 -235.01)"/><path class="cls-1" d="M602.64,298l1.41,1.23c2,1.74,2.17,3.66,2.17,6.62v21.4L583.17,298H572.66l1.42,1.23c2,1.74,2.16,3.66,2.16,6.62v26.36c0,3-.14,4.89-2.17,6.69l-1.37,1.22h12.93l-1.37-1.22c-2-1.79-2.11-3.71-2.11-6.69V309.46l19.77,24.91c2.91,3.71,5.45,6.56,9.42,6.69l.72,0V305.83c0-3,.15-4.88,2.16-6.62l1.42-1.23Z" transform="translate(-226.93 -235.01)"/><path class="cls-1" d="M331.46,281.19c-1.91,2.52-5.48,3.57-8.52,3.57a10.68,10.68,0,0,1-7.87-3.05c-2.31-2.52-2.22-5.43-2.22-8.56V261.53c0-1.95.3-5.13-1.92-5.95v-.13h8.27v.13c-2.18.82-1.92,4-1.92,5.95v11.62c0,5.78,2.44,8.47,6.92,8.47a7.71,7.71,0,0,0,6.35-3c.95-1.3.91-2.39.91-4V261.53c0-1.95.26-5.13-1.91-5.95v-.13h8.26l0,.13c-2.21.82-2,4-2,6V278c0,2-.26,5.13,2,6v.13h-6.39Z" transform="translate(-226.93 -235.01)"/><path class="cls-1" d="M347.88,278.41c0,2.43,0,4.17,2.26,5.52v.13h-7.69v-.13c2.3-1.35,2.3-3.09,2.3-5.52V261.06c0-2.44,0-4.18-2.26-5.48v-.13h6.35v0a2.73,2.73,0,0,0,.65,1.09l.61.87L366,277.54V261.06c0-2.44,0-4.18-2.27-5.48v-.13h7.66v.13c-2.26,1.3-2.26,3-2.26,5.48v24.39c-3.09-1-4.44-2.48-6.35-5l-14.92-18.91Z" transform="translate(-226.93 -235.01)"/><path class="cls-1" d="M377.53,261.58c0-2,.31-5.18-1.91-6v-.13h8.26v.13c-2.17.82-1.91,4-1.91,6V278c0,2-.26,5.13,1.91,6v.13h-8.26v-.13c2.17-.78,1.91-4,1.91-6Z" transform="translate(-226.93 -235.01)"/><path class="cls-1" d="M407.47,263.32c1.18-3.09,2.65-6.66,0-7.74v-.13h6.48l-11.48,29.91c-3.05-2-4.05-2.34-5.31-5.78l-6.56-17.79c-.83-2.21-1.48-4.74-3.4-6.21v-.13h6.35l0,.52a18.11,18.11,0,0,0,1.17,4l6.92,18.92Z" transform="translate(-226.93 -235.01)"/><path class="cls-1" d="M424.19,280.41l5.53.52a10.8,10.8,0,0,0,8-2.57h.13l-2,5.7H417.8v-.13c2.22-.78,2-4,2-6V261.58c0-2,.26-5.18-2-6v-.13h13.92a4.5,4.5,0,0,0,2-.22h.13v5.09h-.13c-1.35-1.57-3.13-1.74-5.13-1.74a24.66,24.66,0,0,0-4.44.3V267h5.18a4.46,4.46,0,0,0,1.91-.26h.13v4.61h-.13c-.7-1.26-2.52-1.22-3.87-1.22h-3.22Z" transform="translate(-226.93 -235.01)"/><path class="cls-1" d="M451.07,255.45c5.83,0,9,3,9,7s-3.35,6.82-6.92,7.65l6.26,7.87a30.72,30.72,0,0,0,7.05,6.09h-4a5.74,5.74,0,0,1-5.05-2.17l-5.3-6.57-4-6.13c3.48-.52,7.52-2.13,7.52-6.22,0-3.13-2.7-5-5.61-4.83a24.87,24.87,0,0,0-3,.35V278c0,2-.26,5.18,2,6v.13h-8.3v-.13c2.21-.78,1.91-4,1.91-6V261.58c0-2,.3-5.18-1.91-6v-.13Z" transform="translate(-226.93 -235.01)"/><path class="cls-1" d="M485.29,260.62a9.9,9.9,0,0,0-6.83-2.74c-2.48,0-5.61,1-5.61,4,0,6,15,5.87,15,13.91,0,4.66-4.87,9-11.65,9a22.61,22.61,0,0,1-7.79-1.31L467.11,278a15.1,15.1,0,0,0,9.53,3.6c2.47,0,6.21-1.47,6.21-4.52,0-6.78-15-5.56-15-14.78,0-5.48,5.61-7.57,10.92-7.57a21.65,21.65,0,0,1,6.48,1Z" transform="translate(-226.93 -235.01)"/><path class="cls-1" d="M493.47,261.58c0-2,.3-5.18-1.91-6v-.13h8.26v.13c-2.18.82-1.91,4-1.91,6V278c0,2-.27,5.13,1.91,6v.13h-8.26v-.13c2.17-.78,1.91-4,1.91-6Z" transform="translate(-226.93 -235.01)"/><path class="cls-1" d="M516.26,278.41c0,2.48,0,4.17,2.26,5.52v.13h-8.61v-.13c2.18-.83,1.92-4,1.92-6V258.58H508a7.57,7.57,0,0,0-5.18,1.74h-.13l1.53-5.18h.13a6.88,6.88,0,0,0,1.65.31h17.31a4.87,4.87,0,0,0,2-.31h.13l-1.39,5.18h-.13c-.57-1.53-2.31-1.74-3.74-1.74h-3.92Z" transform="translate(-226.93 -235.01)"/><path class="cls-1" d="M543.19,278.41c0,2.61,0,3.91,2.21,5.52v.13h-8.47v-.13c2.13-1.09,1.82-3.91,1.82-6v-6.43l-7.22-11.62c-1.17-1.91-2-3.34-4.13-4.47h4c1.39,0,2.7.3,3.26,1.21l7,11.35,5.39-8.09c.74-1.08,1.74-3.17-.69-4.34v-.13h7.61l-10.7,16.09Z" transform="translate(-226.93 -235.01)"/><path class="cls-1" d="M595.49,269.45c0,8.87-7.35,15.31-16,15.31s-15.88-6.18-15.88-15.09c0-8.27,7.18-15.18,16.31-15C589.06,254.66,595.49,261.62,595.49,269.45Zm-26.92-.18c0,6.09,4.31,12.35,11.13,12.35,6.61,0,10.83-4.82,10.83-11.3s-4-12.48-10.91-12.48S568.57,262.71,568.57,269.27Z" transform="translate(-226.93 -235.01)"/><path class="cls-1" d="M605.37,278c0,2-.35,5.13,1.83,6v.13H599v-.13c2.22-.78,2-4,2-6V261.58c0-2,.26-5.18-2-6v-.13h13.91a4.51,4.51,0,0,0,2.05-.22h.13v5h-.13c-1.35-1.52-3.13-1.69-5.13-1.69a24.66,24.66,0,0,0-4.44.3V267h5.22a4.36,4.36,0,0,0,1.87-.26h.13v4.61h-.13c-.7-1.31-2.52-1.22-3.87-1.22h-3.22Z" transform="translate(-226.93 -235.01)"/><path class="cls-2" d="M298.53,255.83v-.38H227v.38s0,36.84,0,42.91c0,13.88,12.27,28.59,34.53,41.42l1.28.83,1.33-.81c22.25-12.79,34.5-27.51,34.5-41.44C298.57,292.67,298.53,255.83,298.53,255.83Z" transform="translate(-226.93 -235.01)"/><path class="cls-2" d="M233.07,298.32" transform="translate(-226.93 -235.01)"/><path class="cls-2" d="M237.29,297.09" transform="translate(-226.93 -235.01)"/><path class="cls-2" d="M250.92,298.32" transform="translate(-226.93 -235.01)"/><path class="cls-2" d="M255.14,297.09" transform="translate(-226.93 -235.01)"/><path class="cls-2" d="M247.4,322.94" transform="translate(-226.93 -235.01)"/><path class="cls-2" d="M251.62,321.7" transform="translate(-226.93 -235.01)"/><path class="cls-1" d="M237.71,300a.92.92,0,0,1-.73-.63l0-.07c-.05-.28-.1-.52-.51-.58a.07.07,0,0,0-.06,0,.06.06,0,0,0,.05.06c.33.05.37.23.43.5v.07a1,1,0,0,0,.81.7,1.54,1.54,0,0,1,.73.55l0,0h0a0,0,0,0,0,0-.07A1.58,1.58,0,0,0,237.71,300Z" transform="translate(-226.93 -235.01)"/><path class="cls-1" d="M238.41,296.35s.11-.27.37-.4a1.52,1.52,0,0,0-1.14-.13C238,295.85,238.11,296.05,238.41,296.35Z" transform="translate(-226.93 -235.01)"/><path class="cls-1" d="M236.07,300.25s0-.05,0-.05h0a0,0,0,0,0,0,0,1.16,1.16,0,0,0,.06.58l.05,0h0s0,0,0-.07A1,1,0,0,1,236.07,300.25Z" transform="translate(-226.93 -235.01)"/><path class="cls-1" d="M237.16,300.29a.06.06,0,0,0,0,.07,1,1,0,0,1,.26.53,0,0,0,0,0,0,.05h0a.06.06,0,0,0,.05-.06,1,1,0,0,0-.3-.59A0,0,0,0,0,237.16,300.29Z" transform="translate(-226.93 -235.01)"/><path class="cls-1" d="M236.39,300s0-.05,0-.06,0,0,0,0a1,1,0,0,0,.15.71l0,0h0a0,0,0,0,0,0-.06A1.11,1.11,0,0,1,236.39,300Z" transform="translate(-226.93 -235.01)"/><path class="cls-1" d="M233.19,301.35c-.16-.07-.24-.11-.38-.4,0,0,0,0-.07,0a0,0,0,0,0,0,.06.72.72,0,0,0,.42.45l.12.06h0l0,0a0,0,0,0,0,0-.07Z" transform="translate(-226.93 -235.01)"/><path class="cls-1" d="M237.63,300.31a.05.05,0,0,0-.07,0,0,0,0,0,0,0,.06.9.9,0,0,1,.5.45l0,.08s0,0,0,0h0a0,0,0,0,0,0-.07l0-.08A1,1,0,0,0,237.63,300.31Z" transform="translate(-226.93 -235.01)"/><path class="cls-1" d="M235.73,300.24s-.06,0-.06,0a1.63,1.63,0,0,0,0,.63s0,0,.05,0h0s0,0,0-.06a1.8,1.8,0,0,1,0-.59A.08.08,0,0,0,235.73,300.24Z" transform="translate(-226.93 -235.01)"/><path class="cls-1" d="M235.37,300.34a.07.07,0,0,0-.06,0,4.42,4.42,0,0,0,0,.66s0,0,.05,0h0a0,0,0,0,0,0-.05,4.1,4.1,0,0,1,0-.64S235.4,300.34,235.37,300.34Z" transform="translate(-226.93 -235.01)"/><path class="cls-1" d="M233.63,301.24a.43.43,0,0,1-.27-.35,0,0,0,0,0-.06,0s0,0,0,.06a.52.52,0,0,0,.34.41h.07a0,0,0,0,0,0-.07Z" transform="translate(-226.93 -235.01)"/><path class="cls-1" d="M234.68,300.53a0,0,0,0,0,0-.06h0a.07.07,0,0,0,0,0,1.93,1.93,0,0,0,0,.55.07.07,0,0,0,.05,0h0s.05,0,0-.06A1.68,1.68,0,0,1,234.68,300.53Z" transform="translate(-226.93 -235.01)"/><path class="cls-1" d="M233.73,300.82a0,0,0,0,0,0,0s-.05,0-.05,0a.42.42,0,0,0,.2.31l0,0,0,0,0,0a0,0,0,0,0,0-.07l0,0C233.83,301,233.73,300.93,233.73,300.82Z" transform="translate(-226.93 -235.01)"/><path class="cls-1" d="M229.09,300.72a4.34,4.34,0,0,0,1.49.49,1.38,1.38,0,0,0,.7-.23,1.9,1.9,0,0,1,.52-.25c0,.11,0,.53.32.55h.1c.12,0,.17,0,.31.17a1.22,1.22,0,0,0,.85.45,1.11,1.11,0,0,0,.69-.3l.07-.06a.61.61,0,0,1,.63-.14,2.11,2.11,0,0,0,1.19-.09,1.12,1.12,0,0,1,1,0,5.83,5.83,0,0,0,2.84.09l0,0a1,1,0,0,0,.65.38.1.1,0,0,0,.1,0,.11.11,0,0,0,0-.12,1.12,1.12,0,0,1,0-.54,1.86,1.86,0,0,0,1.67.12.11.11,0,0,0,.06-.09.09.09,0,0,0-.05-.1c-.11-.07-.22-.16-.36-.27l-.23-.18a1.08,1.08,0,0,0,.63-.08l.08-.05c.23-.13.61-.34,1.1-1.44a.09.09,0,0,0,0-.12.09.09,0,0,0-.13,0,1.24,1.24,0,0,1-.54.2,2.39,2.39,0,0,0,.8-1.26.11.11,0,0,0,0-.12.12.12,0,0,0-.13,0,.94.94,0,0,1-.35.2,3,3,0,0,0,.54-.93.1.1,0,0,0,0-.12.09.09,0,0,0-.13,0,2,2,0,0,1-.82.33,2.4,2.4,0,0,0,.66-.82.11.11,0,0,0,0-.13.13.13,0,0,0-.12,0,1.36,1.36,0,0,1-.65.15c.5-.58.59-1.21.42-2.66a.11.11,0,0,0-.1-.09.12.12,0,0,0-.11.07,1.85,1.85,0,0,1-1.36,1.43h-.1a1.48,1.48,0,0,0,.3-.38,2.29,2.29,0,0,0-.09-2.17.1.1,0,0,0-.17,0,4.11,4.11,0,0,0-.34.44,1.19,1.19,0,0,1-.87.59,1.81,1.81,0,0,0-1.26,1.1,1.31,1.31,0,0,0-.55-.14,1.68,1.68,0,0,0-1.19.52,1.27,1.27,0,0,0-1.44.3c-.19.24-.2.23-.36.14l-.23-.13a1.63,1.63,0,0,0-1.68.08.1.1,0,0,0,0,.12.12.12,0,0,0,.11.07.78.78,0,0,1,.59.1.33.33,0,0,1,.07.24.3.3,0,0,1-.1.21.41.41,0,0,1-.27.1l-.25,0-.39,0a.73.73,0,0,1-.19-.07,1.33,1.33,0,0,0-.68-.18h0a.76.76,0,0,0-.67.34l0,0a.87.87,0,0,1-.51.62.58.58,0,0,0-.26.37,1.26,1.26,0,0,0,.08.82.81.81,0,0,0,.67.3l.16,0a1.42,1.42,0,0,0,.4.51h-.16a1.46,1.46,0,0,0-.45.15c-.22.11-.39.2-1.08-.08-.28-.12-.62-.11-1.3.33a.8.8,0,0,0-.4.71A.76.76,0,0,0,229.09,300.72Zm13-4.33a.11.11,0,0,0,0,.11.11.11,0,0,0,.08.07,1.75,1.75,0,0,0,.7,0,1.66,1.66,0,0,1-1.18.81.11.11,0,0,0-.09.12.13.13,0,0,0,.12.09,4.92,4.92,0,0,0,1.49-.35,1.86,1.86,0,0,1-.82.91.09.09,0,0,0,0,.05,7.8,7.8,0,0,1-1.65,0,7.55,7.55,0,0,0,1-1.36,0,0,0,0,0,0,0s0,0-.06,0a1.87,1.87,0,0,1-.51.08l.07,0a3.55,3.55,0,0,0,1.5-1.65A1.78,1.78,0,0,1,242.11,296.39Zm-.82-1.76a1.2,1.2,0,0,1-.63.59l-.17,0-.16,0a4,4,0,0,0,.71-.81v0s0,0,0,0-.25,0-.51,0a2.78,2.78,0,0,0,.94-.79A1.68,1.68,0,0,1,241.29,294.63ZM233,296.46l.41,0,.24,0a.62.62,0,0,0,.42-.14.5.5,0,0,0,.18-.36.49.49,0,0,0-.14-.4.51.51,0,0,0-.33-.15,1.55,1.55,0,0,1,1.13.12l.2.11c.23.14.36.17.63-.19a1,1,0,0,1,1.11-.25.39.39,0,0,0-.08.1.11.11,0,0,0,0,.14.1.1,0,0,0,.14,0,1.69,1.69,0,0,1,1.25-.71h0a1.32,1.32,0,0,1,.57.16l0,0a1,1,0,0,1,.26.22.1.1,0,0,0,.14,0,.09.09,0,0,0,0-.14,1,1,0,0,0-.26-.24,1.56,1.56,0,0,1,1.13-1,1.36,1.36,0,0,0,1-.67c.07-.08.14-.18.23-.3a3,3,0,0,1,.17.6,2.81,2.81,0,0,1-1,.86l-.13.07s0,0,0,.06,0,0,0,0a3.81,3.81,0,0,1,.62,0,4.24,4.24,0,0,1-.78.83c-.57.15-.87.45-.91,1.29,0,.05,0,.1.1.11s.1,0,.11-.1c0-.91.38-1.06,1.09-1.16l.16,0h0l.58-.09a2,2,0,0,0,1.38-1.14c0,.25,0,.46,0,.65a3.53,3.53,0,0,1-1.56,1.81l-.21.14a0,0,0,0,0,0,.05,0,0,0,0,0,0,0,3.61,3.61,0,0,0,.6-.05,8.14,8.14,0,0,1-1,1.3s0,0,0,.05l0,0a6.78,6.78,0,0,0,1,.07c.34,0,.63,0,.77,0a.1.1,0,0,0,.11,0,6.23,6.23,0,0,0,.73-.26,1.55,1.55,0,0,1-1.13,1.09.11.11,0,0,0-.07.12.1.1,0,0,0,.1.09,3.22,3.22,0,0,0,1-.16,3.29,3.29,0,0,1-.53.8,5.34,5.34,0,0,1-2.34-.9,0,0,0,0,0-.07,0s0,.06,0,.07a5.3,5.3,0,0,0,2.3.9,1.37,1.37,0,0,1-.26.18l-.1.05a1.23,1.23,0,0,1-1-.13.12.12,0,0,0-.15,0,.11.11,0,0,0,0,.15c.34.23.57.41.75.55l.21.17a1.73,1.73,0,0,1-.38.05,6,6,0,0,1-1.43-1.15s0,0-.07,0a0,0,0,0,0,0,.07,5.78,5.78,0,0,0,1.3,1.09,1.56,1.56,0,0,1-.84-.3.09.09,0,0,0-.1,0,.11.11,0,0,0-.07.08,2.74,2.74,0,0,0,0,.64.91.91,0,0,1-.35-.26l0,0,0-.05h0a2.27,2.27,0,0,1-.36-.89,0,0,0,0,0-.06,0s0,0,0,.06a2.93,2.93,0,0,0,.31.84,5.45,5.45,0,0,1-2.73-.08,1.32,1.32,0,0,0-1.14.05,1.86,1.86,0,0,1-1,.08.83.83,0,0,0-.82.18l-.09.06c-.25.2-.63.51-1.24-.13a.52.52,0,0,0-.47-.24h-.08c-.07,0-.13-.25-.14-.38h.24a8.31,8.31,0,0,0,1-.15.86.86,0,0,0,.54-.4,1.24,1.24,0,0,1,.64-.4h0a1,1,0,0,1,.34,0,2.15,2.15,0,0,0,.48.08.56.56,0,0,0,.37-.13l.08-.06c.1-.08.14-.12.52-.13a.12.12,0,0,0,.1-.06.11.11,0,0,0,0-.11,1.66,1.66,0,0,0-.39-.34,1.79,1.79,0,0,1-.22-.53s0,0,0,0,0,0,0,0a2.28,2.28,0,0,0-.18.34h-.06a1,1,0,0,0-.2-.57.05.05,0,0,0,0,0,.1.1,0,0,0,0,0v0a.9.9,0,0,1-.26.57l-.08,0-.14,0a.86.86,0,0,0,.31-.56,1.21,1.21,0,0,0-.16-.94,1.15,1.15,0,0,0-.85-.37s-.05,0-.05,0,0,0,0,.05a.8.8,0,0,1,.3.66,1,1,0,0,1-.47.63.35.35,0,0,0-.16.16,1.35,1.35,0,0,1-.2-.27.63.63,0,0,0,.32-.56.78.78,0,0,0-.37-.7.76.76,0,0,1-.39-.45,1.22,1.22,0,0,0-.07-.17s0,0,0-.06A.73.73,0,0,0,233,296.46Zm-.08,4a1.12,1.12,0,0,1-.13-1l.08.11a1.43,1.43,0,0,0,.67.58.7.7,0,0,1-.33.2Zm-.27-2a.54.54,0,0,0,.5,0,1.38,1.38,0,0,0,.17.25,1.16,1.16,0,0,0-.18.69A1.92,1.92,0,0,1,232.61,298.4Zm.12.6h-.06a.07.07,0,0,1,0-.05v0Zm.62-.28.09.08a.25.25,0,0,0,0,.13.28.28,0,0,0,.15.12l.13.06a.52.52,0,0,0,.25.05l.16,0a1.7,1.7,0,0,0,.39,0l.2-.05a1.61,1.61,0,0,1,.57-.06,1.9,1.9,0,0,0-.1.61,1.37,1.37,0,0,1-.43-.06,1,1,0,0,0-.38,0h0a6,6,0,0,1-1.19-.35A1,1,0,0,1,233.35,298.72Zm.2,0a.27.27,0,0,1,.15-.18h0a1.1,1.1,0,0,0,.52-.71.79.79,0,0,0-.24-.64,1,1,0,0,1,.65.33,1,1,0,0,1,.14.86.79.79,0,0,1-.42.6h0a.65.65,0,0,1-.55.06l-.14-.06s0,0-.1-.09A.19.19,0,0,1,233.55,298.69Zm1.35.23a1,1,0,0,0,.23-.49.89.89,0,0,1,.11.44Zm.7-.28a1.67,1.67,0,0,0,.46.76.82.82,0,0,0-.48.16l-.05,0a.54.54,0,0,1-.22.12A2.19,2.19,0,0,1,235.6,298.64Zm-4.68-.56a1.08,1.08,0,0,1-.06-.66.37.37,0,0,1,.16-.24,1.11,1.11,0,0,0,.62-.74.52.52,0,0,1,.45-.23h0a.57.57,0,0,1,.5.32l.06.15a.94.94,0,0,0,.48.55.57.57,0,0,1,.26.52.42.42,0,0,1-.21.38c-.34.17-.4.14-.52.07h0a1,1,0,0,0-1,.05A.67.67,0,0,1,230.92,298.08Zm1.19.24a.62.62,0,0,1,.38,0,2.22,2.22,0,0,0,.11.39.58.58,0,0,0,0,.19,1,1,0,0,0,0,.19A1.62,1.62,0,0,1,232.11,298.32Zm.18.63h-.06a.45.45,0,0,0,0-.11Zm-.61-.51h.07l.26-.09c0,.09.05.18.08.26a1.86,1.86,0,0,0,0,.36A1.08,1.08,0,0,1,231.68,298.44Zm-2.59,1.11a1.77,1.77,0,0,1,.88-.36.57.57,0,0,1,.24.05c.78.32,1,.2,1.24.08a1.18,1.18,0,0,1,.39-.14,2.7,2.7,0,0,1,.63,0l.08.07,0,0,0,0h0a.05.05,0,0,0,0,0s0,0,0,0l.22.07.05,0a.84.84,0,0,0,.19.19h0a.05.05,0,0,0,0-.05v0a6,6,0,0,0,.84.27,1.07,1.07,0,0,0-.45.37l0,0a1.35,1.35,0,0,1-.66-.56l-.14-.19a0,0,0,0,0-.05,0,.05.05,0,0,0,0,0,1.35,1.35,0,0,0,.07,1.09,4.08,4.08,0,0,1-.53.06h-.12c-.19,0-.37,0-.92.31s-.8.25-2-.26a.56.56,0,0,1-.38-.46A.58.58,0,0,1,229.09,299.55Z" transform="translate(-226.93 -235.01)"/><path class="cls-1" d="M236.28,297.59a.09.09,0,0,0,.05,0h0a0,0,0,0,0,0-.06.53.53,0,0,0-.38-.26.57.57,0,0,0,0-.48,1.29,1.29,0,0,0,.23-.12,1.93,1.93,0,0,0,.75,0,.52.52,0,0,0-.23.42.52.52,0,0,0,.52.53l.11,0a2.8,2.8,0,0,0,.12.29h0l0-.07a.74.74,0,0,1,.08-.13l.1-.07.07,0a.74.74,0,0,1,.27,0h.06l-.36-.24a.19.19,0,0,0,0-.08.5.5,0,0,0,0-.13.58.58,0,0,0,0-.14v-.05a0,0,0,0,0,0,0l0,0a.52.52,0,0,0-.2-.19l-.13-.15a.07.07,0,0,0-.06,0,2.17,2.17,0,0,1-1.09.11h-.05a1.27,1.27,0,0,1-.29.15l0,0s0,0,0,0,0,.48,0,.48v0s0,0,0,0C236.21,297.41,236.28,297.58,236.28,297.59Zm1.21-.87.19.2a0,0,0,0,0,0,0c0,.06,0,.16,0,.25a0,0,0,0,0,0,0,1.84,1.84,0,0,1-.4-.38h0a1.68,1.68,0,0,0,.09.65l-.08,0a.43.43,0,0,1,0-.85A.46.46,0,0,1,237.49,296.72Z" transform="translate(-226.93 -235.01)"/><path class="cls-1" d="M232.8,298a.63.63,0,0,0,.19,0,.42.42,0,0,0,.15-.36v0a.27.27,0,0,0-.39-.17.33.33,0,0,0-.12.23s0,.1.15.13a.74.74,0,0,1-.17.08.07.07,0,0,0-.07,0,.07.07,0,0,0,0,.06A.61.61,0,0,0,232.8,298Zm.11-.22a0,0,0,0,0,0-.05s0,0,0,0-.14,0-.15-.06a.34.34,0,0,1,.08-.14.13.13,0,0,1,.09,0c.12,0,.13.08.14.12a0,0,0,0,1,0,0,.38.38,0,0,1-.09.24.55.55,0,0,1-.19,0A.29.29,0,0,0,232.91,297.74Z" transform="translate(-226.93 -235.01)"/><path class="cls-1" d="M231.44,297.25h0c-.07,0-.31.05-.35.16a.56.56,0,0,0,0,.45h.06a.07.07,0,0,0,0-.07.34.34,0,0,1,.06-.17c.05.14.15.14.16.14a.38.38,0,0,0,.21-.13.2.2,0,0,0,0-.17A.23.23,0,0,0,231.44,297.25Zm.1.32a.26.26,0,0,1-.13.09s0,0-.07-.15a.05.05,0,0,0,0,0h0a.45.45,0,0,0-.13.15.62.62,0,0,1,0-.19c0-.05.2-.11.23-.1h0c.05,0,.1,0,.13.13S231.56,297.55,231.54,297.57Z" transform="translate(-226.93 -235.01)"/><path class="cls-1" d="M298.53,255.83v-.38H227v.38s0,36.84,0,42.91c0,13.88,12.27,28.59,34.53,41.42l1.28.83,1.33-.81c22.25-12.79,34.5-27.51,34.5-41.44C298.57,292.67,298.53,255.83,298.53,255.83ZM257.8,277.14a2.64,2.64,0,0,1,.77.63l0,0,.05.09.06.12a1.76,1.76,0,0,1,.1.5,2.48,2.48,0,0,0,0,.27,1.08,1.08,0,0,0,.24.43,1.77,1.77,0,0,1-1.25-.67,1,1,0,0,1-.12-.28,1.8,1.8,0,0,0-.29-.74,1.14,1.14,0,0,0-.14-.15.07.07,0,0,0-.09,0,.07.07,0,0,0,0,.09,2.85,2.85,0,0,1,.14.41l0,.05c0,.13.05.25.07.36l0,.14s0,.08,0,.12a.91.91,0,0,0,.22.38l0,0a.88.88,0,0,0,.23.19,3.77,3.77,0,0,0,.5.23,1.24,1.24,0,0,1-1.29-.9,3.44,3.44,0,0,1-.13-.83.08.08,0,0,0-.07-.08.08.08,0,0,0-.09.07A2,2,0,0,0,257,279a1.4,1.4,0,0,0,.23.29,1.15,1.15,0,0,0,.19.16,2.19,2.19,0,0,1-1.08.48.29.29,0,0,0,0-.1,2,2,0,0,0,.12-1.15c0-.11-.05-.22-.07-.33s0-.15-.05-.21a.63.63,0,0,1,0-.38l0-.07a.36.36,0,0,1,0-.09.37.37,0,0,0,0-.2v-.08h0a2.29,2.29,0,0,1,1.08-.59h0a.28.28,0,0,0,.17.1h0a.68.68,0,0,0,.2,0,.75.75,0,0,1,.21,0,1.54,1.54,0,0,1,.68.48l.14.15a1.36,1.36,0,0,0,.4.29,1.76,1.76,0,0,0,.54.17,2.21,2.21,0,0,1-.83.5,2,2,0,0,0-.67-1.17s0,0-.07-.06a.44.44,0,0,0-.17-.07,1.05,1.05,0,0,0-.34-.14h0a.12.12,0,0,0-.1.05A.1.1,0,0,0,257.8,277.14Zm-9.14-2.29s2.91-.87,5,.29a4.08,4.08,0,0,1,2,2.59,5.88,5.88,0,0,1,0,1.3,12.54,12.54,0,0,1-1.16-.91,6.78,6.78,0,0,0-3.65-2.76,4.34,4.34,0,0,0-3.35.68l-.67,0a3.39,3.39,0,0,1,.85-1.59l.08-.08a12.69,12.69,0,0,1,1.87-1.69c.68-.5,3-2.36,3.35-2.78a6.61,6.61,0,0,1,1.54-1.14l.23-.14a4.85,4.85,0,0,1,2.15-.44,6.49,6.49,0,0,0-1.57,1.26,12.2,12.2,0,0,1-1.8,1.63c-.44.31-1.06.78-1.37,1a8.89,8.89,0,0,1-.92.65,16.9,16.9,0,0,0-2,1,3.29,3.29,0,0,0-.35.19.07.07,0,0,0,0,.11.09.09,0,0,0,.11,0l0,0v0l.27-.16a11.92,11.92,0,0,1,1.65-.63,12.15,12.15,0,0,1,5-.93,9.11,9.11,0,0,0,1.88.05,4.26,4.26,0,0,1-3.07.93,14.53,14.53,0,0,0-1.9,0c-.37.05-.75.12-1,.18l-.1,0a1.08,1.08,0,0,0-.32,0,.12.12,0,0,0-.05.11c0,.07,0,.08.39,0a5.61,5.61,0,0,1,.58,0,6.13,6.13,0,0,1,1.91.35,5.67,5.67,0,0,1,1.79,1.3l.19.23a4.81,4.81,0,0,0,.57.65.38.38,0,0,0,.28.13h.07a.73.73,0,0,1,.37.18,2.57,2.57,0,0,0-1,.54s0-.08,0-.11a1.06,1.06,0,0,1,0-.2.63.63,0,0,0,0-.23c0-.09-.09-.16-.17-.24a1.54,1.54,0,0,1-.17-.19,8.6,8.6,0,0,0-1.55-1.44,4.79,4.79,0,0,0-2.27-.72l-.21,0h-.21a13.11,13.11,0,0,0-3.27.76.07.07,0,0,0-.05.1A.08.08,0,0,0,248.66,274.85Zm1.7,9.8a.12.12,0,0,0,.09,0,.1.1,0,0,0,.09-.06.88.88,0,0,1,.23-.3.69.69,0,0,1,.68.16.85.85,0,0,1,0,1,.68.68,0,0,1-.5.35,1,1,0,0,1-.81-.23c-1.51-1.66-.88-3.22,0-4.53a.09.09,0,0,0,0-.1.1.1,0,0,0-.09-.06h-.14a.78.78,0,0,1-.67-.2c1.77-.77,2-1.46,2.18-2.06l0-.14a1.5,1.5,0,0,0-.2-1.16,1.91,1.91,0,0,0-1.13-1,1.51,1.51,0,0,0-1.51.32,1,1,0,0,0-.31,1s0,.07.05.08a.1.1,0,0,0,.09,0l0,0a1.4,1.4,0,0,1,.42-.12.82.82,0,0,1,.49.48.65.65,0,0,1-.09.47.59.59,0,0,1-.38.25,1,1,0,0,1-1-.4,1.84,1.84,0,0,1,0-1.73,2.22,2.22,0,0,1,2-.92,2.44,2.44,0,0,1,2,1.39c.65,1.32-.38,2.93-1.13,4.1a9.23,9.23,0,0,0-.53.9A2.18,2.18,0,0,0,250.36,284.65Zm-7.78,5.08c-3.8-3.31-1.26-6.59,0-8.17l.2-.25a2.6,2.6,0,0,0,.11-3.22h4.29a2.61,2.61,0,0,0,.1,3.23l.2.25c1.21,1.59,3.74,4.87-.06,8.16Zm4.64.21v.48h-4.57v-.48h4.57Zm-7.52-7.8a8.1,8.1,0,0,0-.52-.91c-.74-1.18-1.75-2.8-1.09-4.12a2.45,2.45,0,0,1,2-1.36,2.21,2.21,0,0,1,2,.92,1.82,1.82,0,0,1,0,1.75,1,1,0,0,1-1,.39.58.58,0,0,1-.38-.26.65.65,0,0,1-.09-.47.79.79,0,0,1,.5-.47h0a1.1,1.1,0,0,1,.41.13h0a.12.12,0,0,0,.1,0,.14.14,0,0,0,.05-.08,1,1,0,0,0-.31-1,1.49,1.49,0,0,0-1.5-.33,1.85,1.85,0,0,0-1.14.95,1.53,1.53,0,0,0-.22,1.17l0,.13c.19.61.41,1.29,2.16,2.08a.76.76,0,0,1-.66.2h-.15a.11.11,0,0,0-.09.05.09.09,0,0,0,0,.1c.81,1.32,1.44,2.89-.08,4.52a1,1,0,0,1-.82.24.69.69,0,0,1-.5-.36.86.86,0,0,1,0-1,.77.77,0,0,1,.51-.19.29.29,0,0,1,.17,0,.82.82,0,0,1,.23.31.11.11,0,0,0,.09.05.08.08,0,0,0,.09,0A2.15,2.15,0,0,0,239.7,282.14Zm1.22-7.34a4.6,4.6,0,0,0-3-.41l-.37.05a6.66,6.66,0,0,0-3.7,2.19l-.49-.09a5.23,5.23,0,0,1,.88-.94,5.41,5.41,0,0,1,2.21-1.27l.08,0a5.8,5.8,0,0,1,3.89,0l.26.11a3.64,3.64,0,0,1,2.11,1.59l-.59,0a3,3,0,0,0-4.08-.15,4.82,4.82,0,0,0-.83,1c-.11.14-.21.3-.32.45a15.92,15.92,0,0,1-1.16,1.14,3.08,3.08,0,0,1,1.33-3.08,4.29,4.29,0,0,1,1.94-.72,4.15,4.15,0,0,1,1.79.26.09.09,0,0,0,.1-.05A.08.08,0,0,0,240.92,274.8Zm-7.42,3.26c0,.11,0,.23,0,.38a2.26,2.26,0,0,1-1.21,2l-.19.14c-.18.14-.3.17-.34.13s0-.28.11-.4a3.62,3.62,0,0,0,.59-1.47c0-.29,0-.32.12-.44a.86.86,0,0,1,.07-.1.74.74,0,0,0,.2-.41h0a.11.11,0,0,0,0-.07l0,0h0a1.69,1.69,0,0,0-.47.31,1.09,1.09,0,0,0-.31.75l0,.16a2.47,2.47,0,0,1-.64,1.28c-.06.06-.09.06-.09.06s0,0,0,0a4.27,4.27,0,0,1,.08-1.53,1.8,1.8,0,0,1,1.1-1.53s.34-.13.53-.22l0,0L233,277a.86.86,0,0,0,.15-.17l.11-.11.49.1A1.86,1.86,0,0,0,233.5,278.06Zm3.72-18.15,1.43-.72-1.27-.45,1.65-.5-1.09-.47,1.27-.44-.87-.88,3.19-.06-1.06.62,1,.06-.64.88,1-.23-.21.79.71-.4v.56l.61-.44,0,.66a9.23,9.23,0,0,0-.55,1.08l-.28-.12-.06,0h-.06l0,0v3.95a.06.06,0,0,0,0,0,1.87,1.87,0,0,0,1.24.41,2.46,2.46,0,0,1,1.26.26h0v.22a1.75,1.75,0,0,0-1-.26h-.29a2.85,2.85,0,0,1-1.45-.45v-3.91a0,0,0,0,0-.05-.05.06.06,0,0,0-.06.05v4h0a3.11,3.11,0,0,0,1.53.48h.29a1.63,1.63,0,0,1,1,.27V265a1.73,1.73,0,0,0-.93-.25h-.29a3.8,3.8,0,0,1-1.7-.59v-3.9a.06.06,0,0,0-.06,0,0,0,0,0,0-.05,0v3.93h0v0h0v0h0a3.88,3.88,0,0,0,1.78.62h.28a1.63,1.63,0,0,1,.94.26v.23a2.16,2.16,0,0,0-1.13-.3l-.64-.09a5.34,5.34,0,0,1-1.43-.67v-3.85a.06.06,0,0,0-.06-.05.05.05,0,0,0-.05.05v3.88a.08.08,0,0,0,0,0,5.88,5.88,0,0,0,1.5.7l.66.09a2,2,0,0,1,1.14.32h.05l0,0a2.66,2.66,0,0,1,1.11-.29,2.9,2.9,0,0,0,2.17-.65.05.05,0,0,0,0,0v-4.16s0,0,0,0h0l-.18.11v-.19s0,0,0-.05h-.05l-.18.09v-.2a.08.08,0,0,0,0-.05h-.06l-.2.13v0a.05.05,0,0,0,0-.05h-.05a2.18,2.18,0,0,1-.87.25h-.06a2.73,2.73,0,0,0-.7-.09c.11-.29.24-.62.38-.94h0s.09-.08.07-.57l.53.33-.06-.79.83.65-.28-.94,1,.44-.65-.94,1,.13-.61-.63,1.13-.21-.85-.39,3.3.06-1.34.82,2,.71-1.74.21,1.8.81-1.44.08,1.76,1h-1.83l2.37,1.3-1.49-.2.69,1.23-1.63-.79,1.25,2-1.25-.64.61,1.23-1.25-.82.68,2.17L249,264.35l.5,2-1.26-1.16-.16,1.46-.9-1.16-.29,1.33L246,266l-.39,1-.87-.9-.64,1-.56-1-.89.9-.22-1.13-.87.56-.21-.9-.87.72.06-1.15-.95.74,0-1.4-1.56,1,.88-1.82-1.76.67,1.25-1.72-1.4.22,1.57-1.54-1.91.2,1.64-1.3Zm6.68-2.69,0-.88,1.85,0a3,3,0,0,0-.13,1.05,5.94,5.94,0,0,1,.11,1.83l0,0c-.34.78-.66,1.69-.66,1.7v0l.11.89a.92.92,0,0,1-.14.72.53.53,0,0,1-.31.27.15.15,0,0,1-.13,0,.58.58,0,0,1-.09-.27.25.25,0,0,0,0-.16.45.45,0,0,1,.23-.08.09.09,0,0,1,.08,0,0,0,0,0,0,.07,0,0,0,0,0,0,0-.07.25.25,0,0,0-.15-.1.47.47,0,0,0-.28.09c0-.07,0-.14-.08-.23a11.06,11.06,0,0,1-.29-1.75.1.1,0,0,0-.05-.06,3.78,3.78,0,0,0-.54-.07,2.34,2.34,0,0,1-.84-.2c.15-.37.67-1.24.67-1.25l.06-.09h0A2.52,2.52,0,0,0,243.9,257.22Zm3.82,3.34.15-.1v4a2.79,2.79,0,0,1-2.07.6,2.64,2.64,0,0,0-1.1.28v-.25a1.54,1.54,0,0,1,1-.25h.26c1-.05,1.2-.17,1.51-.38l.27-.17a.05.05,0,0,0,0-.05Zm-.36,3.84c-.3.2-.48.32-1.46.36h-.25a1.66,1.66,0,0,0-1,.24v-.16a1.6,1.6,0,0,1,1.11-.27h.2a2.13,2.13,0,0,0,1.42-.45s0,0,0-.05V260.4l.15-.07v3.91Zm0-4h0v3.7a2.09,2.09,0,0,1-1.34.41h-.2a1.69,1.69,0,0,0-1.11.26v-.23a2.53,2.53,0,0,1,1.39-.21h0a1.94,1.94,0,0,0,1-.41l0,0v-3.57l.17-.1Zm-.28,3.46a1.86,1.86,0,0,1-1,.37,2.49,2.49,0,0,0-1.41.19V263h0a.64.64,0,0,0,.42-.34,1.1,1.1,0,0,0,.17-.84l-.11-.85c0-.06.1-.3.22-.61h0a3.22,3.22,0,0,1,.7.09,2,2,0,0,0,.92-.21Zm-2.58-.91a.38.38,0,0,0,.1,0v1.47a2.56,2.56,0,0,0-1.28-.24,1.89,1.89,0,0,1-1.13-.37V260a4.62,4.62,0,0,0,1.14.37c.12,0,.55,0,.61,0a10.31,10.31,0,0,0,.3,1.71,3.14,3.14,0,0,1,.12.39h0A.67.67,0,0,0,244.49,262.91Zm-1.17,8.59a.94.94,0,0,0-.34.72h0a1,1,0,0,0-.49,0,3,3,0,0,1-1.15-1.72h0A2.13,2.13,0,0,1,243.32,271.5Zm-1.93-3.56c.09.23.22.56.4,1s.46,1.15.64,1.63a2.36,2.36,0,0,0-.8-.18A8.54,8.54,0,0,1,241.39,267.94Zm5.32,2.47a2.32,2.32,0,0,1-1.44,1.56l-.18.09-.16,0-.07,0s0-.05,0-.08h0a.82.82,0,0,0-.14-.26v-.05h0l-.09-.09-.09-.09c.13-.16.32-.38.32-.39A1.86,1.86,0,0,1,246.71,270.41Zm-1.07-.11c.3-.55.81-1.55,1.05-2.13a8,8,0,0,1-.15,2.08A2.64,2.64,0,0,0,245.64,270.3Zm-1.15,5,.08-.46h0a2.12,2.12,0,0,0,.23-1.35h0l0-.26a2.14,2.14,0,0,0,.7.38h0a5.27,5.27,0,0,0-.51,2.25c0,.05,0,.1,0,.13h-.56A2.87,2.87,0,0,0,244.49,275.32Zm.16-2.46a1.55,1.55,0,0,0,.14-.14s0,0,0,0l0-.08h0a0,0,0,0,0,0,0v0l0-.18v-.09s0,0,0-.06v0a2.1,2.1,0,0,1,1.86,1.14,2.3,2.3,0,0,1-1.16.14h-.06A2.37,2.37,0,0,1,244.65,272.86Zm.7-.75a3.19,3.19,0,0,0,.88-.56c-.08.25-.15.51-.23.78A3.29,3.29,0,0,0,245.35,272.11Zm-1-.77a1,1,0,0,0-.39-.08h0l-.08,0a.83.83,0,0,0-.35.1,1.73,1.73,0,0,1,.29-2A1.55,1.55,0,0,1,244.33,271.34Zm-2.19,1.11a1.58,1.58,0,0,0-.41.65,9.84,9.84,0,0,0-2.37-1.79c-1.61-.76-1.79-1.22-2.07-1.91l-.07-.18a7.51,7.51,0,0,1,2.49,1l.37.24c.1.07.19.14.36.24A9.5,9.5,0,0,1,242.14,272.45Zm.22,0a.89.89,0,0,1,.4-.09,1.19,1.19,0,0,1,.24,0l.05.17s0,0,0,0l0,.13h0a1,1,0,0,0,.26.25s-.05.09-.08.14c-.28.54-.47.9-1.7,1C241.83,273.17,242,272.64,242.36,272.47Zm.84,0h0a.58.58,0,0,1,0-.19h0s0,0,0-.06a.06.06,0,0,1,0,0,.8.8,0,0,1,.3-.61h0l.06-.05h0a.76.76,0,0,1,.18-.09.93.93,0,0,1,.24-.05h0a.85.85,0,0,1,.22,0l.09,0a1.1,1.1,0,0,1,.21.14l0,0,0,0h0a.58.58,0,0,1,.14.24h0a.71.71,0,0,1,0,.2h0s0,0,0,.07a.07.07,0,0,0,0,.05h0a.87.87,0,0,1,0,.22v0a.7.7,0,0,1-.14.21h0l0,0-.07,0h0a.82.82,0,0,1-.49.18l-.1,0h0l-.17,0h0A.78.78,0,0,1,243.2,272.52Zm.31.57h.06a.57.57,0,0,0,.19.05h.06l.12,0a.82.82,0,0,0,.31-.07l.17-.08,0,0a2,2,0,0,1-.3,2.21A1.81,1.81,0,0,1,243.51,273.09Zm3.71,3.77v1h-4.46v-1Zm-1.09-.87h-.54a4.67,4.67,0,0,1,.49-2.15l.15-.23a2.12,2.12,0,0,0,.68-.19.08.08,0,0,0,0,0,.09.09,0,0,0,0-.07,4.86,4.86,0,0,0-.27-.41l0-.06a10.18,10.18,0,0,1,3-2.92c-.41,2.28-1,3-1.52,3.45a5.25,5.25,0,0,0-1.62,2.61ZM238,271.81a15.82,15.82,0,0,1,3.62,1.75c-.06.2-.12.41-.18.66a.06.06,0,0,0,0,.07.06.06,0,0,0,.06,0h0a5,5,0,0,0,.85-.14,1.59,1.59,0,0,1,.31.4c.05.12.06.14.11.14h0a.07.07,0,0,0,.07,0,.08.08,0,0,0,0-.07h0l0-.06a3.78,3.78,0,0,0-.21-.45,1.27,1.27,0,0,0,.51-.37l.15.24a1.77,1.77,0,0,0,.61,1.23,5.79,5.79,0,0,1,.27.8h-.81a5.68,5.68,0,0,0-3.22-2.27c-1-.38-1.29-.48-1.93-.68l-.6-.19c-1.06-.34-2.15-.68-2.39-1.08l-.55-.87a8,8,0,0,0,2,.58A10.06,10.06,0,0,1,238,271.81Zm10.15-15.13-.87.17.47.48-.84-.11.51.73-.76-.34.23.76-.7-.54.07.84-.31-.19c0-.27-.06-.63-.12-1.13a2.71,2.71,0,0,1,.16-1.08s0,0,0,0h1.15Zm-4.34-.42,0,1a2.41,2.41,0,0,1-.5,1.31l0,0-.06-.73-.58.42v-.52l-.59.34.17-.64-.82.18.55-.75-.74,0,1.08-.63h1.59S243.77,256.24,243.77,256.26Zm31.81,58.42a2.6,2.6,0,0,0-2.1.91h-1.77v-1.43h7.5v1.43h-1.75A2.41,2.41,0,0,0,275.58,314.68Zm1.78,1.11v4.3h-3.79V315.8a2.4,2.4,0,0,1,1.94-.91h.07A2.17,2.17,0,0,1,277.36,315.79Zm-6.19-20.59h.5a.12.12,0,0,0,.12-.11v-.47h.29v.47a.11.11,0,0,0,.11.11h.5a.11.11,0,0,0,.12-.11v-.46H273v.78h-2.23v-.78h.27v.46A.11.11,0,0,0,271.17,295.2Zm3.64,0h.49a.11.11,0,0,0,.12-.11v-.47h.29v.47a.11.11,0,0,0,.12.11h.5a.11.11,0,0,0,.11-.11v-.46h.21v.78h-2.23v-.78h.27v.46A.11.11,0,0,0,274.81,295.17Zm3.54,0h.5A.13.13,0,0,0,279,295v-.46h.29V295a.12.12,0,0,0,.11.12h.5A.12.12,0,0,0,280,295v-.45h.21v.77H278v-.78h.27V295A.12.12,0,0,0,278.35,295.15Zm2.89,4.41v1.25h-1.86v-1.25Zm-1-.17v-1h1v1Zm-9.13-3h1.66L273,298h-.67v-.73c0-.33-.23-.48-.41-.48h0c-.18,0-.38.14-.42.48V298h-.69Zm-.23-.78H273l-.23.67h-1.67Zm2,2.76v.32H271v-.32Zm-1.27-1.14c0-.26.18-.38.31-.38h0c.13,0,.27.12.3.37V298h-.61Zm-.58,1.63h1.85v.5H271Zm3.65-2.47h1.67l.26,1.57H276v-.74c0-.33-.24-.48-.41-.48h0c-.18,0-.38.15-.42.49V298h-.69Zm-.22-.81h2.14l-.25.7h-1.67Zm3.78.8h1.67l.26,1.56h-.66v-.74c0-.32-.24-.47-.41-.47h0c-.18,0-.38.14-.42.48V298H278Zm-.23-.83h2.14l-.24.71h-1.67Zm2,2.82v.3h-1.86v-.3Zm-1.25-1.15c0-.27.18-.38.31-.38h0c.12,0,.27.12.29.37V298h-.61Zm-.61,1.62H280v.52h-1.86Zm1,.69v1.25h-1.87v-1.25Zm-.06,1.42-.55,1.15h-1.43l.16-1.15Zm.09,8.7v-1h1.34l.16,1Zm1.52.17.15,1h-.8v-1Zm-10.44-.17.15-1h1.38v1Zm.64.17v1h-.82l.15-1Zm5.49-7.39v1.12h-1.84v-1.12Zm-.84-1.48h1.55l-.16,1.15h-1.39Zm1.64,2.77V305h-.47a1.22,1.22,0,0,0-2.44,0h-.53v-1.28Zm1,2.43v-1h1v1Zm.48.18v1h-1.91v-1Zm.07-1.33h-1.35v-1.28h1.35Zm-.72.17v1h-1.26v-1Zm-1.46,3.29h-2v-3.41a1,1,0,0,1,2,0Zm-2.26-3.29v1H273v-1Zm-2,1.16h2v1h-2Zm-.52-.18v-1h1v1Zm1.79-1.15h-1.36v-1.28h1.36Zm-.94-1.45h-1.46l.17-1.12h1.29Zm-.59.17V305H271l.19-1.28Zm-.43,1.45v1h-.83l.14-1Zm.52,1.16v1h-1.53l.15-1Zm-.87,1.17v1h-.83l.14-1Zm.17,1v-1H273v1Zm.52.17h1.54v1H272Zm1.14-.17v-1h1.17v1Zm.57.17h3.59v1h-3.59Zm3.07-.17v-1h1.11v1Zm.69.17h1.58v1h-1.58Zm.58-.17v-1h1.52v1Zm1.69,0v-1h.65l.15,1Zm-.88-1.15v-1h1.35l.15,1Zm.53-1.16v-1h.63l.15,1Zm-.47-1.15v-1.28h.89L280,305Zm-.58-1.45v-1.12h1.27l.17,1.12Zm-.17-1.12v1.12h-1.57v-1.12Zm-2.58-1.65v-1.25h1.57v1.25Zm.85-2.41v.3h-1.87v-.3Zm-1.24-1.13c0-.27.18-.39.31-.39h0c.12,0,.27.12.3.38V298h-.62Zm-.63,1.6h1.87v.52h-1.87Zm.85,3.26H274l-.12-1.15h1.55Zm-1,.33v1.12h-1.57v-1.12Zm-2.26-.33-.43-1.15h2l.11,1.15Zm-.18,0h-.67L269.91,301h1.66ZM270.12,311h1.73v.9H270Zm1-.17v-1h1.58v1Zm.89.17h1.69v.9H272Zm.86-.17v-1h1.85v1Zm1,.17h1.57v.9h-1.57Zm1-.17v-1h1.28v1Zm.72.17h1.55v.9h-1.55Zm.73-.17v-1h1.85v1Zm1,.17h1.73v.9h-1.73Zm1-.17v-1h1.57v1Zm.87.17h1.7l.14.9h-1.84Zm.47-8.87h-.92l.55-1.15h1.79ZM278,298.4v1h-1.36v-1Zm-2.56,1.16v1.25h-1.56v-1.25Zm-1-.17h-1.37v-1h1.37Zm-.71.17v1.25h-2v-1.25Zm-2.85-1.16v1h-1v-1Zm.68,1.16v1.25h-1.7v-1.25Zm9.61,12.66.76.76H269l.78-.76Zm.94.94.82.82H268l.86-.82Zm-4.51,4.74v-1h1.63v1Zm.69.17v1h-.69v-1Zm-.69-1.31v-1h.69v1Zm.86,0v-1h1.87v1Zm.94-1.17v-1.43h1.86v1.43Zm0,1.34h2v1h-2Zm1.1-.17v-1h1.85v1Zm-10-1v1h-1.86v-1Zm-.79-.17v-1.43h1.86v1.43Zm-.12,1.34h2v1h-2Zm1.08-.17v-1h1.85v1Zm-1.13-2.6v1.43h-1.68v-1.43Zm-1.07,1.6v1h-.61v-1Zm.95,1.17v1h-1.56v-1Zm-.93,1.14v1h-.63v-1Zm.93,1.17v.85h-1.56v-.85Zm-.76-.17v-1h1.84v1Zm.93.17h2v.85h-2Zm1.08-.17v-1h1.83v1Zm1.09.17h1.63v.85h-1.63Zm.91-.17v-1h.72v1Zm-.93-1.17v-1h1.65v1Zm1-1.14v-1h.7v1Zm4.92,2.48h1.63v.85h-1.63Zm.86-.17v-1h1.85v1Zm.94.17h2v.85h-2Zm1.08-.17v-1h1.85v1Zm1.09.17h1.57v.85h-1.57Zm.93-.17v-1h.64v1Zm-.93-1.17v-1h1.57v1Zm.95-1.14v-1h.62v1Zm-.06-1.17h-1v-1.43h1.66l0,0v1.4Zm3.77-59.37h5.64v13.45h-5.64Zm-11.56,0h5.48v13.45h-5.48Zm-11.6,0h5.55v13.45h-5.55Zm0,13.75h34.73c0,7,0,15.12,0,21.11H263.05Zm-.55,69.95-.64-.42c-12.51-7.2-21.82-15-27.54-22.85l11.35-6,16.83,9.54Zm0-28.41L245.67,302l-15.27,8.1a26.69,26.69,0,0,1-2.7-11.33v-7.1h34.8Z" transform="translate(-226.93 -235.01)"/><path class="cls-1" d="M255.56,300a.92.92,0,0,1-.74-.63v-.07c-.06-.28-.11-.52-.51-.58,0,0-.06,0-.06,0s0,.06,0,.06c.34.05.37.23.43.5v.07a1,1,0,0,0,.81.7,1.59,1.59,0,0,1,.74.55l0,0h0a.05.05,0,0,0,0-.07A1.64,1.64,0,0,0,255.56,300Z" transform="translate(-226.93 -235.01)"/><path class="cls-1" d="M256.26,296.35a1.05,1.05,0,0,1,.37-.4,1.54,1.54,0,0,0-1.15-.13C255.87,295.85,256,296.05,256.26,296.35Z" transform="translate(-226.93 -235.01)"/><path class="cls-1" d="M253.92,300.25a0,0,0,0,0,0-.05h0s-.05,0-.05,0a1.22,1.22,0,0,0,.07.58l0,0h0a.07.07,0,0,0,0-.07A1,1,0,0,1,253.92,300.25Z" transform="translate(-226.93 -235.01)"/><path class="cls-1" d="M255,300.29a0,0,0,0,0,0,.07.88.88,0,0,1,.26.53.05.05,0,0,0,0,.05h0s0,0,0-.06a1,1,0,0,0-.29-.59A0,0,0,0,0,255,300.29Z" transform="translate(-226.93 -235.01)"/><path class="cls-1" d="M254.24,300a.05.05,0,0,0,0-.06s0,0-.06,0a1.13,1.13,0,0,0,.15.71l.05,0h0a0,0,0,0,0,0-.06A1,1,0,0,1,254.24,300Z" transform="translate(-226.93 -235.01)"/><path class="cls-1" d="M251,301.35c-.16-.07-.24-.11-.38-.4a0,0,0,0,0-.06,0,0,0,0,0,0,0,.06.75.75,0,0,0,.43.45l.11.06h0l0,0a.06.06,0,0,0,0-.07Z" transform="translate(-226.93 -235.01)"/><path class="cls-1" d="M255.47,300.31a0,0,0,0,0-.06,0s0,.05,0,.06a.93.93,0,0,1,.5.45s0,0,0,.08,0,0,0,0h0a.05.05,0,0,0,0-.07l0-.08A1.08,1.08,0,0,0,255.47,300.31Z" transform="translate(-226.93 -235.01)"/><path class="cls-1" d="M253.57,300.24a.07.07,0,0,0-.06,0,1.9,1.9,0,0,0,0,.63.05.05,0,0,0,.05,0h0a0,0,0,0,0,0-.06,1.65,1.65,0,0,1,0-.59S253.6,300.25,253.57,300.24Z" transform="translate(-226.93 -235.01)"/><path class="cls-1" d="M253.21,300.34s-.05,0-.05,0a3.32,3.32,0,0,0,0,.66s0,0,.05,0h0a0,0,0,0,0,0-.05,4.1,4.1,0,0,1,0-.64A.05.05,0,0,0,253.21,300.34Z" transform="translate(-226.93 -235.01)"/><path class="cls-1" d="M251.48,301.24a.41.41,0,0,1-.27-.35s0,0-.06,0a0,0,0,0,0,0,.06.51.51,0,0,0,.33.41h.08a.06.06,0,0,0,0-.07Z" transform="translate(-226.93 -235.01)"/><path class="cls-1" d="M252.53,300.53s0-.06,0-.06h0a0,0,0,0,0,0,0,1.93,1.93,0,0,0,0,.55.07.07,0,0,0,.05,0h0a.05.05,0,0,0,0-.06A1.68,1.68,0,0,1,252.53,300.53Z" transform="translate(-226.93 -235.01)"/><path class="cls-1" d="M251.58,300.82a.05.05,0,0,0-.1,0,.41.41,0,0,0,.19.31l0,0a.05.05,0,0,0,0,0l0,0a0,0,0,0,0,0-.07l0,0A.32.32,0,0,1,251.58,300.82Z" transform="translate(-226.93 -235.01)"/><path class="cls-1" d="M246.94,300.72a4.25,4.25,0,0,0,1.48.49,1.38,1.38,0,0,0,.71-.23,2,2,0,0,1,.51-.25c0,.11.05.53.32.55h.1c.12,0,.17,0,.32.17a1.2,1.2,0,0,0,.85.45,1.05,1.05,0,0,0,.68-.3l.07-.06a.62.62,0,0,1,.64-.14,2.07,2.07,0,0,0,1.18-.09,1.12,1.12,0,0,1,1,0,5.85,5.85,0,0,0,2.84.09l0,0a1.07,1.07,0,0,0,.65.38.11.11,0,0,0,.11,0,.13.13,0,0,0,0-.12s-.08-.14-.05-.54a1.84,1.84,0,0,0,1.66.12.13.13,0,0,0,.07-.09.12.12,0,0,0-.05-.1c-.11-.07-.23-.16-.37-.27l-.22-.18a1,1,0,0,0,.62-.08l.08-.05c.23-.13.62-.34,1.11-1.44a.1.1,0,0,0,0-.12.09.09,0,0,0-.13,0,1.38,1.38,0,0,1-.55.2,2.33,2.33,0,0,0,.8-1.26.1.1,0,0,0-.05-.12.12.12,0,0,0-.13,0,.94.94,0,0,1-.35.2,2.67,2.67,0,0,0,.54-.93.1.1,0,0,0-.16-.11,2.14,2.14,0,0,1-.82.33,2.53,2.53,0,0,0,.66-.82.13.13,0,0,0,0-.13.13.13,0,0,0-.12,0,1.41,1.41,0,0,1-.66.15c.51-.58.59-1.21.42-2.66a.09.09,0,0,0-.09-.09.11.11,0,0,0-.11.07,1.86,1.86,0,0,1-1.37,1.43H259a1.74,1.74,0,0,0,.3-.38,2.35,2.35,0,0,0-.09-2.17s0-.06-.08-.06a.1.1,0,0,0-.1,0c-.15.17-.25.32-.34.44a1.17,1.17,0,0,1-.86.59,1.81,1.81,0,0,0-1.26,1.1,1.36,1.36,0,0,0-.56-.14,1.66,1.66,0,0,0-1.18.52,1.29,1.29,0,0,0-1.45.3c-.18.24-.2.23-.35.14l-.23-.13a1.65,1.65,0,0,0-1.69.08.11.11,0,0,0,0,.12.11.11,0,0,0,.1.07.77.77,0,0,1,.59.1.26.26,0,0,1,.07.24.24.24,0,0,1-.1.21.39.39,0,0,1-.26.1l-.25,0-.4,0a.67.67,0,0,1-.18-.07A1.4,1.4,0,0,0,250,296h0a.78.78,0,0,0-.68.34s0,0,0,0a.9.9,0,0,1-.51.62.52.52,0,0,0-.26.37,1.26,1.26,0,0,0,.07.82.82.82,0,0,0,.67.3,1,1,0,0,0,.17,0,1.31,1.31,0,0,0,.4.51h-.16a1.65,1.65,0,0,0-.46.15c-.21.11-.38.2-1.07-.08-.29-.12-.62-.11-1.3.33a.78.78,0,0,0-.4.71A.75.75,0,0,0,246.94,300.72Zm13-4.33a.09.09,0,0,0,0,.11.11.11,0,0,0,.08.07,1.75,1.75,0,0,0,.7,0,1.67,1.67,0,0,1-1.19.81.1.1,0,0,0-.08.12.12.12,0,0,0,.11.09,4.84,4.84,0,0,0,1.49-.35,1.81,1.81,0,0,1-.81.91.1.1,0,0,0,0,.05,7.71,7.71,0,0,1-1.64,0,8.09,8.09,0,0,0,1-1.36s0,0,0,0a0,0,0,0,0,0,0,1.87,1.87,0,0,1-.51.08l.07,0a3.6,3.6,0,0,0,1.49-1.65A1.7,1.7,0,0,1,260,296.39Zm-.81-1.76a1.23,1.23,0,0,1-.63.59l-.18,0-.15,0a3.68,3.68,0,0,0,.7-.81,0,0,0,0,0,0,0s0,0,0,0-.24,0-.51,0a2.79,2.79,0,0,0,.95-.79A1.83,1.83,0,0,1,259.14,294.63Zm-8.34,1.83.41,0,.24,0a.66.66,0,0,0,.43-.14.53.53,0,0,0,.17-.36.49.49,0,0,0-.13-.4.56.56,0,0,0-.33-.15,1.53,1.53,0,0,1,1.12.12l.21.11c.23.14.36.17.63-.19a1,1,0,0,1,1.1-.25l-.08.1a.11.11,0,0,0,0,.14.11.11,0,0,0,.15,0,1.69,1.69,0,0,1,1.24-.71h0a1.28,1.28,0,0,1,.56.16l0,0a.75.75,0,0,1,.26.22.11.11,0,0,0,.15,0,.11.11,0,0,0,0-.14,1.33,1.33,0,0,0-.27-.24,1.58,1.58,0,0,1,1.13-1,1.4,1.4,0,0,0,1-.67c.06-.08.13-.18.23-.3a3.93,3.93,0,0,1,.17.6,2.89,2.89,0,0,1-1,.86l-.14.07a.07.07,0,0,0,0,.06.1.1,0,0,0,.05,0,3.9,3.9,0,0,1,.63,0,4.94,4.94,0,0,1-.78.83c-.58.15-.87.45-.92,1.29a.12.12,0,0,0,.1.11.1.1,0,0,0,.11-.1c.05-.91.39-1.06,1.09-1.16l.17,0h0l.58-.09a2,2,0,0,0,1.38-1.14c0,.25,0,.46,0,.65a3.48,3.48,0,0,1-1.55,1.81l-.22.14a.08.08,0,0,0,0,.05.07.07,0,0,0,.05,0,3.84,3.84,0,0,0,.6-.05,8.86,8.86,0,0,1-1,1.3s0,0,0,.05,0,0,0,0a6.78,6.78,0,0,0,1,.07c.35,0,.64,0,.77,0a.12.12,0,0,0,.11,0,5.87,5.87,0,0,0,.74-.26,1.57,1.57,0,0,1-1.13,1.09.12.12,0,0,0-.08.12.11.11,0,0,0,.1.09,3.24,3.24,0,0,0,1-.16,3.57,3.57,0,0,1-.54.8,5.34,5.34,0,0,1-2.33-.9,0,0,0,0,0-.07,0,0,0,0,0,0,0,.07,5.41,5.41,0,0,0,2.3.9,1.37,1.37,0,0,1-.26.18l-.09.05a1.25,1.25,0,0,1-1.05-.13.11.11,0,0,0-.14,0,.12.12,0,0,0,0,.15c.35.23.57.41.75.55l.21.17a1.64,1.64,0,0,1-.37.05A5.8,5.8,0,0,1,258,300a.05.05,0,0,0-.08.06,6,6,0,0,0,1.31,1.09,1.59,1.59,0,0,1-.85-.3.09.09,0,0,0-.1,0,.1.1,0,0,0-.06.08,2.75,2.75,0,0,0,0,.64.91.91,0,0,1-.35-.26l0,0-.05-.05h0a2.36,2.36,0,0,1-.35-.89s0-.05-.06,0a0,0,0,0,0,0,.06,2.64,2.64,0,0,0,.31.84,5.43,5.43,0,0,1-2.73-.08,1.34,1.34,0,0,0-1.15.05,1.83,1.83,0,0,1-1,.08.85.85,0,0,0-.83.18l-.08.06c-.25.2-.63.51-1.25-.13a.51.51,0,0,0-.46-.24H250c-.07,0-.13-.25-.13-.38h.23a8,8,0,0,0,1-.15.91.91,0,0,0,.55-.4,1.22,1.22,0,0,1,.63-.4h0a1.06,1.06,0,0,1,.35,0,2.08,2.08,0,0,0,.47.08.58.58,0,0,0,.38-.13l.07-.06c.1-.08.15-.12.53-.13a.1.1,0,0,0,.09-.06.09.09,0,0,0,0-.11,1.63,1.63,0,0,0-.38-.34,1.55,1.55,0,0,1-.23-.53,0,0,0,0,0,0,0,.06.06,0,0,0-.05,0s-.09.14-.18.34h-.06a1,1,0,0,0-.19-.57.07.07,0,0,0-.05,0,.07.07,0,0,0,0,0v0a.93.93,0,0,1-.25.57l-.08,0-.14,0a.85.85,0,0,0,.3-.56,1,1,0,0,0-1-1.31.05.05,0,0,0-.05,0,0,0,0,0,0,0,.05.82.82,0,0,1,.31.66,1,1,0,0,1-.47.63.37.37,0,0,0-.17.16,1.31,1.31,0,0,1-.19-.27.63.63,0,0,0,.31-.56.78.78,0,0,0-.37-.7.74.74,0,0,1-.38-.45,1.22,1.22,0,0,0-.07-.17s0,0,0-.06A.67.67,0,0,0,250.8,296.46Zm-.08,4a1.08,1.08,0,0,1-.12-1l.07.11a1.53,1.53,0,0,0,.67.58.63.63,0,0,1-.32.2Zm-.27-2a.54.54,0,0,0,.5,0,2.2,2.2,0,0,0,.17.25,1.11,1.11,0,0,0-.17.69A1.92,1.92,0,0,1,250.45,298.4Zm.13.6h-.06v-.09Zm.62-.28.08.08a.25.25,0,0,0,.05.13.23.23,0,0,0,.14.12l.13.06a.59.59,0,0,0,.25.05l.16,0a1.7,1.7,0,0,0,.39,0l.21-.05a1.58,1.58,0,0,1,.56-.06,2.22,2.22,0,0,0-.1.61,1.32,1.32,0,0,1-.42-.06,1.06,1.06,0,0,0-.39,0h0a5.93,5.93,0,0,1-1.2-.35A1.09,1.09,0,0,1,251.2,298.72Zm.19,0a.3.3,0,0,1,.15-.18h0a1.13,1.13,0,0,0,.53-.71.86.86,0,0,0-.24-.64,1,1,0,0,1,.65.33,1,1,0,0,1,.13.86.79.79,0,0,1-.41.6h0a.65.65,0,0,1-.55.06l-.14-.06s-.06,0-.1-.09A.21.21,0,0,1,251.39,298.69Zm1.35.23a1,1,0,0,0,.24-.49.84.84,0,0,1,.1.44Zm.71-.28a1.59,1.59,0,0,0,.46.76.89.89,0,0,0-.49.16l0,0a.45.45,0,0,1-.21.12A2.19,2.19,0,0,1,253.45,298.64Zm-4.69-.56a1,1,0,0,1,0-.66.34.34,0,0,1,.16-.24,1.12,1.12,0,0,0,.61-.74.54.54,0,0,1,.46-.23h0a.54.54,0,0,1,.49.32,1,1,0,0,1,.07.15.91.91,0,0,0,.47.55.6.6,0,0,1,.27.52.43.43,0,0,1-.22.38c-.33.17-.39.14-.52.07h0a1,1,0,0,0-1,.05A.68.68,0,0,1,248.76,298.08Zm1.2.24a.63.63,0,0,1,.38,0,3.69,3.69,0,0,0,.1.39,1.11,1.11,0,0,0,0,.19,1.42,1.42,0,0,1,0,.19A1.62,1.62,0,0,1,250,298.32Zm.18.63h-.06a.37.37,0,0,1,0-.11A.41.41,0,0,0,250.14,299Zm-.62-.51h.08l.26-.09a1.12,1.12,0,0,0,.08.26,1,1,0,0,0,0,.36A1.18,1.18,0,0,1,249.52,298.44Zm-2.58,1.11a1.77,1.77,0,0,1,.88-.36.52.52,0,0,1,.23.05c.78.32,1,.2,1.25.08a1,1,0,0,1,.39-.14,2.7,2.7,0,0,1,.63,0l.07.07,0,0,0,0h0l0,0v0l.23.07,0,0a.84.84,0,0,0,.2.19H251a.05.05,0,0,0,0-.05v0a5.57,5.57,0,0,0,.84.27,1,1,0,0,0-.45.37l0,0a1.38,1.38,0,0,1-.67-.56c0-.06-.09-.12-.13-.19s0,0-.05,0,0,0,0,0a1.35,1.35,0,0,0,.07,1.09,4.28,4.28,0,0,1-.53.06h-.13c-.18,0-.37,0-.92.31s-.8.25-2-.26a.59.59,0,0,1-.39-.46A.61.61,0,0,1,246.94,299.55Z" transform="translate(-226.93 -235.01)"/><path class="cls-1" d="M254.13,297.59a.09.09,0,0,0,.05,0h0a0,0,0,0,0,0-.06.47.47,0,0,0-.37-.26.61.61,0,0,0,0-.48,1.29,1.29,0,0,0,.23-.12,1.88,1.88,0,0,0,.74,0,.54.54,0,0,0-.22.42.52.52,0,0,0,.52.53l.1,0a2.8,2.8,0,0,0,.12.29h0s0,0,0-.07a.29.29,0,0,1,.08-.13l.1-.07.07,0a.73.73,0,0,1,.26,0H256a2.25,2.25,0,0,1-.36-.24s0-.05,0-.08a.51.51,0,0,0,0-.13.32.32,0,0,0,0-.14v-.08l0,0a.5.5,0,0,0-.19-.19l-.14-.15s0,0,0,0a2.18,2.18,0,0,1-1.09.11h-.06a1.27,1.27,0,0,1-.29.15s0,0,0,0,0,0,0,0,0,.48,0,.48a0,0,0,0,0,0,0s0,0,0,0A.43.43,0,0,1,254.13,297.59Zm1.2-.87.19.2a0,0,0,0,1,0,0,1.85,1.85,0,0,1,0,.25,0,0,0,0,1,0,0,2.13,2.13,0,0,1-.4-.38h0a2.17,2.17,0,0,0,.09.65l-.07,0a.43.43,0,0,1,0-.85A.41.41,0,0,1,255.33,296.72Z" transform="translate(-226.93 -235.01)"/><path class="cls-1" d="M250.64,298a.64.64,0,0,0,.2,0,.39.39,0,0,0,.14-.36v0a.26.26,0,0,0-.22-.2.23.23,0,0,0-.17,0,.33.33,0,0,0-.12.23s0,.1.14.13a.57.57,0,0,1-.16.08s-.06,0-.07,0a0,0,0,0,0,0,.06A.52.52,0,0,0,250.64,298Zm.11-.22s0,0,0-.05a.05.05,0,0,0,0,0c-.12,0-.15,0-.15-.06a.23.23,0,0,1,.07-.14.16.16,0,0,1,.1,0,.15.15,0,0,1,.14.12,0,0,0,0,0,0,0,.38.38,0,0,1-.09.24.62.62,0,0,1-.19,0A.31.31,0,0,0,250.75,297.74Z" transform="translate(-226.93 -235.01)"/><path class="cls-1" d="M249.29,297.25h0c-.07,0-.31.05-.35.16a.56.56,0,0,0,0,.45H249a.05.05,0,0,0,0-.07.59.59,0,0,1,.07-.17c0,.14.14.14.15.14a.33.33,0,0,0,.21-.13.2.2,0,0,0,0-.17A.23.23,0,0,0,249.29,297.25Zm.1.32a.24.24,0,0,1-.14.09s-.05,0-.06-.15,0,0,0,0h0a.33.33,0,0,0-.12.15.31.31,0,0,1,0-.19.34.34,0,0,1,.23-.1h0s.1,0,.13.13A.13.13,0,0,1,249.39,297.57Z" transform="translate(-226.93 -235.01)"/><path class="cls-1" d="M252,324.6a.91.91,0,0,1-.74-.63v-.07c-.06-.27-.11-.51-.51-.58a.06.06,0,0,0-.06.05s0,.05,0,.05c.34.05.38.23.43.5l0,.07a1,1,0,0,0,.81.7,1.67,1.67,0,0,1,.73.55l0,0h0s0-.05,0-.07A1.7,1.7,0,0,0,252,324.6Z" transform="translate(-226.93 -235.01)"/><path class="cls-1" d="M252.74,321a1,1,0,0,1,.37-.41,1.5,1.5,0,0,0-1.15-.12C252.35,320.47,252.43,320.66,252.74,321Z" transform="translate(-226.93 -235.01)"/><path class="cls-1" d="M250.4,324.86s0-.05,0-.05h0s0,0,0,0a1.22,1.22,0,0,0,.07.58s0,0,0,0h0a.06.06,0,0,0,0-.07A1,1,0,0,1,250.4,324.86Z" transform="translate(-226.93 -235.01)"/><path class="cls-1" d="M251.49,324.91a0,0,0,0,0,0,.07.86.86,0,0,1,.25.53.07.07,0,0,0,.05,0h0a0,0,0,0,0,0-.05,1,1,0,0,0-.29-.6A0,0,0,0,0,251.49,324.91Z" transform="translate(-226.93 -235.01)"/><path class="cls-1" d="M250.72,324.65s0,0,0,0-.05,0-.06,0a1,1,0,0,0,.16.71s0,0,0,0h0a.05.05,0,0,0,0-.07A1,1,0,0,1,250.72,324.65Z" transform="translate(-226.93 -235.01)"/><path class="cls-1" d="M247.51,326a.67.67,0,0,1-.38-.41,0,0,0,0,0-.06,0,.05.05,0,0,0,0,.07.75.75,0,0,0,.43.45l.11.05h0a.05.05,0,0,0,0,0,.07.07,0,0,0,0-.07Z" transform="translate(-226.93 -235.01)"/><path class="cls-1" d="M252,324.93a0,0,0,0,0,0,.09.9.9,0,0,1,.5.45l.05.07s0,0,0,0h0s0,0,0-.07l0-.07A1,1,0,0,0,252,324.93Z" transform="translate(-226.93 -235.01)"/><path class="cls-1" d="M250.05,324.86s-.05,0-.06,0a1.9,1.9,0,0,0,0,.63.07.07,0,0,0,0,0h0s0,0,0-.06a1.69,1.69,0,0,1,0-.59A0,0,0,0,0,250.05,324.86Z" transform="translate(-226.93 -235.01)"/><path class="cls-1" d="M249.69,325a.05.05,0,0,0-.05.05,4.28,4.28,0,0,0,0,.65,0,0,0,0,0,.05.05h0a.06.06,0,0,0,.05-.06,4,4,0,0,1,0-.63A.06.06,0,0,0,249.69,325Z" transform="translate(-226.93 -235.01)"/><path class="cls-1" d="M248,325.85a.41.41,0,0,1-.27-.34.06.06,0,0,0-.06,0s0,0,0,.06a.51.51,0,0,0,.33.41h0l0,0,0,0a0,0,0,0,0,0-.07Z" transform="translate(-226.93 -235.01)"/><path class="cls-1" d="M249,325.14a.07.07,0,0,0,0-.06h0a.07.07,0,0,0-.05,0,2.07,2.07,0,0,0,.05.56.05.05,0,0,0,0,0h0s0,0,0-.06A1.64,1.64,0,0,1,249,325.14Z" transform="translate(-226.93 -235.01)"/><path class="cls-1" d="M248.06,325.44a.05.05,0,1,0-.1,0,.42.42,0,0,0,.19.3l0,0,0,0h0a.06.06,0,0,0,0-.07l0,0C248.16,325.62,248.06,325.54,248.06,325.44Z" transform="translate(-226.93 -235.01)"/><path class="cls-1" d="M245.25,321.61a.54.54,0,0,0-.26.37,1.23,1.23,0,0,0,.08.83.79.79,0,0,0,.66.3,1,1,0,0,0,.17,0,1.3,1.3,0,0,0,.4.5h-.16a1.36,1.36,0,0,0-.46.16c-.21.11-.38.19-1.07-.09-.29-.11-.62-.1-1.3.34a.79.79,0,0,0-.4.71.77.77,0,0,0,.51.63,4.36,4.36,0,0,0,1.49.48,1.29,1.29,0,0,0,.7-.23,2.47,2.47,0,0,1,.51-.25c0,.11,0,.53.32.56h.1c.12,0,.17,0,.32.17a1.19,1.19,0,0,0,.85.46,1.11,1.11,0,0,0,.68-.3.21.21,0,0,1,.08-.06.61.61,0,0,1,.63-.15,2.2,2.2,0,0,0,1.19-.08,1.14,1.14,0,0,1,1-.05,5.71,5.71,0,0,0,2.84.09l0,0a1.18,1.18,0,0,0,.65.38.14.14,0,0,0,.11,0,.11.11,0,0,0,0-.11s-.08-.14-.05-.54a1.84,1.84,0,0,0,1.66.11.11.11,0,0,0,.07-.09.12.12,0,0,0-.05-.1c-.11-.07-.22-.16-.37-.27l-.22-.17a1.11,1.11,0,0,0,.62-.09l.08,0c.23-.13.62-.34,1.11-1.43a.11.11,0,0,0,0-.13.1.1,0,0,0-.13,0,1.38,1.38,0,0,1-.55.2,2.29,2.29,0,0,0,.8-1.26.09.09,0,0,0-.05-.12.11.11,0,0,0-.13,0,.87.87,0,0,1-.35.19,2.72,2.72,0,0,0,.55-.93.11.11,0,0,0,0-.12.1.1,0,0,0-.13,0,2.28,2.28,0,0,1-.82.34,2.58,2.58,0,0,0,.66-.83.1.1,0,0,0-.14-.14,1.33,1.33,0,0,1-.66.14c.51-.58.6-1.21.42-2.66a.09.09,0,0,0-.09-.09.11.11,0,0,0-.11.08,1.83,1.83,0,0,1-1.37,1.42h-.09a1.66,1.66,0,0,0,.3-.37,2.36,2.36,0,0,0-.09-2.18.16.16,0,0,0-.08-.06.1.1,0,0,0-.09,0l-.35.44a1.15,1.15,0,0,1-.86.59,1.81,1.81,0,0,0-1.26,1.1,1.31,1.31,0,0,0-.55-.13,1.63,1.63,0,0,0-1.19.52,1.29,1.29,0,0,0-1.45.29c-.18.24-.2.23-.35.14l-.23-.12a1.63,1.63,0,0,0-1.68.07.1.1,0,0,0,0,.12.09.09,0,0,0,.1.07.82.82,0,0,1,.59.1.27.27,0,0,1,.07.25.26.26,0,0,1-.1.21.42.42,0,0,1-.26.09l-.25,0-.4,0a.55.55,0,0,1-.18-.08,1.4,1.4,0,0,0-.68-.18h0a.75.75,0,0,0-.67.35.05.05,0,0,0,0,0A.91.91,0,0,1,245.25,321.61Zm.75,1.45.08,0,.26-.09a1.2,1.2,0,0,0,.08.27,1.38,1.38,0,0,0,0,.36A1.29,1.29,0,0,1,246,323.06Zm.44-.13a.57.57,0,0,1,.38,0,1.89,1.89,0,0,0,.11.38,1.06,1.06,0,0,0,0,.2,1.21,1.21,0,0,1,0,.18A1.7,1.7,0,0,1,246.44,322.93Zm.18.63h-.06a.34.34,0,0,1,0-.1A.86.86,0,0,0,246.62,323.56Zm-1.12,1.85c-.55.34-.8.25-2-.26a.59.59,0,0,1-.39-.46.58.58,0,0,1,.31-.52,1.67,1.67,0,0,1,.88-.36.68.68,0,0,1,.23,0c.78.32,1,.21,1.25.08a1,1,0,0,1,.39-.13,2.32,2.32,0,0,1,.63,0l.07.07,0,0H247s0,0,0,0v0a.9.9,0,0,1,.23.08l0,0,.19.19h.05a.05.05,0,0,0,0,0v0a5.07,5.07,0,0,0,.84.26,1,1,0,0,0-.45.37l0,0a1.35,1.35,0,0,1-.66-.56l-.14-.18s0,0,0,0,0,0,0,0a1.35,1.35,0,0,0,.07,1.09l-.53.07h-.13A1.36,1.36,0,0,0,245.5,325.41Zm2.45-1.74.13.05a.59.59,0,0,0,.25,0l.16,0a1.08,1.08,0,0,0,.4,0l.2-.05a2.26,2.26,0,0,1,.57-.06,2.29,2.29,0,0,0-.11.62,2,2,0,0,1-.42-.07,1.29,1.29,0,0,0-.39,0h0a6.39,6.39,0,0,1-1.2-.35,1.09,1.09,0,0,1,.14-.48l.08.08a.34.34,0,0,0,.05.14C247.87,323.63,247.88,323.64,248,323.67Zm-.08-.37a.27.27,0,0,1,.16-.17h0a1.07,1.07,0,0,0,.53-.7.85.85,0,0,0-.24-.64.94.94,0,0,1,.65.32,1.08,1.08,0,0,1,.14.86.79.79,0,0,1-.42.6h0a.58.58,0,0,1-.55.06l-.14-.06a.15.15,0,0,1-.1-.08A.24.24,0,0,1,247.87,323.3Zm1.35.23a.91.91,0,0,0,.24-.49.75.75,0,0,1,.1.44Zm.71-.28a1.49,1.49,0,0,0,.46.76,1,1,0,0,0-.49.16l-.05,0a.53.53,0,0,1-.21.11A2.19,2.19,0,0,1,249.93,323.25Zm-2.5.7a2,2,0,0,1-.5-.94.51.51,0,0,0,.5,0,1.56,1.56,0,0,0,.17.25A1.13,1.13,0,0,0,247.43,324Zm-.37-.33-.06,0v-.05s0,0,0,0A.54.54,0,0,0,247.06,323.62Zm.76,1.14a.74.74,0,0,1-.32.21l-.3,0a1.11,1.11,0,0,1-.12-.95.44.44,0,0,0,.08.11A1.39,1.39,0,0,0,247.82,324.76Zm8.61-3.75a.11.11,0,0,0,0,.1.1.1,0,0,0,.08.07,1.58,1.58,0,0,0,.7,0A1.61,1.61,0,0,1,256,322a.1.1,0,0,0-.09.12.11.11,0,0,0,.11.09,4.49,4.49,0,0,0,1.49-.35,1.81,1.81,0,0,1-.81.91.1.1,0,0,0,0,0,7.53,7.53,0,0,1-1.64,0,7.71,7.71,0,0,0,1-1.37,0,0,0,0,0,0-.05s0,0-.05,0a1.5,1.5,0,0,1-.51.08l.07,0a3.6,3.6,0,0,0,1.5-1.65A1.79,1.79,0,0,1,256.43,321Zm-.81-1.76a1.3,1.3,0,0,1-.63.59l-.18,0-.15,0a3.63,3.63,0,0,0,.7-.8,0,0,0,0,0,0,0s0,0,0,0-.25,0-.52,0a3.06,3.06,0,0,0,.95-.79A1.69,1.69,0,0,1,255.62,319.25Zm-8.33,1.82.4,0,.24,0a.61.61,0,0,0,.43-.15.47.47,0,0,0,.17-.35.5.5,0,0,0-.13-.41.72.72,0,0,0-.33-.15,1.53,1.53,0,0,1,1.12.13.68.68,0,0,1,.21.11c.23.14.36.16.63-.19a1,1,0,0,1,1.1-.26l-.07.1a.09.09,0,0,0,0,.14.1.1,0,0,0,.14,0,1.69,1.69,0,0,1,1.25-.71h0a1.12,1.12,0,0,1,.56.17h0a1.27,1.27,0,0,1,.26.22.1.1,0,0,0,.14,0,.11.11,0,0,0,0-.15,1,1,0,0,0-.26-.23,1.57,1.57,0,0,1,1.12-1,1.34,1.34,0,0,0,1-.67l.23-.3a3.93,3.93,0,0,1,.17.6,2.81,2.81,0,0,1-1,.86.74.74,0,0,0-.13.08.05.05,0,0,0,0,.05.05.05,0,0,0,.05,0,5.55,5.55,0,0,1,.63,0,4.67,4.67,0,0,1-.78.84c-.58.14-.87.44-.92,1.28a.11.11,0,0,0,.1.11.1.1,0,0,0,.11-.1c.05-.91.39-1.05,1.09-1.16l.17,0h0l.57-.08a2,2,0,0,0,1.38-1.15,5.17,5.17,0,0,1,0,.65,3.51,3.51,0,0,1-1.55,1.82l-.22.13a.08.08,0,0,0,0,0,.05.05,0,0,0,.05,0,2.29,2.29,0,0,0,.6-.05,10,10,0,0,1-1,1.31s0,0,0,.05a0,0,0,0,0,0,0,5.45,5.45,0,0,0,1,.07c.35,0,.64,0,.77,0s.07.06.11,0a4.61,4.61,0,0,0,.74-.26,1.59,1.59,0,0,1-1.13,1.1.1.1,0,0,0,0,.2,3.22,3.22,0,0,0,1-.16,2.9,2.9,0,0,1-.54.8,5.1,5.1,0,0,1-2.33-.9.06.06,0,0,0-.07,0,0,0,0,0,0,0,.07,5.28,5.28,0,0,0,2.3.9,1.37,1.37,0,0,1-.26.18l-.09.06a1.29,1.29,0,0,1-1-.13.1.1,0,0,0-.11.17c.34.24.56.41.74.55l.22.17a1.86,1.86,0,0,1-.38.06,5.94,5.94,0,0,1-1.43-1.16,0,0,0,0,0-.07,0s0,.05,0,.07a6.47,6.47,0,0,0,1.31,1.08,1.62,1.62,0,0,1-.85-.3.12.12,0,0,0-.1,0,.15.15,0,0,0-.06.09,2.66,2.66,0,0,0,0,.63.82.82,0,0,1-.35-.26l0,0-.05-.05h0a2.3,2.3,0,0,1-.35-.89.07.07,0,0,0-.06,0,.05.05,0,0,0,0,.06,3,3,0,0,0,.31.85,5.71,5.71,0,0,1-2.73-.08,1.34,1.34,0,0,0-1.15.05,2,2,0,0,1-1,.08.85.85,0,0,0-.83.17l-.08.06c-.25.21-.63.52-1.25-.12a.54.54,0,0,0-.46-.25h-.09c-.07,0-.13-.25-.13-.38h.23a6.48,6.48,0,0,0,1-.15.85.85,0,0,0,.55-.4,1.34,1.34,0,0,1,.63-.4h0a.84.84,0,0,1,.35,0,2.08,2.08,0,0,0,.47.08.58.58,0,0,0,.38-.13l.08-.06c.09-.08.14-.11.52-.13a.09.09,0,0,0,.09-.06.11.11,0,0,0,0-.11,2.24,2.24,0,0,0-.39-.34,1.58,1.58,0,0,1-.23-.52,0,0,0,0,0,0,0,.06.06,0,0,0-.05,0,1.55,1.55,0,0,0-.18.34h-.07a1,1,0,0,0-.19-.58s0,0-.05,0a0,0,0,0,0,0,0v0a1,1,0,0,1-.26.57H249l-.14,0a.82.82,0,0,0,.3-.55,1.15,1.15,0,0,0-.15-.94,1.18,1.18,0,0,0-.86-.38.05.05,0,0,0-.05,0,.07.07,0,0,0,0,.06.82.82,0,0,1,.31.66,1,1,0,0,1-.47.63.31.31,0,0,0-.17.15,1.31,1.31,0,0,1-.19-.27.64.64,0,0,0,.32-.56.83.83,0,0,0-.37-.7.73.73,0,0,1-.39-.45s0-.11-.07-.17l-.05-.05A.63.63,0,0,0,247.29,321.07Zm-1.33,0a.56.56,0,0,1,.46-.23h0a.56.56,0,0,1,.49.32,1,1,0,0,1,.07.15.91.91,0,0,0,.47.55.62.62,0,0,1,.27.52.42.42,0,0,1-.21.38c-.34.18-.4.14-.53.08l0,0a1,1,0,0,0-1,.05.7.7,0,0,1-.76-.15,1.13,1.13,0,0,1-.05-.67.34.34,0,0,1,.16-.23A1.15,1.15,0,0,0,246,321.05Z" transform="translate(-226.93 -235.01)"/><path class="cls-1" d="M250.61,322.2a.05.05,0,0,0,0,0h0a0,0,0,0,0,0-.06.49.49,0,0,0-.37-.26.6.6,0,0,0,0-.48.85.85,0,0,0,.23-.12,1.68,1.68,0,0,0,.74,0,.5.5,0,0,0-.22.41.52.52,0,0,0,.52.53l.1,0a1.17,1.17,0,0,0,.13.29h0s0,0,0-.07l.08-.13.1-.06.07,0a1,1,0,0,1,.26,0h.07a3.17,3.17,0,0,1-.36-.23s0-.06,0-.09a.51.51,0,0,0,0-.13.35.35,0,0,0,0-.14v-.08l0,0a.52.52,0,0,0-.19-.2l-.14-.15a0,0,0,0,0-.05,0,2.28,2.28,0,0,1-1.09.1h-.06a1.29,1.29,0,0,1-.29.16l0,0a.07.07,0,0,0,0,.05c.15.15,0,.47,0,.47a0,0,0,0,0,0,0l0,0C250.53,322,250.61,322.19,250.61,322.2Zm1.2-.87.19.2,0,0a2.24,2.24,0,0,1,0,.26v0a2.41,2.41,0,0,1-.41-.37v0a1.83,1.83,0,0,0,.1.64l-.08,0a.43.43,0,0,1,0-.85A.41.41,0,0,1,251.81,321.33Z" transform="translate(-226.93 -235.01)"/><path class="cls-1" d="M247.12,322.58a.45.45,0,0,0,.2,0,.39.39,0,0,0,.14-.36v0a.28.28,0,0,0-.22-.2.2.2,0,0,0-.17,0,.32.32,0,0,0-.12.22s0,.1.14.14a.33.33,0,0,1-.16.07s-.06,0-.07,0a.07.07,0,0,0,0,.06A.49.49,0,0,0,247.12,322.58Zm.12-.23a0,0,0,0,0,0-.05s0,0,0,0-.15,0-.15,0a.19.19,0,0,1,.07-.14.12.12,0,0,1,.1,0,.15.15,0,0,1,.14.13s0,0,0,0,0,.21-.09.23a.63.63,0,0,1-.19,0A.45.45,0,0,0,247.24,322.35Z" transform="translate(-226.93 -235.01)"/><path class="cls-1" d="M245.48,322.48h0s0-.05,0-.07a.34.34,0,0,1,.06-.17.17.17,0,0,0,.15.14.33.33,0,0,0,.21-.13.25.25,0,0,0,0-.17c0-.17-.15-.2-.21-.21h0a.39.39,0,0,0-.35.15.55.55,0,0,0,0,.45Zm0-.43c0-.05.2-.1.23-.1h0c.05,0,.1,0,.13.13a.11.11,0,0,1,0,.1.23.23,0,0,1-.14.08s0,0-.06-.14a.05.05,0,0,0,0-.05h0a.42.42,0,0,0-.12.15A.41.41,0,0,1,245.49,322.05Z" transform="translate(-226.93 -235.01)"/><path class="cls-1" d="M242.32,285.59a.07.07,0,0,0,.14,0,.07.07,0,0,0-.07-.06S242.32,285.56,242.32,285.59Z" transform="translate(-226.93 -235.01)"/><path class="cls-1" d="M246.52,285.42a.5.5,0,0,0-.11.42,0,0,0,0,0,0,0h0s0,0,0-.06a.44.44,0,0,1,.1-.34.61.61,0,0,1,.47-.21.06.06,0,0,0,.05,0,.05.05,0,0,0-.05-.05A.7.7,0,0,0,246.52,285.42Z" transform="translate(-226.93 -235.01)"/><path class="cls-1" d="M248.09,286.93a1.14,1.14,0,0,0,0-1.23c0-.05-.06-.1-.09-.16a1.36,1.36,0,0,1,.84-.07.1.1,0,0,0,.1,0,.09.09,0,0,0,0-.1,1.15,1.15,0,0,0-1-.63,1.26,1.26,0,0,0-.5-1,.11.11,0,0,0-.12,0,.1.1,0,0,0-.05.1,1.26,1.26,0,0,1-.16,1,7.13,7.13,0,0,0-.73-.46,5.33,5.33,0,0,0,.41-.39c.28-.3.38-.57.3-.78s-.32-.32-.73-.34a2.5,2.5,0,0,0-1.92.65c-.63-.22-.77-.59-.9-1.67a.08.08,0,0,0-.07-.08.08.08,0,0,0-.1,0,1.37,1.37,0,0,0-.53,1.4,1.28,1.28,0,0,0-.79,1,.12.12,0,0,0,0,.11.11.11,0,0,0,.11,0,2,2,0,0,1,1.35-.1,1.28,1.28,0,0,1,.22.12,3.45,3.45,0,0,0-.23.43c-.11.26-.21.49-.3.72a2.23,2.23,0,0,0-1.1-.24.74.74,0,0,0-.62.25.68.68,0,0,0,0,.6,2.55,2.55,0,0,0,1.17,1.1l0,.05a2.53,2.53,0,0,1-.88.73.11.11,0,0,0-.08.09.12.12,0,0,0,.07.1,2.69,2.69,0,0,0,1.21.05,1.36,1.36,0,0,0,.87.67h0a.09.09,0,0,0,.08,0,.1.1,0,0,0,0-.1,1.85,1.85,0,0,1-.19-1.2,2.87,2.87,0,0,0,.62.07,2.49,2.49,0,0,0,1.22-.31l.13-.06a4.78,4.78,0,0,0,.83-.56,3.31,3.31,0,0,0,.72.39,1.13,1.13,0,0,0,.37.07A.6.6,0,0,0,248.09,286.93Zm-.56-2.88a1,1,0,0,1,.25.74.1.1,0,0,0,.1.1,1,1,0,0,1,.77.35,1.61,1.61,0,0,0-.77.13l-.09-.08-.16-.16-.06-.05-.25-.2A1.25,1.25,0,0,0,247.53,284.05Zm-3.86-.06a2.19,2.19,0,0,0-1.32,0c.15-.47.36-.63.57-.7h0a.92.92,0,0,0,.06.24.09.09,0,0,0,.12.07.1.1,0,0,0,.07-.12c0-.07,0-.14,0-.2v0s0-.07,0-.11a.07.07,0,0,0,0-.05,1.07,1.07,0,0,1,.32-1.11c.11.87.29,1.32.93,1.57a3.87,3.87,0,0,0-.42.54A1.53,1.53,0,0,0,243.67,284Zm.1.81a3.13,3.13,0,0,1,1.28-1.52.85.85,0,0,0,.44.7h0s0,0,0,0a0,0,0,0,0,0-.07.78.78,0,0,1-.4-.67,2.32,2.32,0,0,1,1.24-.24c.31,0,.51.1.55.22h0a1,1,0,0,0-.6.22,0,0,0,0,0,0,.07l0,0,0,0a.84.84,0,0,1,.52-.19.81.81,0,0,1-.25.46,15.41,15.41,0,0,1-1.92,1.57,2.48,2.48,0,0,0-.54.57l-.11-.05,0,0-.32-.17-.3-.15C243.55,285.29,243.65,285.06,243.77,284.8Zm1.39.49c.08.09.17.17.23.25l.32.35c-.69.3-.87.32-1.31.11a2.28,2.28,0,0,1,.47-.5Zm-2,2.68a2.64,2.64,0,0,0-.11-.26.09.09,0,0,0-.12,0,.09.09,0,0,0-.06.12,1.18,1.18,0,0,0,.07.2,2.94,2.94,0,0,1-.8,0,2.8,2.8,0,0,0,.74-.68s0-.05,0-.08a3.53,3.53,0,0,0,.65.23h0a2,2,0,0,0,.12,1.11A1.33,1.33,0,0,1,243.11,288Zm2.55-1-.14.07a2.5,2.5,0,0,1-2,.18,2.64,2.64,0,0,1-1.84-1.28.68.68,0,0,1,0-.29c.27,0,.41.1.49.28,0,0,0,0,0,0h0a0,0,0,0,0,0-.06.6.6,0,0,0-.55-.34s0,0,0,0,.22-.16.45-.17h.07a2.17,2.17,0,0,1,1,.25c0,.33,0,.54-.3.62a.06.06,0,0,0,0,.07.05.05,0,0,0,.05,0h0a.57.57,0,0,0,.37-.67l.3.15.32.17,0,0,.17.08h0c.61.3.8.31,1.67-.07l.25.24.11.09.16.15A4.1,4.1,0,0,1,245.66,287Zm1.7-.17a3.4,3.4,0,0,1-1-.61l-.17-.15-.09-.09a1.3,1.3,0,0,1-.13-.13h0c-.14-.15-.28-.3-.4-.45a2.55,2.55,0,0,0-.23-.24c.32-.23.64-.48.93-.73a7.88,7.88,0,0,1,1,.67l.06.05a2,2,0,0,1,.56.63c.19.42.21.81,0,1l-.09-.09a1.76,1.76,0,0,0-.65-.48.06.06,0,0,0-.06,0s0,.05,0,.06a1.6,1.6,0,0,1,.61.45l.07.06A.55.55,0,0,1,247.36,286.84Z" transform="translate(-226.93 -235.01)"/><path class="cls-1" d="M246.2,283.19a.07.07,0,0,0-.07-.06.06.06,0,0,0-.06.06s0,.07.06.07A.07.07,0,0,0,246.2,283.19Z" transform="translate(-226.93 -235.01)"/><path class="cls-1" d="M247.61,286a.07.07,0,0,0-.07-.07.07.07,0,1,0,0,.14A.07.07,0,0,0,247.61,286Z" transform="translate(-226.93 -235.01)"/><path class="cls-1" d="M234.16,249V236.86l-2.36.24.36-1.63,4-.37V249Z" transform="translate(-226.93 -235.01)"/><path class="cls-1" d="M254,245.34V249h-2v-3.68h-5.49l-.34-1.55,6.47-8.5H254v8.46h1.61v1.59Zm-2-6.63c-.39.63-.82,1.19-1.23,1.73l-2.54,3.31h3.79v-3.34c0-.53,0-1.07,0-1.67Z" transform="translate(-226.93 -235.01)"/><path class="cls-1" d="M268.21,249.45l-1.93-.9a11.17,11.17,0,0,0,5.65-5.51,3,3,0,0,1-2.17.88,4.29,4.29,0,0,1-4.41-4.43,4.39,4.39,0,0,1,4.56-4.48,4.59,4.59,0,0,1,4.67,5C274.58,243.64,271.89,247.56,268.21,249.45Zm1.66-12.67a2.73,2.73,0,1,0,2.69,3.5c0-.21,0-.43,0-.66A2.84,2.84,0,0,0,269.87,236.78Z" transform="translate(-226.93 -235.01)"/><path class="cls-1" d="M287.87,249.26a6,6,0,0,1-2.6-.54l-.22-1.94a5.15,5.15,0,0,0,2.71.76,2.78,2.78,0,1,0,.07-5.56,6.54,6.54,0,0,0-2.37.37l.22-7.06h6l-.37,1.68h-3.76l-.09,3.34a3.53,3.53,0,0,1,.56-.05,4.43,4.43,0,0,1,4.67,4.56C292.69,247.19,291,249.26,287.87,249.26Z" transform="translate(-226.93 -235.01)"/></svg>