<svg id="Layer_1" data-name="Layer 1" xmlns="http://www.w3.org/2000/svg" viewBox="0 0 379.87 52.98"><defs><style>.cls-1{fill:#fff;}.cls-2{fill:#e41b13;}.cls-3{fill:#f9b122;}.cls-4{fill:#243588;}.cls-5{fill:#95c11f;}.cls-6{fill:#fbd9cd;}.cls-7{fill:#1d1d1b;}</style></defs><title>UoA_Landscape_Logo_CMYK_REVERSE</title><path class="cls-1" d="M287.46,300.52a6.77,6.77,0,0,1-5.34,2.23,6.69,6.69,0,0,1-4.93-1.9c-1.45-1.58-1.39-3.41-1.39-5.37V288.2c0-1.23.19-3.21-1.2-3.73v-.08h5.18v.08c-1.37.52-1.2,2.5-1.2,3.73v7.28c0,3.62,1.52,5.31,4.33,5.31a4.79,4.79,0,0,0,4-1.91,3.57,3.57,0,0,0,.57-2.48v-8.2c0-1.23.16-3.21-1.2-3.73v-.08h5.18l0,.08c-1.39.52-1.23,2.5-1.23,3.76V298.5c0,1.23-.16,3.22,1.23,3.74v.08h-4Z" transform="translate(-231.01 -261.82)"/><path class="cls-1" d="M297.6,298.77c0,1.53,0,2.62,1.41,3.47v.08h-4.82v-.08c1.44-.85,1.44-1.94,1.44-3.47V287.9c0-1.52,0-2.61-1.41-3.43v-.08h4v0a1.52,1.52,0,0,0,.4.68l.39.55,10,12.59V287.9c0-1.52,0-2.61-1.42-3.43v-.08h4.8v.08c-1.42.82-1.42,1.91-1.42,3.43v15.29a7.51,7.51,0,0,1-4-3.11l-9.34-11.85Z" transform="translate(-231.01 -261.82)"/><path class="cls-1" d="M316.27,288.23c0-1.26.19-3.24-1.2-3.76v-.08h5.18v.08c-1.37.52-1.2,2.53-1.2,3.76V298.5c0,1.23-.17,3.22,1.2,3.74v.08h-5.18v-.08c1.36-.49,1.2-2.51,1.2-3.74Z" transform="translate(-231.01 -261.82)"/><path class="cls-1" d="M335.13,289.32c.74-1.94,1.66-4.17,0-4.85v-.08h4.06L332,303.14c-1.91-1.26-2.53-1.48-3.33-3.63l-4.11-11.15c-.52-1.39-.93-3-2.13-3.89v-.08h4l0,.32a11,11,0,0,0,.73,2.54l4.33,11.85Z" transform="translate(-231.01 -261.82)"/><path class="cls-1" d="M345.59,300l3.47.33a6.82,6.82,0,0,0,5-1.61h.08L353,302.32H341.59v-.08c1.39-.49,1.22-2.51,1.22-3.74V288.23c0-1.26.17-3.24-1.22-3.76v-.08h8.72a2.78,2.78,0,0,0,1.28-.14h.08v3.19h-.08a3.83,3.83,0,0,0-3.22-1.09,15.77,15.77,0,0,0-2.78.19v5.07h3.25a2.71,2.71,0,0,0,1.2-.17h.08v2.89H350c-.44-.79-1.58-.76-2.43-.76h-2Z" transform="translate(-231.01 -261.82)"/><path class="cls-1" d="M362.54,284.39c3.65,0,5.64,1.9,5.64,4.38s-2.09,4.28-4.33,4.8l3.93,4.93a19,19,0,0,0,4.41,3.82h-2.51a3.6,3.6,0,0,1-3.16-1.36l-3.32-4.12L360.69,293c2.18-.33,4.71-1.34,4.71-3.9a3.12,3.12,0,0,0-3.51-3,12.78,12.78,0,0,0-1.85.21V298.5c0,1.26-.17,3.25,1.22,3.74v.08h-5.2v-.08c1.39-.49,1.2-2.51,1.2-3.74V288.23c0-1.26.19-3.24-1.2-3.76v-.08Z" transform="translate(-231.01 -261.82)"/><path class="cls-1" d="M384.09,287.63a6.2,6.2,0,0,0-4.28-1.72c-1.55,0-3.51.6-3.51,2.48,0,3.74,9.37,3.68,9.37,8.72,0,2.92-3.05,5.64-7.3,5.64a14.13,14.13,0,0,1-4.88-.81l-.79-3.41a9.43,9.43,0,0,0,6,2.26c1.55,0,3.89-.92,3.89-2.83,0-4.25-9.37-3.49-9.37-9.27,0-3.43,3.51-4.74,6.84-4.74a13.68,13.68,0,0,1,4.06.6Z" transform="translate(-231.01 -261.82)"/><path class="cls-1" d="M389.18,288.23c0-1.26.2-3.24-1.19-3.76v-.08h5.17v.08c-1.36.52-1.2,2.53-1.2,3.76V298.5c0,1.23-.16,3.22,1.2,3.74v.08H388v-.08c1.36-.49,1.19-2.51,1.19-3.74Z" transform="translate(-231.01 -261.82)"/><path class="cls-1" d="M403.35,298.77c0,1.56,0,2.62,1.42,3.47v.08h-5.39v-.08c1.36-.52,1.19-2.51,1.19-3.74V286.35h-2.39a4.75,4.75,0,0,0-3.25,1.09h-.08l1-3.24h.08a4.94,4.94,0,0,0,1,.19h10.85a3.08,3.08,0,0,0,1.25-.19h.08l-.87,3.24h-.08c-.35-1-1.44-1.09-2.34-1.09h-2.46Z" transform="translate(-231.01 -261.82)"/><path class="cls-1" d="M420.39,298.77c0,1.64,0,2.46,1.38,3.47v.08h-5.31v-.08c1.34-.68,1.15-2.46,1.15-3.74v-4l-4.53-7.28a6.48,6.48,0,0,0-2.59-2.8H413a2.35,2.35,0,0,1,2,.76l4.36,7.11,3.38-5.07c.46-.68,1.09-2-.44-2.72v-.08h4.77l-6.7,10.08Z" transform="translate(-231.01 -261.82)"/><path class="cls-1" d="M455.47,293.16a9.72,9.72,0,0,1-10,9.59c-5.4,0-9.95-3.87-9.95-9.45a9.7,9.7,0,0,1,10.22-9.38A9.42,9.42,0,0,1,455.47,293.16Zm-17.12-.11c0,3.82,2.7,7.74,7,7.74s6.79-3,6.79-7.08-2.53-7.82-6.84-7.82S438.35,288.94,438.35,293.05Z" transform="translate(-231.01 -261.82)"/><path class="cls-1" d="M461.76,298.5c0,1.23-.22,3.22,1.14,3.74v.08h-5.15v-.08c1.39-.49,1.23-2.51,1.23-3.74V288.23c0-1.26.16-3.24-1.23-3.76v-.08h8.73a2.8,2.8,0,0,0,1.28-.14h.08v3.16h-.08a3.92,3.92,0,0,0-3.22-1.06,15.7,15.7,0,0,0-2.78.19v5.07H465a2.6,2.6,0,0,0,1.17-.17h.08v2.89h-.08c-.43-.81-1.58-.76-2.42-.76h-2Z" transform="translate(-231.01 -261.82)"/><path class="cls-1" d="M482,295.59l-1.42,3.84c-.57,1.53-.76,2.32.54,2.81v.08h-5v-.08c1.58-.79,2-2.32,2.64-3.87L483.31,287c.39-1,.9-2.12-.4-2.53v-.08h4.3l5.67,14c.63,1.55,1.12,3.08,2.67,3.87v.08H490v-.08c1.34-.6,1.12-.9.39-2.81l-1.48-3.84Zm3.4-8.89-2.69,6.87h5.36Z" transform="translate(-231.01 -261.82)"/><path class="cls-1" d="M498.63,288.2c0-1.23.19-3.21-1.2-3.73v-.08h6.46c3.6,0,5.69,1.52,5.69,3.95,0,1.82-1.17,2.86-2.72,3.54,2.45.52,4.44,2.15,4.44,4.82a5.47,5.47,0,0,1-3.27,4.77c-1.91.93-4.06.85-6.1.85h-4.5v-.08c1.36-.52,1.2-2.51,1.2-3.77Zm3.68,3.41c1.77,0,4.3-.6,4.3-2.84a2.86,2.86,0,0,0-3.38-2.69l-1.82.19v5.34Zm1.47,8.75c2.23.21,4.5-.82,4.5-3.41s-2.57-3.79-5-3.65l-1.91.11v6.73Z" transform="translate(-231.01 -261.82)"/><path class="cls-1" d="M517.43,300l3.46.33a6.8,6.8,0,0,0,5-1.61H526l-1.23,3.57H513.42v-.08c1.39-.49,1.23-2.51,1.23-3.74V288.23c0-1.26.16-3.24-1.23-3.76v-.08h8.72a2.78,2.78,0,0,0,1.28-.14h.08v3.19h-.08a3.81,3.81,0,0,0-3.21-1.09,15.64,15.64,0,0,0-2.78.19v5.07h3.24a2.69,2.69,0,0,0,1.2-.17H522v2.89h-.08c-.44-.79-1.58-.76-2.43-.76h-2Z" transform="translate(-231.01 -261.82)"/><path class="cls-1" d="M534.13,284.39c3.65,0,5.64,1.9,5.64,4.38s-2.1,4.28-4.34,4.8l3.93,4.93a19,19,0,0,0,4.41,3.82h-2.5A3.61,3.61,0,0,1,538.1,301l-3.32-4.12L532.27,293c2.18-.33,4.72-1.34,4.72-3.9a3.12,3.12,0,0,0-3.52-3,12.94,12.94,0,0,0-1.85.21V298.5c0,1.26-.17,3.25,1.22,3.74v.08h-5.2v-.08c1.39-.49,1.2-2.51,1.2-3.74V288.23c0-1.26.19-3.24-1.2-3.76v-.08Z" transform="translate(-231.01 -261.82)"/><path class="cls-1" d="M546.2,288.12c0-1.25.19-3.24-1.2-3.65v-.08h6.68c6.21,0,10.08,3.38,10.08,8.8s-4.11,9.13-10.22,9.13H545v-.08c1.36-.93,1.2-2.24,1.2-3.85ZM549,300.17a10.1,10.1,0,0,0,2,.19c4.06,0,7.68-2.13,7.68-6.84s-2.67-7.17-7.22-7.17a10.8,10.8,0,0,0-2.45.3Z" transform="translate(-231.01 -261.82)"/><path class="cls-1" d="M567.94,300l3.46.33a6.8,6.8,0,0,0,5-1.61h.08l-1.22,3.57H563.93v-.08c1.39-.49,1.23-2.51,1.23-3.74V288.23c0-1.26.16-3.24-1.23-3.76v-.08h8.72a2.83,2.83,0,0,0,1.29-.14H574v3.19h-.08a3.84,3.84,0,0,0-3.22-1.09,15.7,15.7,0,0,0-2.78.19v5.07h3.24a2.67,2.67,0,0,0,1.2-.17h.08v2.89h-.08c-.43-.79-1.58-.76-2.42-.76h-2Z" transform="translate(-231.01 -261.82)"/><path class="cls-1" d="M582.6,300l3.46.33a6.8,6.8,0,0,0,5-1.61h.09L590,302.32H578.59v-.08c1.39-.49,1.23-2.51,1.23-3.74V288.23c0-1.26.16-3.24-1.23-3.76v-.08h8.72a2.83,2.83,0,0,0,1.29-.14h.08v3.19h-.08a3.84,3.84,0,0,0-3.22-1.09,15.7,15.7,0,0,0-2.78.19v5.07h3.24a2.67,2.67,0,0,0,1.2-.17h.08v2.89H587c-.43-.79-1.58-.76-2.42-.76h-2Z" transform="translate(-231.01 -261.82)"/><path class="cls-1" d="M596.14,298.77c0,1.53,0,2.62,1.42,3.47v.08h-4.83v-.08c1.45-.85,1.45-1.94,1.45-3.47V287.9c0-1.52,0-2.61-1.42-3.43v-.08h4v0a1.63,1.63,0,0,0,.41.68l.38.55,10,12.59V287.9c0-1.52,0-2.61-1.41-3.43v-.08h4.79v.08c-1.42.82-1.42,1.91-1.42,3.43v15.29a7.49,7.49,0,0,1-4-3.11l-9.35-11.85Z" transform="translate(-231.01 -261.82)"/><path class="cls-1" d="M266.81,272.23V272H231v.2s0,18.41,0,21.45c0,6.94,6.13,14.29,17.26,20.71l.64.41.67-.4c11.12-6.4,17.25-13.76,17.25-20.72C266.83,290.64,266.81,272.23,266.81,272.23Z" transform="translate(-231.01 -261.82)"/><path class="cls-2" d="M248.92,314.58c0-.19,0-12.74,0-24.6,0,0,17.72,0,17.72,0,0,1.37,0,3.11,0,3.77,0,11.74-17.61,20.53-17.7,20.83" transform="translate(-231.01 -261.82)"/><rect class="cls-3" x="23.77" y="10.55" width="2.9" height="6.83"/><rect class="cls-2" x="26.67" y="10.55" width="2.89" height="6.83"/><rect class="cls-3" x="29.56" y="10.55" width="2.97" height="6.83"/><rect class="cls-2" x="32.53" y="10.55" width="2.98" height="6.83"/><rect class="cls-2" x="20.9" y="10.55" width="2.87" height="6.83"/><rect class="cls-3" x="17.99" y="10.55" width="2.91" height="6.81"/><rect class="cls-4" x="0.21" y="10.41" width="17.7" height="17.75"/><line class="cls-1" x1="23.26" y1="42.59" x2="24.2" y2="42.59"/><line class="cls-1" x1="24.2" y1="42.59" x2="25.28" y2="42.59"/><polyline class="cls-1" points="21.87 30.25 21.87 29.75 22.12 29.75 22.12 30.03 22.37 30.03 22.37 29.74 22.63 29.74 22.63 30.03 22.88 30.03 22.88 29.75 23.1 29.75 23.1 30.25 21.87 30.25"/><polyline class="cls-1" points="23.69 30.24 23.69 29.73 23.94 29.73 23.94 30.02 24.19 30.02 24.19 29.73 24.45 29.73 24.45 30.02 24.7 30.02 24.7 29.73 24.92 29.73 24.92 30.24 23.69 30.24"/><polyline class="cls-1" points="25.46 30.22 25.46 29.72 25.71 29.72 25.71 30 25.96 30 25.96 29.71 26.22 29.71 26.22 30 26.47 30 26.47 29.72 26.69 29.72 26.69 30.22 25.46 30.22"/><polyline class="cls-1" points="22.17 33.64 21.43 38.52 27.17 38.52 26.42 33.64 22.17 33.64"/><polyline class="cls-1" points="21.37 32.98 21.37 31.61 27.24 31.61 27.23 32.97 26.42 33.64 22.17 33.64 21.37 32.98"/><polyline class="cls-1" points="20.37 39.52 20.37 42.62 28.18 42.62 28.18 39.55 27.14 38.52 21.41 38.52 20.37 39.52"/><line class="cls-1" x1="23.72" y1="36.78" x2="21.69" y2="36.78"/><polyline class="cls-1" points="21.87 31.54 22.02 30.67 21.87 30.25 23.1 30.25 22.96 30.67 23.1 31.54 21.87 31.54"/><polyline class="cls-1" points="23.68 31.54 23.82 30.67 23.69 30.24 24.92 30.24 24.76 30.67 24.91 31.54 23.68 31.54"/><polyline class="cls-1" points="25.46 31.53 25.6 30.66 25.46 30.22 26.69 30.22 26.54 30.66 26.69 31.53 25.46 31.53"/><path class="cls-1" d="M252.88,293.36h.44v-.42c0-.29.33-.29.36,0v.42h.43l-.15-.87H253Z" transform="translate(-231.01 -261.82)"/><path class="cls-1" d="M254.69,293.36h.44v-.42c0-.29.33-.29.36,0v.42h.43l-.15-.87h-.94Z" transform="translate(-231.01 -261.82)"/><path class="cls-1" d="M256.46,293.35h.45v-.42c0-.28.33-.29.36,0v.42h.43l-.15-.87h-.94Z" transform="translate(-231.01 -261.82)"/><path class="cls-3" d="M240,283.3h1.16a1.28,1.28,0,0,0,0,1.64c.5.68,2.12,2.5,0,4.29H240" transform="translate(-231.01 -261.82)"/><path class="cls-3" d="M240,283.3h-1.16a1.28,1.28,0,0,1,0,1.63c-.51.68-2.13,2.5-.05,4.3H240" transform="translate(-231.01 -261.82)"/><path class="cls-3" d="M242.77,286.6a1,1,0,0,1-.06-1.2c.23-.5,1.28-1.65.83-2.54a1.22,1.22,0,0,0-2.09-.24,1,1,0,0,0,0,.92.54.54,0,0,0,.55.22.36.36,0,0,0,.28-.42c0-.12-.2-.28-.29-.28a.58.58,0,0,0-.25.07.44.44,0,0,1,.14-.44.69.69,0,0,1,.7-.15,1,1,0,0,1,.63,1c-.11.33-.16.69-1.16,1.11a.54.54,0,0,0,.5.16,1.71,1.71,0,0,0,0,2.32.47.47,0,0,0,.72-.61.42.42,0,0,0-.41-.09.51.51,0,0,0-.13.17" transform="translate(-231.01 -261.82)"/><path class="cls-3" d="M237.29,286.6a1,1,0,0,0,.06-1.2c-.22-.5-1.26-1.66-.81-2.56a1.24,1.24,0,0,1,2.11-.22,1,1,0,0,1,0,.92.54.54,0,0,1-.55.22.35.35,0,0,1-.27-.42.45.45,0,0,1,.29-.28.61.61,0,0,1,.25.08.46.46,0,0,0-.14-.45.69.69,0,0,0-.7-.15.94.94,0,0,0-.64,1c.1.32.15.68,1.15,1.11a.51.51,0,0,1-.51.15,1.72,1.72,0,0,1,0,2.33.47.47,0,0,1-.71-.62.37.37,0,0,1,.4-.08.5.5,0,0,1,.14.17" transform="translate(-231.01 -261.82)"/><path class="cls-1" d="M239.08,286.08c-.07-.34-.16-.51.2-.88.07.58.15.78.57.9a3.71,3.71,0,0,1,1.69,1.08c.19.41.05.74-.33.6a2.32,2.32,0,0,1-.93-.73,3.56,3.56,0,0,0-.92-.7,1.09,1.09,0,0,0-.72,0c.08-.33.22-.46.41-.5A.76.76,0,0,0,239.08,286.08Z" transform="translate(-231.01 -261.82)"/><path class="cls-1" d="M239,288.18a.69.69,0,0,0,.48.5,1,1,0,0,1-.07-.78A1.64,1.64,0,0,1,240,287a8.16,8.16,0,0,0,1-.79c.23-.25.22-.45-.18-.48a1.35,1.35,0,0,0-1.36.94c-.39.85-.25.92-.47,1.25a1.33,1.33,0,0,1-.46.38,1.38,1.38,0,0,0,.61,0Z" transform="translate(-231.01 -261.82)"/><path class="cls-1" d="M240.49,287.27c-.51.23-.55.2-.93,0a1.75,1.75,0,0,0-.93-.31c-.36,0-.31.25-.28.36a1.42,1.42,0,0,0,1,.67,1.33,1.33,0,0,0,1.08-.13,1.85,1.85,0,0,0,.42-.29,2.6,2.6,0,0,1-.32-.3" transform="translate(-231.01 -261.82)"/><path class="cls-1" d="M241.14,286.76a.7.7,0,0,0,.11-.57.62.62,0,0,1,.24.52.54.54,0,0,1,.48.28.83.83,0,0,0-.5.06A3,3,0,0,0,241.14,286.76Z" transform="translate(-231.01 -261.82)"/><path class="cls-1" d="M239.44,280a.23.23,0,0,0-.15.06.91.91,0,0,1,.15-1.15.83.83,0,0,1,.29,1.1c-.08,0-.09,0-.13,0h-.16" transform="translate(-231.01 -261.82)"/><path class="cls-5" d="M238.33,279.54a.68.68,0,0,1,.5.13c-.19-.53-.61-1.5-.62-1.6A4.35,4.35,0,0,0,238.33,279.54Z" transform="translate(-231.01 -261.82)"/><path class="cls-5" d="M240.87,280.71a5.08,5.08,0,0,1,1.58-1.52c-.22,1.25-.54,1.61-.8,1.84a2.52,2.52,0,0,0-.79,1.31h-.56a2.37,2.37,0,0,1,.25-1.14Z" transform="translate(-231.01 -261.82)"/><path class="cls-5" d="M240.91,278.22a10.48,10.48,0,0,1-.6,1.26l-.38,1.38-.18,1.1a2.08,2.08,0,0,1,0,.38h.36a2.84,2.84,0,0,1,.28-1.27A7,7,0,0,0,240.91,278.22Z" transform="translate(-231.01 -261.82)"/><polygon class="cls-1" points="10.26 10.62 10.76 10.85 10.26 10.94 10.53 11.22 10.08 11.16 10.37 11.58 9.92 11.38 10.05 11.81 9.67 11.51 9.7 11.92 9.39 11.73 9.25 12.25 9.08 11.88 8.93 12.15 8.8 11.84 8.42 12.19 8.44 11.74 8.11 11.91 8.07 11.51 7.77 11.73 7.77 11.45 7.45 11.64 7.54 11.28 7.08 11.38 7.38 10.98 6.94 10.95 7.49 10.63 5.59 10.66 6.05 11.13 5.37 11.37 5.9 11.6 5.06 11.85 5.73 12.09 4.99 12.46 5.59 12.58 4.72 13.26 5.71 13.16 4.91 13.95 5.65 13.82 4.99 14.73 5.91 14.38 5.45 15.33 6.3 14.79 6.29 15.51 6.76 15.14 6.74 15.72 7.2 15.34 7.3 15.78 7.73 15.5 7.84 16.09 8.31 15.62 8.6 16.15 8.93 15.64 9.37 16.1 9.57 15.58 9.99 16.03 10.14 15.37 10.6 15.97 10.68 15.21 11.36 15.84 11.11 14.79 11.85 15.39 11.5 14.28 12.16 14.72 11.84 14.07 12.49 14.4 11.86 13.4 12.66 13.79 12.29 13.12 13.21 13.25 11.96 12.56 12.87 12.57 11.96 12.06 12.72 12.02 11.79 11.61 12.7 11.5 11.6 11.11 12.32 10.66 10.26 10.62"/><path class="cls-1" d="M238.29,272.94" transform="translate(-231.01 -261.82)"/><path class="cls-1" d="M239.1,273.61" transform="translate(-231.01 -261.82)"/><path class="cls-1" d="M241.43,272.93" transform="translate(-231.01 -261.82)"/><path class="cls-1" d="M240.51,273.62" transform="translate(-231.01 -261.82)"/><path class="cls-1" d="M240.7,273.61" transform="translate(-231.01 -261.82)"/><path class="cls-1" d="M239.12,280.25" transform="translate(-231.01 -261.82)"/><path class="cls-1" d="M239.12,280.27a1.43,1.43,0,0,1,0,.21.54.54,0,0,0-.3,0,1.5,1.5,0,0,1-.62-.94,1.08,1.08,0,0,1,1.09.54l-.13.2" transform="translate(-231.01 -261.82)"/><path class="cls-1" d="M239.51,280.86a.44.44,0,1,0,0-.88.44.44,0,1,0,0,.88Z" transform="translate(-231.01 -261.82)"/><path class="cls-1" d="M239.51,280.42" transform="translate(-231.01 -261.82)"/><path class="cls-2" d="M239.51,280.61a.2.2,0,0,0,.19-.19.2.2,0,1,0-.19.19" transform="translate(-231.01 -261.82)"/><path class="cls-2" d="M239.51,280.42" transform="translate(-231.01 -261.82)"/><path class="cls-1" d="M240.1,280.38a1.29,1.29,0,0,0,.85-.9,1,1,0,0,0-1,.32,2.7,2.7,0,0,0-.18.23.36.36,0,0,1,.12.1l.07.15" transform="translate(-231.01 -261.82)"/><path class="cls-1" d="M240,280.49v-.13a1.1,1.1,0,0,1,1,.63,1.2,1.2,0,0,1-.67.09,1,1,0,0,1-.49-.35.22.22,0,0,0,.08-.09l0-.15" transform="translate(-231.01 -261.82)"/><path class="cls-5" d="M242,281.32a4.71,4.71,0,0,1,1-.41,6,6,0,0,1,2.5-.47,3.79,3.79,0,0,0,1,0,1.86,1.86,0,0,1-1.62.57,7.09,7.09,0,0,0-.94,0c-.37.05-.78.15-.72.12a1.8,1.8,0,0,1,.45,0,2.85,2.85,0,0,1,1,.18,2.64,2.64,0,0,1,.91.66,3.87,3.87,0,0,0,.38.43c.07.06.07.05.15.06a.36.36,0,0,1,.26.16c.06.1.17.05.29.07a1.1,1.1,0,0,1,.44.33.78.78,0,0,0,.53.23c-.34.32-.54.33-.54.33-.09-.37-.22-.65-.6-.73a1,1,0,0,1,.46.45,2.16,2.16,0,0,1,.07.39.59.59,0,0,0,.21.29c-.46-.09-.79-.2-.86-.54s-.19-.42-.19-.42a2.08,2.08,0,0,1,.14.55.57.57,0,0,0,.22.27,1.93,1.93,0,0,0,.55.2c-.61,0-1,0-1.06-.91a1,1,0,0,0,.06.65.77.77,0,0,0,.24.24,1.23,1.23,0,0,1-.67.3,1.06,1.06,0,0,0,.07-.84.47.47,0,0,1,0-.4c.05-.12,0-.18,0-.28a.83.83,0,0,0,0-.2c0-.05-.1-.11-.16-.2a5,5,0,0,0-.76-.71,2.63,2.63,0,0,0-1.23-.37,5.58,5.58,0,0,0-1.72.38s2.89-.88,3.55,1.47a2.68,2.68,0,0,1,0,.72s-.55-.39-.65-.5-1.44-2.31-3.45-1l-.4,0a1.83,1.83,0,0,1,.49-.9,6.78,6.78,0,0,1,.94-.85c.36-.26,1.48-1.18,1.67-1.38a4.27,4.27,0,0,1,.89-.65,2.82,2.82,0,0,1,1.23-.23,3.54,3.54,0,0,0-.88.7,6.73,6.73,0,0,1-.91.82,8.56,8.56,0,0,0-.68.52,3.83,3.83,0,0,1-.48.33c-.14,0-1.16.6-1.15.59" transform="translate(-231.01 -261.82)"/><path class="cls-5" d="M239.36,282.34h-.18a2.79,2.79,0,0,0-1.6-1.14c-.6-.23-.7-.25-1.26-.43a2.82,2.82,0,0,1-1.22-.56c-.13-.21-.36-.55-.36-.55a4.22,4.22,0,0,0,1.11.35,3.09,3.09,0,0,1,.68.16,8,8,0,0,1,1.87.9,2.17,2.17,0,0,1,.5.51l-.14-.3-.3-.33a5.1,5.1,0,0,0-1.25-1c-.94-.44-.93-.69-1.13-1.13a3.54,3.54,0,0,1,1.34.52l.36.23a5.41,5.41,0,0,1,.9.93" transform="translate(-231.01 -261.82)"/><path class="cls-5" d="M238.68,280.55a4.58,4.58,0,0,1,1,1.79h-.3" transform="translate(-231.01 -261.82)"/><path class="cls-5" d="M238,281.74a2.16,2.16,0,0,0-.91-.13,2.43,2.43,0,0,0-1,.37,1.61,1.61,0,0,0-.68,1.65,7.29,7.29,0,0,0,.65-.62,4.76,4.76,0,0,1,.57-.73,1.47,1.47,0,0,1,2,.09H239a2,2,0,0,0-1.24-.93,3,3,0,0,0-2,0,2.83,2.83,0,0,0-1.16.66c-.39.31-.55.66-.65.7a2.24,2.24,0,0,1-.26.11,1,1,0,0,0-.57.8c-.08.41-.11,1,.08.79a1.27,1.27,0,0,0,.34-.66c0-.21,0-.32.15-.43a.81.81,0,0,1,.22-.15c0,.15-.08.17-.13.24a.41.41,0,0,0-.06.24,2.07,2.07,0,0,1-.28.71c-.12.12-.13.43.16.2s.75-.49.72-1.11c0-.4-.08-.49.13-.85a3.25,3.25,0,0,1,1.83-1.1,2.47,2.47,0,0,1,1.67.17" transform="translate(-231.01 -261.82)"/><path class="cls-1" d="M239.13,280.66a.7.7,0,0,0,.15.13c-.19.34-.23.58-1,.64.14-.55.24-.83.43-.92a.48.48,0,0,1,.37,0v0l0,.13" transform="translate(-231.01 -261.82)"/><path class="cls-1" d="M239.6,280.83a.37.37,0,0,0,.17-.09,1,1,0,0,1-.14,1.24,1,1,0,0,1-.35-1.19.27.27,0,0,0,.14.06l.18,0" transform="translate(-231.01 -261.82)"/><rect class="cls-3" x="7.88" y="20.88" width="2.31" height="0.6"/><rect class="cls-3" x="7.81" y="27.4" width="2.39" height="0.34"/><polygon class="cls-3" points="7.48 10.63 10.25 10.62 10.75 10.85 10.25 10.94 10.53 11.22 10.07 11.17 10.37 11.58 9.92 11.38 10.04 11.81 9.66 11.53 9.7 11.93 9.38 11.73 9.24 12.24 9.08 11.88 8.92 12.15 8.8 11.85 8.41 12.18 8.43 11.75 8.1 11.91 8.06 11.52 7.77 11.72 7.77 11.45 7.45 11.63 7.55 11.27 7.08 11.38 7.38 10.97 6.95 10.95 7.48 10.63"/><path class="cls-3" d="M238.6,274.28l-.39.32v1.88a2.76,2.76,0,0,0,.62.32,1.93,1.93,0,0,0,.46.08,1,1,0,0,1,.57.16,1.49,1.49,0,0,1,.54-.16,2.31,2.31,0,0,0,.43,0,.91.91,0,0,0,.68-.29v-2.08l-.14.08v-.15l-.12.07v-.14l-.14.08v1.8a.81.81,0,0,1-.37.18.94.94,0,0,1-.32,0,1.69,1.69,0,0,0-.57.14,1.39,1.39,0,0,0-.6-.13,1,1,0,0,1-.65-.2v-1.94" transform="translate(-231.01 -261.82)"/><path class="cls-1" d="M239.21,274.45a3.1,3.1,0,0,1-.61-.2v2a.93.93,0,0,0,.6.2,1.31,1.31,0,0,1,.65.13,1.33,1.33,0,0,1,.75-.12,1,1,0,0,0,.51-.2v-1.86a1.13,1.13,0,0,1-.49.13,1.07,1.07,0,0,0-.75.06l-.35-.09Z" transform="translate(-231.01 -261.82)"/><path class="cls-6" d="M239.2,273.6a1.28,1.28,0,0,0,.26-.68v-.48h1a1.23,1.23,0,0,0-.09.55c.13,1,0,.95,0,.95-.17.4-.33.85-.33.85l.06.43c.06.18-.11.54-.26.55s-.15-.21-.15-.21,0,0-.07-.21a6.87,6.87,0,0,1-.15-.88,1.75,1.75,0,0,0-.25,0,1.23,1.23,0,0,1-.47-.12,6.77,6.77,0,0,1,.35-.66l0,0" transform="translate(-231.01 -261.82)"/><path class="cls-1" d="M234.48,282.67c-.21.37-.15.46-.13.86,0,.61-.42.87-.71,1.1s-.29-.07-.17-.19a1.87,1.87,0,0,0,.28-.72c0-.15,0-.17.07-.23a.49.49,0,0,0,.12-.24.64.64,0,0,0-.22.14c-.12.11-.12.22-.15.43a1.36,1.36,0,0,1-.33.67c-.2.2-.17-.39-.09-.8a.93.93,0,0,1,.57-.79l.26-.11.17-.18Z" transform="translate(-231.01 -261.82)"/><path class="cls-1" d="M245.75,282.93c-.05.07,0,0,0,.15a.47.47,0,0,0,0,.4,1,1,0,0,1-.07.83,1.19,1.19,0,0,0,.67-.29.77.77,0,0,1-.24-.24,1,1,0,0,1-.06-.65c0,.87.45.9,1.06.91a2.29,2.29,0,0,1-.55-.2.52.52,0,0,1-.22-.27,2.08,2.08,0,0,0-.14-.55s.12.08.19.42.39.45.86.54a.64.64,0,0,1-.21-.29,2.16,2.16,0,0,0-.07-.39.94.94,0,0,0-.47-.45c.39.08.52.36.61.73,0,0,.2,0,.54-.34a.74.74,0,0,1-.53-.22,1.1,1.1,0,0,0-.44-.33c-.12,0-.23,0-.29-.07A1.26,1.26,0,0,0,245.75,282.93Z" transform="translate(-231.01 -261.82)"/><path class="cls-2" d="M233.91,294.59a.65.65,0,0,0,.51-.27.48.48,0,0,1,.51-.16c.21,0,.29,0,.38,0s.08-.1.33-.11c-.33-.37-.55-.25-.83-.2a.62.62,0,0,1-.7-.38l-.22,0c-.14-.12-.42,0-.42,0s-.51.2-.55-.19.13-.42.13-.42.23-.22.23-.22c0-.25.24-.24.24-.24s.53.12.53.12,0,.06.28,0,.26-.22.26-.22c0-.3-.37-.21-.37-.21.23-.31,1,.06,1,.06a.76.76,0,0,1,.84-.24.8.8,0,0,1,.91-.18c0-.45.82-.66.82-.66s.38-.44.38-.44c.48,1.26-.37,1.35-.37,1.35l.38-.05a1,1,0,0,0,.72-.75c.1.8,0,1.07-.26,1.36a.8.8,0,0,0,.46-.06.92.92,0,0,1-.71.55,1.72,1.72,0,0,0,.87-.25,1.1,1.1,0,0,1-.49.63,1.13,1.13,0,0,0,.48-.21c-.18.57-.48.68-.65.73a1.11,1.11,0,0,0,.61-.15c-.28.62-.48.66-.57.72a.65.65,0,0,1-.58-.06c.31.21.43.33.56.41a.86.86,0,0,1-.86-.09.74.74,0,0,0,0,.39.57.57,0,0,1-.31-.19l0,0a3.26,3.26,0,0,1-1.42,0,.55.55,0,0,0-.53,0,1,1,0,0,1-.56,0,.35.35,0,0,0-.36.08.46.46,0,0,1-.74,0c-.1-.12-.14-.1-.24-.1s-.11-.26-.11-.28l.42,0" transform="translate(-231.01 -261.82)"/><path class="cls-1" d="M234.08,293.47" transform="translate(-231.01 -261.82)"/><path class="cls-1" d="M234.12,293.45a.64.64,0,0,0,.69.38c.28-.06.5-.17.83.2-.25,0-.24,0-.33.1s-.16.08-.38,0a.46.46,0,0,0-.5.16.5.5,0,0,1-.45.23" transform="translate(-231.01 -261.82)"/><path class="cls-4" d="M234.74,294.13a3.05,3.05,0,0,1-.73-.23.87.87,0,0,0-.55,0c-.3,0-.25.25-.79,0-.12,0-.27-.06-.61.16a.31.31,0,0,0,.05.58c.59.26.74.32,1,.13a.65.65,0,0,1,.5-.14l.48-.07a.39.39,0,0,0,.24-.18.74.74,0,0,1,.36-.23" transform="translate(-231.01 -261.82)"/><path class="cls-1" d="M236.19,293.09a.24.24,0,1,0-.24-.24.24.24,0,0,0,.24.24" transform="translate(-231.01 -261.82)"/><path class="cls-1" d="M236.19,292.85" transform="translate(-231.01 -261.82)"/><path class="cls-1" d="M233.63,293.41a1,1,0,0,0,0,.43.58.58,0,0,1-.3-.35" transform="translate(-231.01 -261.82)"/><path class="cls-1" d="M234,294.58c-.24-.2-.09-.59-.09-.59.13.16.21.33.45.39l-.14.13a1.76,1.76,0,0,1-.22.07" transform="translate(-231.01 -261.82)"/><path class="cls-1" d="M233.56,293.43a.87.87,0,0,0,.28.49c0-.22,0-.22.14-.42" transform="translate(-231.01 -261.82)"/><path class="cls-1" d="M233.8,293.44a.93.93,0,0,0,.32.59c0-.34.11-.42.11-.42" transform="translate(-231.01 -261.82)"/><path class="cls-1" d="M235.64,294a.45.45,0,0,0-.29.08c-.06,0-.12.09-.17.08a1.07,1.07,0,0,1,.17-.62.72.72,0,0,0,.29.46" transform="translate(-231.01 -261.82)"/><path class="cls-1" d="M234.38,293.54a.17.17,0,0,0-.08.22c0,.06,0,0,.13.08a.33.33,0,0,0,.3,0,.42.42,0,0,0,.23-.32c0-.32,0-.59-.49-.63a.4.4,0,0,1-.09.68" transform="translate(-231.01 -261.82)"/><path class="cls-1" d="M234.91,293.82a.46.46,0,0,0,.18-.37.4.4,0,0,1,.09.32.94.94,0,0,0-.27.05" transform="translate(-231.01 -261.82)"/><path class="cls-2" d="M242.84,294.59a.65.65,0,0,0,.5-.27.48.48,0,0,1,.51-.16c.22,0,.29,0,.38,0s.08-.1.33-.11c-.33-.37-.55-.25-.83-.2a.63.63,0,0,1-.7-.38l-.22,0c-.13-.12-.42,0-.42,0s-.5.2-.55-.19.13-.42.13-.42.23-.22.23-.22c0-.25.24-.24.24-.24s.53.12.53.12,0,.06.29,0,.25-.22.25-.22c0-.3-.37-.21-.37-.21.24-.31,1,.06,1,.06a.74.74,0,0,1,.83-.24.8.8,0,0,1,.91-.18c0-.45.82-.66.82-.66s.39-.44.39-.44c.47,1.26-.38,1.35-.38,1.35l.38-.05a1,1,0,0,0,.72-.75c.1.8,0,1.07-.26,1.36a.8.8,0,0,0,.46-.06.92.92,0,0,1-.7.55,1.71,1.71,0,0,0,.86-.25,1.1,1.1,0,0,1-.49.63,1.13,1.13,0,0,0,.48-.21c-.18.57-.47.68-.65.73a1.06,1.06,0,0,0,.61-.15c-.27.62-.47.66-.57.72a.65.65,0,0,1-.58-.06c.31.21.43.33.56.41a.84.84,0,0,1-.85-.09.68.68,0,0,0,0,.39.52.52,0,0,1-.3-.19l0,0a3.27,3.27,0,0,1-1.42,0,.55.55,0,0,0-.53,0,1,1,0,0,1-.56,0,.35.35,0,0,0-.36.08.45.45,0,0,1-.74,0c-.1-.12-.14-.1-.24-.1s-.11-.26-.11-.28l.43,0" transform="translate(-231.01 -261.82)"/><path class="cls-1" d="M243,293.47" transform="translate(-231.01 -261.82)"/><path class="cls-1" d="M243,293.45a.65.65,0,0,0,.7.38c.28-.06.5-.17.83.2-.25,0-.25,0-.33.1s-.17.08-.38,0a.48.48,0,0,0-.51.16.49.49,0,0,1-.45.23" transform="translate(-231.01 -261.82)"/><path class="cls-4" d="M243.66,294.13a3.05,3.05,0,0,1-.73-.23.85.85,0,0,0-.55,0c-.3,0-.25.25-.79,0-.12,0-.26-.06-.61.16a.31.31,0,0,0,.05.58c.59.26.74.32,1.05.13a.65.65,0,0,1,.5-.14l.48-.07a.44.44,0,0,0,.25-.18.73.73,0,0,1,.35-.23" transform="translate(-231.01 -261.82)"/><path class="cls-1" d="M245.11,293.09a.24.24,0,1,0,0-.47.23.23,0,0,0-.23.23.23.23,0,0,0,.23.24" transform="translate(-231.01 -261.82)"/><path class="cls-1" d="M245.11,292.85" transform="translate(-231.01 -261.82)"/><path class="cls-1" d="M242.55,293.41a1.06,1.06,0,0,0,0,.43.58.58,0,0,1-.31-.35" transform="translate(-231.01 -261.82)"/><path class="cls-1" d="M242.92,294.58c-.23-.2-.09-.59-.09-.59.13.16.21.33.45.39l-.14.13a1.76,1.76,0,0,1-.22.07" transform="translate(-231.01 -261.82)"/><path class="cls-1" d="M242.49,293.43a.82.82,0,0,0,.28.49c0-.22,0-.22.13-.42" transform="translate(-231.01 -261.82)"/><path class="cls-1" d="M242.73,293.44a.88.88,0,0,0,.31.59c0-.34.11-.42.11-.42" transform="translate(-231.01 -261.82)"/><path class="cls-1" d="M244.57,294a.46.46,0,0,0-.3.08c-.06,0-.12.09-.17.08a1,1,0,0,1,.18-.62.68.68,0,0,0,.29.46" transform="translate(-231.01 -261.82)"/><path class="cls-1" d="M243.31,293.54a.16.16,0,0,0-.08.22c0,.06,0,0,.13.08a.31.31,0,0,0,.29,0,.4.4,0,0,0,.23-.32c.05-.32,0-.59-.48-.63a.4.4,0,0,1-.09.68" transform="translate(-231.01 -261.82)"/><path class="cls-1" d="M243.83,293.82a.52.52,0,0,0,.19-.37.45.45,0,0,1,.09.32,1.05,1.05,0,0,0-.28.05" transform="translate(-231.01 -261.82)"/><path class="cls-2" d="M241.08,306.89a.59.59,0,0,0,.5-.27.52.52,0,0,1,.51-.16c.22.06.29.05.38,0s.08-.1.33-.11c-.33-.37-.55-.26-.83-.2a.62.62,0,0,1-.69-.38l-.23,0c-.13-.12-.42,0-.42,0s-.5.19-.55-.19.14-.42.14-.42.22-.22.22-.22c0-.26.24-.24.24-.24s.53.12.53.12,0,.06.29,0,.25-.23.25-.23c0-.3-.37-.21-.37-.21.24-.31,1,.06,1,.06a.73.73,0,0,1,.83-.23.78.78,0,0,1,.91-.18c0-.45.82-.66.82-.66s.39-.45.39-.45c.47,1.27-.38,1.36-.38,1.36l.38-.06a1,1,0,0,0,.73-.75c.09.81,0,1.08-.27,1.37a.78.78,0,0,0,.46-.07.93.93,0,0,1-.7.56,1.66,1.66,0,0,0,.86-.25,1.1,1.1,0,0,1-.49.63,1.19,1.19,0,0,0,.48-.21c-.17.57-.47.68-.65.72a1.08,1.08,0,0,0,.61-.14c-.27.61-.47.65-.57.72a.69.69,0,0,1-.58-.07c.31.22.43.34.56.42a.87.87,0,0,1-.85-.09.65.65,0,0,0,0,.38.48.48,0,0,1-.3-.18l0,0a3,3,0,0,1-1.42,0,.58.58,0,0,0-.53,0,1.07,1.07,0,0,1-.56,0,.35.35,0,0,0-.36.08.46.46,0,0,1-.74,0c-.1-.12-.14-.1-.24-.11s-.11-.25-.11-.28l.43,0" transform="translate(-231.01 -261.82)"/><path class="cls-1" d="M241.24,305.78" transform="translate(-231.01 -261.82)"/><path class="cls-1" d="M241.28,305.75a.62.62,0,0,0,.7.38c.28-.05.5-.17.83.2-.25,0-.25,0-.33.11s-.16.07-.38,0a.5.5,0,0,0-.51.17c-.13.13-.2.24-.45.22" transform="translate(-231.01 -261.82)"/><path class="cls-4" d="M241.9,306.44a3.05,3.05,0,0,1-.73-.23.85.85,0,0,0-.55,0c-.3,0-.25.25-.79,0-.11-.05-.26-.06-.61.16a.31.31,0,0,0,.05.58c.59.25.75.32,1,.13a.68.68,0,0,1,.5-.15,2.41,2.41,0,0,0,.49-.07.4.4,0,0,0,.24-.17.65.65,0,0,1,.35-.23" transform="translate(-231.01 -261.82)"/><path class="cls-1" d="M243.35,305.4a.24.24,0,1,0,0-.48.24.24,0,0,0,0,.48" transform="translate(-231.01 -261.82)"/><path class="cls-1" d="M243.35,305.16" transform="translate(-231.01 -261.82)"/><path class="cls-1" d="M240.79,305.71a1.11,1.11,0,0,0,0,.44.62.62,0,0,1-.31-.36" transform="translate(-231.01 -261.82)"/><path class="cls-1" d="M241.16,306.88c-.23-.19-.09-.59-.09-.59.13.16.21.33.45.4l-.14.13-.22.06" transform="translate(-231.01 -261.82)"/><path class="cls-1" d="M240.73,305.74a.87.87,0,0,0,.28.49c0-.23,0-.23.13-.42" transform="translate(-231.01 -261.82)"/><path class="cls-1" d="M241,305.75a1,1,0,0,0,.31.59c0-.34.12-.42.12-.42" transform="translate(-231.01 -261.82)"/><path class="cls-1" d="M242.81,306.33c-.19,0-.25,0-.3.08s-.11.09-.17.08a1.08,1.08,0,0,1,.18-.62.68.68,0,0,0,.29.46" transform="translate(-231.01 -261.82)"/><path class="cls-1" d="M241.55,305.85a.16.16,0,0,0-.08.22c0,.05,0,0,.13.08a.31.31,0,0,0,.29,0,.42.42,0,0,0,.23-.33c0-.32,0-.59-.48-.63a.41.41,0,0,1-.09.69" transform="translate(-231.01 -261.82)"/><path class="cls-1" d="M242.07,306.12a.51.51,0,0,0,.19-.37.48.48,0,0,1,.09.33,1.29,1.29,0,0,0-.28,0" transform="translate(-231.01 -261.82)"/><path class="cls-7" d="M258.26,300.33l-.74-4.84.77-.63a.09.09,0,0,0,0-.07v-1.36a.06.06,0,0,0,0-.06.05.05,0,0,0-.05,0h-.5l-.14-.85.15-.43h0v-.5a.06.06,0,0,0-.06-.06h-.22a.06.06,0,0,0-.06.06v.23h-.13v-.23a.06.06,0,0,0-.06-.06H257a.06.06,0,0,0-.06.06v.23h-.13v-.23a.06.06,0,0,0-.06-.06h-.25a.06.06,0,0,0-.06.06v.5h0l.14.43-.14.85H256l-.14-.85.15-.42h0v-.51a.06.06,0,0,0,0-.06h-.22a.06.06,0,0,0-.06.06v.23h-.13v-.23a.06.06,0,0,0-.06-.06h-.27a.06.06,0,0,0-.05.06v.23H255v-.23a.06.06,0,0,0-.05-.06h-.25a.06.06,0,0,0-.06.06v.51h0l.13.43-.14.85h-.46l-.15-.86.14-.4h0v-.5a.06.06,0,0,0-.06-.06h-.22a.06.06,0,0,0-.06.06v.22h-.13v-.23a.06.06,0,0,0-.06-.05h-.26a.06.06,0,0,0-.06.05v.23h-.13v-.22a.06.06,0,0,0-.06-.06h-.25a.06.06,0,0,0-.06.06v.5h0l.14.4-.14.86h-.44a.08.08,0,0,0-.08.08v1.38a.09.09,0,0,0,0,.06l.76.62-.72,4.79h0l-1,1a.05.05,0,0,0,0,0v3.1a.09.09,0,0,0,.09.08h7.8a.09.09,0,0,0,.09-.08v-3.07a.05.05,0,0,0,0-.05Zm-.18-.07h-.92v-.45H258ZM254,293.51v.16h-.93v-.16Zm-.64-.57c0-.13.09-.19.15-.19h0c.07,0,.14.06.15.19v.36h-.3Zm.64.81V294h-.93v-.25Zm-.59.34h1v.62h-1Zm1,.71.06.58h-.83l-.21-.58Zm1.37-1.29v.15h-.93v-.15Zm-.61-.57c0-.13.09-.19.15-.19h0c.07,0,.14.06.15.19v.36h-.3Zm2.4.57v.15h-.93v-.15Zm-.63-.58c0-.13.09-.19.16-.19h0c.07,0,.14.06.15.19v.36h-.31Zm.63.81V294h-.93v-.26Zm-.41.35v.62h-.94v-.62Zm0,.71-.28.58h-.71l.08-.58Zm-2.71,3.84h1.79v.51h-1.79Zm-.29-.09v-.48h.59v.48Zm.73-3h.92v.56h-.92Zm-.3-.16-.06-.58h.77v.58Zm.8-.58h.77l-.08.58h-.69Zm.82,1.38v.64h-.24a.62.62,0,0,0-.61-.59.62.62,0,0,0-.61.59h-.26v-.64Zm.4.73v.49h-.63v-.49Zm-1.86,0v.49h-.66v-.49Zm1.23,1.64v-.49h.55v.49Zm.35.09h.79v.51h-.79Zm.29-.09v-.49h.76v.49Zm.32-.57h-1v-.49h1Zm-.24-.58v-.49h.51v.49Zm.27-.58h-.68v-.64h.68Zm-.21-.72v-.56h.64l.09.56Zm-.08-.56v.56h-.79v-.56Zm-1.29-.83v-.62h.79v.62Zm.42-1V294h-.93v-.26Zm-.51.35v.62h-.78v-.62Zm-.5,1.45v.56H254v-.56Zm-.87,0v.56h-.73l.09-.56Zm-.2.64h.67v.64h-.67Zm.27.73v.49h-.49v-.49Zm-.23.58h1v.5h-1Zm.31.58v.48h-.75v-.48Zm-.49.57h.77v.51h-.77Zm.35.59v.49h-.79v-.49Zm-.35.58h.85v.45h-.85Zm.43-.09v-.49h.93v.49Zm.5.09h.79v.45h-.79Zm.51-.09v-.49h.64v.49Zm.36.09h.78v.45h-.78Zm.37-.09v-.49h.92v.49Zm.49.09h.87v.45h-.87Zm.52-.09v-.49h.78v.49Zm1.27,0h-.4v-.49h.33Zm-.09-.57h-.75v-.51h.67Zm-.09-.6h-.4v-.49h.33Zm-.09-.57H257v-.49h.68Zm-.09-.58h-.39v-.49h.32Zm-.08-.58H257v-.64h.45Zm-.16-1.44h-.46l.27-.58h.9Zm.76-.67h-.93v-.62h.93Zm-.52-1.2h.52V294h-.52Zm-1.11-1.92h.13v.23a.06.06,0,0,0,.06.06H257a.06.06,0,0,0,.06-.06v-.23h.14v.23a.06.06,0,0,0,.06.06h.25a.06.06,0,0,0,.06-.06v-.22h.1V292h-1.11Zm0,.51h1.07l-.12.36h-.84Zm.11.41h.84l.13.78h-.33v-.36c0-.17-.12-.24-.21-.24h0c-.09,0-.19.07-.21.24v.36h-.35Zm-.8,1h.68V294h-.68Zm-.14-1.05h-.84l-.11-.35h1.07Zm-1-.46v-.39h.14v.23a.06.06,0,0,0,.06.06h.24a.06.06,0,0,0,.06-.06v-.23h.15v.23a.06.06,0,0,0,.06.06h.25a.06.06,0,0,0,0-.06v-.23h.11V292Zm.14.52h.83l.13.78h-.33v-.36a.25.25,0,0,0-.21-.25h0c-.09,0-.19.08-.21.25v.36h-.34Zm-.82,1h.68V294h-.68Zm-1.13-1.89h.13v.23a.06.06,0,0,0,.06.06h.25a.06.06,0,0,0,.06-.06v-.23h.14v.23a.06.06,0,0,0,.06.06h.25a.06.06,0,0,0,.06-.06v-.22h.1V292h-1.11Zm0,.51H254l-.12.33h-.83Zm.12.39h.83l.13.78h-.33v-.37c0-.16-.12-.24-.21-.24h0c-.09,0-.19.08-.21.25v.36H253Zm-.62,1H253V294h-.51Zm0,.58h.86v.62h-.86Zm0,.71h.83l.21.58h-.33Zm.65,1.38h.45v.64h-.55Zm-.11.73h.34v.49H253Zm-.09.58h.69v.5h-.76Zm-.09.58h.35v.48h-.42Zm-.08.57h.69v.51h-.77Zm-.09.59H253v.49h-.4Zm-.09.58h.87v.45h-.93Zm-.15.61h5.67l.38.38h-6.45Zm-.49.47h6.63l.41.41h-7.46Zm4.37,2.37v-.49h.82v.49Zm.35.09v.5h-.35v-.5Zm-.35-.66v-.5h.35v.5Zm1.37-.5v.5h-.94v-.5h.94Zm-.47-.08v-.72h.94v.72Zm-.47,1.24h.93v.5h-.93Zm.47-.09v-.49h1v.49Zm.55.09h.92v.5h-.92Zm0-.66v-.5h.93v.5Zm-4.47.57h-1v-.49h1Zm.47.09v.5h-.92v-.5Zm-1,0v.5h-.92v-.5Zm0-1.16v.5h-.93v-.5Zm-.4-.08v-.72h.93v.72Zm.48.58v-.5h.93v.5Zm-1.4-1.3h.84v.72h-.84Zm0,.8h.3v.5h-.3Zm0,.58h.78v.49h-.78Zm0,.58h.31v.5h-.31Zm.78,1h-.78v-.43h.78Zm1.08,0h-1v-.43h1Zm.9,0h-.81v-.43h.81Zm0-.51h-.35v-.5h.35Zm0-.59h-.82v-.49h.82Zm0-.57h-.35v-.5h.35Zm1.11-1a1.28,1.28,0,0,0-1,.46h-.89v-.72h3.75v.72h-.88A1.16,1.16,0,0,0,255.33,301.65Zm1.82,2.71h-.82v-.43h.82Zm1.08,0h-1v-.43h1Zm.87,0h-.78v-.43h.78Zm0-.51h-.31v-.5h.31Zm0-.59h-.78v-.49h.78Zm0-.57h-.31v-.5h.31Zm0-.58h-.85v-.72h.83l0,0Z" transform="translate(-231.01 -261.82)"/><path class="cls-7" d="M236.4,294.3A.46.46,0,0,1,236,294v0c0-.13-.05-.26-.25-.29a0,0,0,0,0,0,0l0,0c.17,0,.19.12.22.25v0a.52.52,0,0,0,.41.35.72.72,0,0,1,.36.27h0a0,0,0,0,0,0,0A.74.74,0,0,0,236.4,294.3Z" transform="translate(-231.01 -261.82)"/><path class="cls-7" d="M236.75,292.49a.6.6,0,0,1,.18-.21.73.73,0,0,0-.57-.06C236.56,292.24,236.6,292.33,236.75,292.49Z" transform="translate(-231.01 -261.82)"/><path class="cls-7" d="M235.58,294.43l0,0h0s0,0,0,0a.44.44,0,0,0,0,.29h0s0,0,0,0A.43.43,0,0,1,235.58,294.43Z" transform="translate(-231.01 -261.82)"/><path class="cls-7" d="M236.13,294.46a0,0,0,0,0,0,0,.46.46,0,0,1,.13.27l0,0h0a0,0,0,0,0,0,0,.48.48,0,0,0-.15-.3S236.13,294.44,236.13,294.46Z" transform="translate(-231.01 -261.82)"/><path class="cls-7" d="M235.74,294.33s0,0,0,0l0,0a.53.53,0,0,0,.08.36h0s0,0,0,0A.49.49,0,0,1,235.74,294.33Z" transform="translate(-231.01 -261.82)"/><path class="cls-7" d="M234.14,295c-.08,0-.12-.05-.19-.2h0a0,0,0,0,0,0,0c.08.17.13.19.22.23l0,0h0a.06.06,0,0,0,0,0Z" transform="translate(-231.01 -261.82)"/><path class="cls-7" d="M236.36,294.47s0,0,0,0,0,0,0,0a.51.51,0,0,1,.25.23l0,0a0,0,0,0,0,0,0h0a0,0,0,0,0,0,0l0,0A.5.5,0,0,0,236.36,294.47Z" transform="translate(-231.01 -261.82)"/><path class="cls-7" d="M235.41,294.43s0,0,0,0a1,1,0,0,0,0,.32,0,0,0,0,0,0,0h0l0,0a.88.88,0,0,1,0-.3S235.42,294.43,235.41,294.43Z" transform="translate(-231.01 -261.82)"/><path class="cls-7" d="M235.23,294.48s0,0,0,0a1.66,1.66,0,0,0,0,.33l0,0h0s0,0,0,0a1.45,1.45,0,0,1,0-.31S235.24,294.48,235.23,294.48Z" transform="translate(-231.01 -261.82)"/><path class="cls-7" d="M234.36,294.93a.21.21,0,0,1-.14-.17s0,0,0,0,0,0,0,0a.24.24,0,0,0,.16.2h0a0,0,0,0,0,0,0Z" transform="translate(-231.01 -261.82)"/><path class="cls-7" d="M234.88,294.57s0,0,0,0h0l0,0a.91.91,0,0,0,0,.28,0,0,0,0,0,0,0h0s0,0,0,0A1,1,0,0,1,234.88,294.57Z" transform="translate(-231.01 -261.82)"/><path class="cls-7" d="M234.41,294.72s0,0,0,0a0,0,0,0,0,0,0,.17.17,0,0,0,.1.15h0a0,0,0,0,0,0,0l0,0S234.41,294.77,234.41,294.72Z" transform="translate(-231.01 -261.82)"/><path class="cls-7" d="M232.09,294.67a2.23,2.23,0,0,0,.74.24.62.62,0,0,0,.35-.11,1,1,0,0,1,.26-.13c0,.06,0,.27.16.28h.05c.06,0,.09,0,.16.09a.61.61,0,0,0,.43.23.57.57,0,0,0,.34-.16l0,0c.13-.1.22-.12.32-.08a1.08,1.08,0,0,0,.59,0,.59.59,0,0,1,.5,0,3,3,0,0,0,1.42,0v0a.56.56,0,0,0,.33.19l.05,0a.06.06,0,0,0,0-.06s0-.07,0-.27a.94.94,0,0,0,.83.06.09.09,0,0,0,0-.05.08.08,0,0,0,0-.05,1.62,1.62,0,0,1-.19-.13l-.11-.09a.56.56,0,0,0,.31,0l0,0c.12-.06.31-.17.55-.71a.05.05,0,1,0-.08-.06.7.7,0,0,1-.27.1,1.19,1.19,0,0,0,.4-.63.07.07,0,0,0,0-.06s-.05,0-.06,0a.67.67,0,0,1-.18.1,1.49,1.49,0,0,0,.27-.47s0,0,0-.06a0,0,0,0,0-.06,0,1.19,1.19,0,0,1-.41.17,1.39,1.39,0,0,0,.33-.42,0,0,0,0,0,0-.06.07.07,0,0,0-.06,0,.65.65,0,0,1-.33.07c.25-.29.3-.6.21-1.33a0,0,0,0,0,0,0,.05.05,0,0,0-.05,0,1,1,0,0,1-.68.71h0a.79.79,0,0,0,.15-.19,1.13,1.13,0,0,0-.05-1.08s0,0,0,0a0,0,0,0,0,0,0,1.91,1.91,0,0,0-.17.22.6.6,0,0,1-.43.29.88.88,0,0,0-.63.55.78.78,0,0,0-.88.2.64.64,0,0,0-.72.14c-.09.12-.1.12-.18.07L235,292a.82.82,0,0,0-.84,0,0,0,0,0,0,0,.06s0,0,.05,0a.46.46,0,0,1,.3.05.16.16,0,0,1,0,.12.14.14,0,0,1,0,.11.21.21,0,0,1-.13.05h-.12l-.2,0-.1,0a.55.55,0,0,0-.34-.09h0a.35.35,0,0,0-.33.17v0a.45.45,0,0,1-.25.31.29.29,0,0,0-.14.18.7.7,0,0,0,0,.42.44.44,0,0,0,.34.15l.08,0a.65.65,0,0,0,.2.25h-.08a.62.62,0,0,0-.23.08c-.1.05-.19.09-.53-.05-.15-.05-.32-.05-.66.17a.38.38,0,0,0-.19.36A.37.37,0,0,0,232.09,294.67Zm6.51-2.16s0,0,0,.05,0,0,0,0a.85.85,0,0,0,.36,0,.81.81,0,0,1-.6.4.07.07,0,0,0,0,.06.06.06,0,0,0,.06,0,2.26,2.26,0,0,0,.74-.18.94.94,0,0,1-.4.46l0,0a3.77,3.77,0,0,1-.82,0,4.71,4.71,0,0,0,.49-.68,0,0,0,0,0,0,0h0a.59.59,0,0,1-.26,0l0,0a1.72,1.72,0,0,0,.74-.82A.91.91,0,0,1,238.6,292.51Zm-.41-.88a.7.7,0,0,1-.31.29h-.09l-.08,0a1.93,1.93,0,0,0,.35-.4,0,0,0,0,0,0,0h0a1.72,1.72,0,0,0-.25,0,1.63,1.63,0,0,0,.47-.39A.84.84,0,0,1,238.19,291.63Zm-4.17.91.21,0h.12a.33.33,0,0,0,.21-.07.31.31,0,0,0,.09-.18.26.26,0,0,0-.07-.2.34.34,0,0,0-.17-.08.79.79,0,0,1,.57.07l.1.05c.11.07.18.08.31-.09a.52.52,0,0,1,.56-.13.1.1,0,0,0,0,.05,0,0,0,0,0,.08.06.85.85,0,0,1,.62-.35h0a.61.61,0,0,1,.28.08h0a.5.5,0,0,1,.13.11.06.06,0,0,0,.07,0,.06.06,0,0,0,0-.08l-.13-.12a.79.79,0,0,1,.56-.5.65.65,0,0,0,.49-.33l.11-.15a1.14,1.14,0,0,1,.09.3,1.57,1.57,0,0,1-.51.43l-.07,0s0,0,0,0,0,0,0,0H238a2,2,0,0,1-.39.42c-.29.07-.44.22-.46.64a.06.06,0,0,0,0,.06.06.06,0,0,0,.06-.05c0-.46.19-.53.54-.58l.08,0h0l.29,0a1,1,0,0,0,.69-.57c0,.12,0,.23,0,.32a1.78,1.78,0,0,1-.78.91l-.11.07s0,0,0,0l0,0a1.15,1.15,0,0,0,.3,0,4.93,4.93,0,0,1-.48.65,0,0,0,0,0,0,0h0a2.89,2.89,0,0,0,.5,0l.38,0a0,0,0,0,0,.06,0,2.18,2.18,0,0,0,.37-.13.81.81,0,0,1-.57.55.05.05,0,0,0,0,.06s0,0,.05,0a1.41,1.41,0,0,0,.5-.08,1.43,1.43,0,0,1-.26.4,2.5,2.5,0,0,1-1.17-.45,0,0,0,0,0,0,0s0,0,0,0a2.61,2.61,0,0,0,1.15.45.44.44,0,0,1-.13.09l-.05,0a.63.63,0,0,1-.52-.06,0,0,0,0,0-.07,0,0,0,0,0,0,0,.07l.38.28.1.08a.57.57,0,0,1-.18,0,2.71,2.71,0,0,1-.72-.58,0,0,0,0,0,0,0,0,0,0,0,0,0,0,3.5,3.5,0,0,0,.65.54.84.84,0,0,1-.42-.15h0a.05.05,0,0,0,0,.05,1.07,1.07,0,0,0,0,.31.39.39,0,0,1-.18-.13h0l0,0h0a1.21,1.21,0,0,1-.18-.44s0,0,0,0,0,0,0,0a1.15,1.15,0,0,0,.15.42,2.9,2.9,0,0,1-1.37,0,.68.68,0,0,0-.57,0,1,1,0,0,1-.52,0,.41.41,0,0,0-.41.08l0,0c-.13.11-.32.26-.62-.06a.27.27,0,0,0-.24-.12h0s-.06-.13-.06-.19h.11a3.27,3.27,0,0,0,.5-.08.43.43,0,0,0,.27-.2c.07-.12.3-.19.32-.2h0a.52.52,0,0,1,.17,0l.24,0a.26.26,0,0,0,.18-.07l0,0c.05,0,.07-.05.27-.06,0,0,0,0,0,0a0,0,0,0,0,0-.06,1.37,1.37,0,0,0-.19-.17.81.81,0,0,1-.11-.26l0,0h0l-.09.17h0a.54.54,0,0,0-.09-.29h0l0,0v0a.49.49,0,0,1-.13.29h0l-.07,0a.41.41,0,0,0,.15-.28.58.58,0,0,0-.08-.47.56.56,0,0,0-.42-.19l0,0a0,0,0,0,0,0,0,.41.41,0,0,1,.15.32.48.48,0,0,1-.24.32.15.15,0,0,0-.08.08.71.71,0,0,1-.1-.14.3.3,0,0,0,.16-.28.4.4,0,0,0-.18-.35.32.32,0,0,1-.19-.22.36.36,0,0,1,0-.09l0,0Zm0,2a.54.54,0,0,1-.06-.47l0,0a.72.72,0,0,0,.33.29.38.38,0,0,1-.16.11Zm-.13-1a.27.27,0,0,0,.25,0,.5.5,0,0,0,.08.12.71.71,0,0,0-.09.35A1.06,1.06,0,0,1,233.85,293.51Zm.06.3h0v0Zm.31-.14,0,0a.19.19,0,0,0,0,.07.1.1,0,0,0,.08.05l.06,0a.31.31,0,0,0,.13,0h.27l.1,0a1.43,1.43,0,0,1,.29,0,1,1,0,0,0-.05.31l-.21,0a.71.71,0,0,0-.2,0h0a2.93,2.93,0,0,1-.6-.17A.42.42,0,0,1,234.22,293.67Zm.1,0a.11.11,0,0,1,.07-.08h0a.52.52,0,0,0,.26-.35.43.43,0,0,0-.12-.32.47.47,0,0,1,.32.16.53.53,0,0,1,.07.43.37.37,0,0,1-.21.3h0a.32.32,0,0,1-.28,0l-.06,0-.06,0A.17.17,0,0,1,234.32,293.65Zm.67.12a.51.51,0,0,0,.12-.25.51.51,0,0,1,0,.22Zm.35-.14a.82.82,0,0,0,.24.38.43.43,0,0,0-.25.08l0,0a.34.34,0,0,1-.11.05A1,1,0,0,1,235.34,293.63Zm-2.34-.28a.53.53,0,0,1,0-.33.23.23,0,0,1,.08-.12.55.55,0,0,0,.31-.37.29.29,0,0,1,.23-.12h0a.32.32,0,0,1,.25.16l0,.08a.44.44,0,0,0,.24.27.32.32,0,0,1,.13.26.19.19,0,0,1-.11.19c-.16.09-.2.07-.26,0h0a.51.51,0,0,0-.49,0A.36.36,0,0,1,233,293.35Zm.6.12a.26.26,0,0,1,.19,0,1.33,1.33,0,0,0,.05.19.31.31,0,0,0,0,.1v.09A.8.8,0,0,1,233.6,293.47Zm.09.31h0a.11.11,0,0,0,0,0Zm-.31-.25h0l.13,0a.65.65,0,0,0,0,.13,1,1,0,0,0,0,.18A.67.67,0,0,1,233.38,293.53Zm-1.29.56a.84.84,0,0,1,.44-.19.42.42,0,0,1,.12,0c.39.16.49.1.62,0a.47.47,0,0,1,.19-.07,1.2,1.2,0,0,1,.32,0l0,0h0l0,0v0l.11,0h0l.09.09h0s0,0,0,0h0l.42.13a.55.55,0,0,0-.22.18h0a.65.65,0,0,1-.33-.28l-.07-.09h0v0a.63.63,0,0,0,0,.54l-.27,0h-.06c-.09,0-.18,0-.46.15s-.4.12-1-.13a.31.31,0,0,1-.19-.23A.26.26,0,0,1,232.09,294.09Z" transform="translate(-231.01 -261.82)"/><path class="cls-7" d="M235.69,293.1l0,0h0a0,0,0,0,0,0,0,.24.24,0,0,1-.18-.37.45.45,0,0,0,.12-.06.91.91,0,0,0,.37,0,.23.23,0,0,0-.11.2.27.27,0,0,0,.26.27h.05l.06.14h0l0,0a.16.16,0,0,1,0-.07l0,0,0,0,.13,0h0l-.17-.12v0s0,0,0-.07,0,0,0-.07v0h0l-.1-.1-.07-.07h0a1.06,1.06,0,0,1-.54.05h0a.56.56,0,0,1-.14.08l0,0v0c.07.08,0,.24,0,.24v0h0A.3.3,0,0,1,235.69,293.1Zm.6-.43.09.1h0v.13h0a.72.72,0,0,1-.2-.19h0a.83.83,0,0,0,0,.32h0a.21.21,0,0,1-.21-.22.21.21,0,0,1,.21-.21A.17.17,0,0,1,236.29,292.67Z" transform="translate(-231.01 -261.82)"/><path class="cls-7" d="M233.94,293.29a.16.16,0,0,0,.1,0c.05,0,.08-.14.07-.18h0a.12.12,0,0,0-.11-.1.15.15,0,0,0-.09,0,.17.17,0,0,0-.06.11.1.1,0,0,0,.08.07.2.2,0,0,1-.09,0h0v0A.31.31,0,0,0,233.94,293.29Zm.06-.11v0h0c-.06,0-.07,0-.08,0s0-.05,0-.07H234c.06,0,.06,0,.07.07h0a.17.17,0,0,1,0,.12h-.09A.19.19,0,0,0,234,293.18Z" transform="translate(-231.01 -261.82)"/><path class="cls-7" d="M233.26,292.93h0a.21.21,0,0,0-.17.08.24.24,0,0,0,0,.22h0a.06.06,0,0,0,0,0,.14.14,0,0,1,0-.08c0,.07.07.07.07.07a.25.25,0,0,0,.11-.07.11.11,0,0,0,0-.08A.13.13,0,0,0,233.26,292.93Zm.05.17s-.05,0-.06,0,0,0,0-.08l0,0h0a.19.19,0,0,0-.06.07.14.14,0,0,1,0-.09.21.21,0,0,1,.12,0h0s.06,0,.07.07A.09.09,0,0,1,233.31,293.1Z" transform="translate(-231.01 -261.82)"/><path class="cls-7" d="M245.32,294.3A.46.46,0,0,1,245,294v0c0-.13-.06-.26-.26-.29a0,0,0,0,0,0,0l0,0c.17,0,.19.12.22.25v0a.5.5,0,0,0,.4.35.83.83,0,0,1,.37.27h0a.06.06,0,0,0,0,0A.85.85,0,0,0,245.32,294.3Z" transform="translate(-231.01 -261.82)"/><path class="cls-7" d="M245.67,292.49a.57.57,0,0,1,.19-.21.76.76,0,0,0-.58-.06C245.48,292.24,245.52,292.33,245.67,292.49Z" transform="translate(-231.01 -261.82)"/><path class="cls-7" d="M244.5,294.43l0,0h0l0,0a.67.67,0,0,0,0,.29h0s0,0,0,0A.56.56,0,0,1,244.5,294.43Z" transform="translate(-231.01 -261.82)"/><path class="cls-7" d="M245.05,294.46a0,0,0,0,0,0,0,.46.46,0,0,1,.13.27l0,0h0s0,0,0,0a.48.48,0,0,0-.15-.3S245.06,294.44,245.05,294.46Z" transform="translate(-231.01 -261.82)"/><path class="cls-7" d="M244.66,294.33s0,0,0,0l0,0a.59.59,0,0,0,.08.36h0a0,0,0,0,0,0,0A.49.49,0,0,1,244.66,294.33Z" transform="translate(-231.01 -261.82)"/><path class="cls-7" d="M243.06,295c-.08,0-.12-.05-.19-.2h0s0,0,0,0c.08.17.13.19.22.23l.05,0h0a.06.06,0,0,0,0,0Z" transform="translate(-231.01 -261.82)"/><path class="cls-7" d="M245.28,294.47a0,0,0,0,0,0,0,0,0,0,0,0,0,0,.47.47,0,0,1,.25.23l0,0a0,0,0,0,0,0,0h0s0,0,0,0l0,0A.46.46,0,0,0,245.28,294.47Z" transform="translate(-231.01 -261.82)"/><path class="cls-7" d="M244.33,294.43s0,0,0,0a1,1,0,0,0,0,.32,0,0,0,0,0,0,0h0l0,0a.88.88,0,0,1,0-.3S244.34,294.43,244.33,294.43Z" transform="translate(-231.01 -261.82)"/><path class="cls-7" d="M244.15,294.48l0,0c0,.14,0,.32,0,.33s0,0,0,0h0s0,0,0,0a2.89,2.89,0,0,1,0-.31S244.16,294.48,244.15,294.48Z" transform="translate(-231.01 -261.82)"/><path class="cls-7" d="M243.28,294.93s-.1,0-.13-.17,0,0,0,0,0,0,0,0a.24.24,0,0,0,.16.2h0a0,0,0,0,0,0,0Z" transform="translate(-231.01 -261.82)"/><path class="cls-7" d="M243.81,294.57l0,0h0l0,0a.91.91,0,0,0,0,.28l0,0h0s0,0,0,0A.76.76,0,0,1,243.81,294.57Z" transform="translate(-231.01 -261.82)"/><path class="cls-7" d="M243.33,294.72a0,0,0,0,0,0,0s0,0,0,0a.19.19,0,0,0,.1.15h.05a0,0,0,0,0,0,0l0,0S243.33,294.77,243.33,294.72Z" transform="translate(-231.01 -261.82)"/><path class="cls-7" d="M241,294.67a2.2,2.2,0,0,0,.75.24.65.65,0,0,0,.35-.11,1.2,1.2,0,0,1,.25-.13c0,.06,0,.27.16.28h0c.06,0,.09,0,.16.09a.63.63,0,0,0,.43.23.54.54,0,0,0,.34-.16l0,0a.28.28,0,0,1,.31-.08,1.12,1.12,0,0,0,.6,0,.57.57,0,0,1,.49,0,3,3,0,0,0,1.42,0v0a.56.56,0,0,0,.33.19l.05,0a.06.06,0,0,0,0-.06s0-.07,0-.27a.94.94,0,0,0,.83.06.05.05,0,0,0,0-.05.08.08,0,0,0,0-.05c-.06,0-.11-.08-.19-.13l-.11-.09a.56.56,0,0,0,.31,0l0,0c.12-.06.31-.17.56-.71a.05.05,0,0,0-.09-.06.7.7,0,0,1-.27.1,1.19,1.19,0,0,0,.4-.63,0,0,0,0,0,0-.06,0,0,0,0,0-.06,0,.53.53,0,0,1-.18.1,1.31,1.31,0,0,0,.28-.47.07.07,0,0,0,0-.06.06.06,0,0,0-.07,0,1.19,1.19,0,0,1-.41.17,1.25,1.25,0,0,0,.33-.42,0,0,0,0,0,0-.06.06.06,0,0,0-.06,0,.65.65,0,0,1-.33.07c.26-.29.3-.6.21-1.33a0,0,0,0,0,0,0,.05.05,0,0,0-.06,0,.94.94,0,0,1-.68.71H247a.6.6,0,0,0,.15-.19,1.15,1.15,0,0,0,0-1.08.05.05,0,0,0,0,0s0,0-.05,0l-.17.22a.6.6,0,0,1-.43.29.9.9,0,0,0-.63.55.77.77,0,0,0-.28-.06.79.79,0,0,0-.59.26.66.66,0,0,0-.73.14c-.09.12-.1.12-.17.07l-.12-.06a.81.81,0,0,0-.84,0,0,0,0,0,0,0,.06s0,0,0,0a.46.46,0,0,1,.3.05.12.12,0,0,1,0,.12.12.12,0,0,1-.05.11.21.21,0,0,1-.13.05h-.12l-.2,0a.16.16,0,0,1-.09,0,.6.6,0,0,0-.34-.09h0a.37.37,0,0,0-.34.17v0a.45.45,0,0,1-.25.31.25.25,0,0,0-.13.18.63.63,0,0,0,0,.42.4.4,0,0,0,.33.15l.08,0a.77.77,0,0,0,.2.25h-.08a.62.62,0,0,0-.23.08c-.1.05-.19.09-.53-.05-.15-.05-.31-.05-.65.17a.39.39,0,0,0-.2.36A.37.37,0,0,0,241,294.67Zm6.51-2.16a0,0,0,0,0,0,.05s0,0,0,0a.8.8,0,0,0,.35,0,.82.82,0,0,1-.59.4.06.06,0,1,0,0,.11,2.19,2.19,0,0,0,.74-.18.89.89,0,0,1-.4.46l0,0a3.77,3.77,0,0,1-.82,0,4,4,0,0,0,.49-.68,0,0,0,0,0,0,0h0a.55.55,0,0,1-.26,0l0,0a1.78,1.78,0,0,0,.75-.82A.92.92,0,0,1,247.52,292.51Zm-.41-.88a.65.65,0,0,1-.31.29h-.09l-.08,0a1.93,1.93,0,0,0,.35-.4,0,0,0,0,0,0,0h0l-.26,0a1.51,1.51,0,0,0,.47-.39A.84.84,0,0,1,247.11,291.63Zm-4.16.91.2,0h.12a.31.31,0,0,0,.21-.07.26.26,0,0,0,.09-.18.26.26,0,0,0-.07-.2.34.34,0,0,0-.16-.08.77.77,0,0,1,.56.07.23.23,0,0,1,.1.05c.12.07.18.08.32-.09a.51.51,0,0,1,.55-.13l0,.05a0,0,0,0,0,.08.06.85.85,0,0,1,.63-.35h0a.58.58,0,0,1,.28.08h0a.37.37,0,0,1,.13.11.06.06,0,0,0,.07,0,.05.05,0,0,0,0-.08.81.81,0,0,0-.13-.12.79.79,0,0,1,.56-.5.65.65,0,0,0,.49-.33l.12-.15a1.67,1.67,0,0,1,.08.3,1.48,1.48,0,0,1-.51.43s0,0-.06,0l0,0s0,0,0,0h.31a1.8,1.8,0,0,1-.39.42c-.29.07-.43.22-.46.64a.06.06,0,0,0,.05.06.06.06,0,0,0,.06-.05c0-.46.19-.53.54-.58l.09,0h0l.28,0a1,1,0,0,0,.69-.57,1.89,1.89,0,0,1,0,.32,1.74,1.74,0,0,1-.78.91l-.11.07v0l0,0a1.19,1.19,0,0,0,.3,0,4.61,4.61,0,0,1-.49.65,0,0,0,0,0,0,0h0a2.77,2.77,0,0,0,.49,0l.38,0s0,0,.06,0a2.18,2.18,0,0,0,.37-.13.81.81,0,0,1-.57.55.05.05,0,1,0,0,.1,1.5,1.5,0,0,0,.5-.08,1.4,1.4,0,0,1-.27.4,2.6,2.6,0,0,1-1.17-.45s0,0,0,0,0,0,0,0a2.67,2.67,0,0,0,1.15.45.44.44,0,0,1-.13.09l0,0a.65.65,0,0,1-.53-.06,0,0,0,0,0-.07,0s0,.06,0,.07l.37.28.11.08-.19,0a2.93,2.93,0,0,1-.72-.58,0,0,0,0,0,0,0,.06.06,0,0,0,0,0,3.8,3.8,0,0,0,.66.54.88.88,0,0,1-.43-.15h-.05l0,.05a1.07,1.07,0,0,0,0,.31.39.39,0,0,1-.18-.13h0l0,0h0a1.13,1.13,0,0,1-.17-.44s0,0,0,0,0,0,0,0a1.39,1.39,0,0,0,.15.42,2.83,2.83,0,0,1-1.36,0,.7.7,0,0,0-.58,0,1,1,0,0,1-.51,0,.44.44,0,0,0-.42.08l0,0c-.12.11-.31.26-.62-.06a.25.25,0,0,0-.23-.12h-.05s-.06-.13-.06-.19h.11a3.27,3.27,0,0,0,.5-.08.4.4,0,0,0,.27-.2.75.75,0,0,1,.32-.2h0a.52.52,0,0,1,.17,0l.24,0a.28.28,0,0,0,.19-.07l0,0s.07-.05.26-.06c0,0,0,0,0,0a.06.06,0,0,0,0-.06,1.4,1.4,0,0,0-.2-.17.81.81,0,0,1-.11-.26l0,0h0a.69.69,0,0,0-.09.17h0a.54.54,0,0,0-.09-.29h0l0,0v0a.49.49,0,0,1-.13.29h0l-.07,0a.41.41,0,0,0,.15-.28.58.58,0,0,0-.07-.47.6.6,0,0,0-.43-.19l0,0a0,0,0,0,0,0,0,.41.41,0,0,1,.15.32.48.48,0,0,1-.23.32.14.14,0,0,0-.09.08.67.67,0,0,1-.09-.14.34.34,0,0,0,.16-.28.43.43,0,0,0-.19-.35.35.35,0,0,1-.19-.22.36.36,0,0,0,0-.09l0,0Zm0,2a.58.58,0,0,1-.06-.47l0,0a.72.72,0,0,0,.33.29.38.38,0,0,1-.16.11Zm-.13-1a.27.27,0,0,0,.25,0,.5.5,0,0,0,.08.12.64.64,0,0,0-.08.35A1,1,0,0,1,242.77,293.51Zm.06.3h0v0S242.82,293.79,242.83,293.81Zm.31-.14,0,0s0,.05,0,.07,0,0,.07.05l.06,0a.31.31,0,0,0,.13,0h.28l.1,0,.28,0a1,1,0,0,0,0,.31l-.21,0a.68.68,0,0,0-.2,0h0a2.93,2.93,0,0,1-.6-.17A.69.69,0,0,1,243.14,293.67Zm.1,0a.11.11,0,0,1,.08-.08h0a.49.49,0,0,0,.26-.35.43.43,0,0,0-.12-.32.52.52,0,0,1,.33.16.57.57,0,0,1,.07.43.39.39,0,0,1-.21.3h0a.3.3,0,0,1-.27,0l-.07,0s0,0-.05,0A.11.11,0,0,1,243.24,293.65Zm.67.12a.43.43,0,0,0,.12-.25.31.31,0,0,1,.05.22Zm.36-.14a.75.75,0,0,0,.23.38.43.43,0,0,0-.25.08l0,0s-.07.05-.11.05A1.12,1.12,0,0,1,244.27,293.63Zm-2.35-.28a.55.55,0,0,1,0-.33.15.15,0,0,1,.08-.12.56.56,0,0,0,.3-.37.29.29,0,0,1,.23-.12h0a.29.29,0,0,1,.25.16l0,.08a.44.44,0,0,0,.24.27.32.32,0,0,1,.13.26.2.2,0,0,1-.1.19c-.17.09-.2.07-.27,0h0a.51.51,0,0,0-.49,0A.36.36,0,0,1,241.92,293.35Zm.6.12a.25.25,0,0,1,.19,0,1.39,1.39,0,0,0,.06.19s0,.06,0,.1v.09A.88.88,0,0,1,242.52,293.47Zm.09.31h0v0Zm-.31-.25h0l.13,0a.65.65,0,0,0,0,.13.5.5,0,0,0,0,.18A.63.63,0,0,1,242.3,293.53Zm-1.29.56a.84.84,0,0,1,.44-.19.35.35,0,0,1,.12,0c.39.16.5.1.62,0a.47.47,0,0,1,.2-.07,1.12,1.12,0,0,1,.31,0l0,0h0v0l.12,0h0l.1.09h0a0,0,0,0,0,0,0h0c.09,0,.22.08.42.13a.52.52,0,0,0-.23.18h0a.65.65,0,0,1-.33-.28l-.07-.09s0,0,0,0a0,0,0,0,0,0,0,.63.63,0,0,0,0,.54l-.26,0h-.07c-.09,0-.18,0-.46.15s-.4.12-1-.13a.31.31,0,0,1-.19-.23A.28.28,0,0,1,241,294.09Z" transform="translate(-231.01 -261.82)"/><path class="cls-7" d="M244.61,293.1l0,0h0a0,0,0,0,0,0,0,.24.24,0,0,0-.18-.13.32.32,0,0,0,0-.24l.11-.06a.91.91,0,0,0,.37,0,.26.26,0,0,0-.11.2.27.27,0,0,0,.26.27h0a.39.39,0,0,0,.07.14h0l0,0a.16.16,0,0,1,0-.07l.05,0,0,0,.13,0h0l-.18-.12v0a.15.15,0,0,0,0-.07.2.2,0,0,0,0-.07v0h0a.32.32,0,0,0-.1-.1l-.07-.07h0a1.1,1.1,0,0,1-.55.05h0a.42.42,0,0,1-.14.08l0,0v0c.07.08,0,.24,0,.24s0,0,0,0h0A.25.25,0,0,1,244.61,293.1Zm.6-.43.09.1h0a.56.56,0,0,1,0,.13h0a.92.92,0,0,1-.2-.19h0a1.07,1.07,0,0,0,.05.32h0a.22.22,0,0,1,0-.43A.17.17,0,0,1,245.21,292.67Z" transform="translate(-231.01 -261.82)"/><path class="cls-7" d="M242.87,293.29a.15.15,0,0,0,.09,0,.17.17,0,0,0,.07-.18h0a.12.12,0,0,0-.11-.1.11.11,0,0,0-.08,0,.17.17,0,0,0-.06.11s0,.05.07.07a.14.14,0,0,1-.08,0h0a0,0,0,0,0,0,0A.24.24,0,0,0,242.87,293.29Zm0-.11a0,0,0,0,0,0,0h0c-.06,0-.07,0-.07,0a.1.1,0,0,1,0-.07h0c.06,0,.07,0,.07.07h0s0,.11-.05.12h-.09A.19.19,0,0,0,242.92,293.18Z" transform="translate(-231.01 -261.82)"/><path class="cls-7" d="M242.19,292.93h0a.22.22,0,0,0-.18.08.28.28,0,0,0,0,.22h0a0,0,0,0,0,0,0,.11.11,0,0,1,0-.08c0,.07.07.07.07.07a.18.18,0,0,0,.11-.07.11.11,0,0,0,0-.08A.12.12,0,0,0,242.19,292.93Zm.05.17-.07,0s0,0,0-.08l0,0h0a.19.19,0,0,0-.06.07.14.14,0,0,1,0-.09s.1,0,.11,0h0s0,0,.06.07A0,0,0,0,1,242.24,293.1Z" transform="translate(-231.01 -261.82)"/><path class="cls-7" d="M243.56,306.61a.43.43,0,0,1-.36-.31v0c0-.14-.06-.26-.26-.29l0,0s0,0,0,0c.17,0,.19.12.22.25v0a.5.5,0,0,0,.4.35.77.77,0,0,1,.37.27h0s0,0,0,0A.85.85,0,0,0,243.56,306.61Z" transform="translate(-231.01 -261.82)"/><path class="cls-7" d="M243.91,304.79s.06-.13.19-.2a.74.74,0,0,0-.57-.06C243.72,304.54,243.76,304.64,243.91,304.79Z" transform="translate(-231.01 -261.82)"/><path class="cls-7" d="M242.74,306.74s0,0,0,0h0l0,0a.56.56,0,0,0,0,.28l0,0h0a0,0,0,0,0,0,0A.61.61,0,0,1,242.74,306.74Z" transform="translate(-231.01 -261.82)"/><path class="cls-7" d="M243.29,306.76a0,0,0,0,0,0,0,.44.44,0,0,1,.13.26s0,0,0,0h0l0,0a.48.48,0,0,0-.15-.3Z" transform="translate(-231.01 -261.82)"/><path class="cls-7" d="M242.9,306.64s0,0,0,0,0,0,0,0a.52.52,0,0,0,.07.35l0,0h0s0,0,0,0A.5.5,0,0,1,242.9,306.64Z" transform="translate(-231.01 -261.82)"/><path class="cls-7" d="M241.3,307.29a.34.34,0,0,1-.19-.2s0,0,0,0,0,0,0,0,.12.19.21.23l.06,0h0l0,0s0,0,0,0Z" transform="translate(-231.01 -261.82)"/><path class="cls-7" d="M243.52,306.77h0s0,0,0,0a.46.46,0,0,1,.25.22l0,0h0s0,0,0,0l0,0A.51.51,0,0,0,243.52,306.77Z" transform="translate(-231.01 -261.82)"/><path class="cls-7" d="M242.57,306.74s0,0,0,0a.92.92,0,0,0,0,.31l0,0h0s0,0,0,0a.8.8,0,0,1,0-.29S242.58,306.74,242.57,306.74Z" transform="translate(-231.01 -261.82)"/><path class="cls-7" d="M242.39,306.78a0,0,0,0,0,0,0,3.1,3.1,0,0,0,0,.32,0,0,0,0,0,0,0h0s0,0,0,0a3,3,0,0,1,0-.32Z" transform="translate(-231.01 -261.82)"/><path class="cls-7" d="M241.52,307.23s-.1,0-.13-.17l0,0s0,0,0,0a.26.26,0,0,0,.16.21h0a0,0,0,0,0,0,0Z" transform="translate(-231.01 -261.82)"/><path class="cls-7" d="M242.05,306.88s0,0,0,0h0l0,0a.91.91,0,0,0,0,.28l0,0h0s0,0,0,0A.69.69,0,0,1,242.05,306.88Z" transform="translate(-231.01 -261.82)"/><path class="cls-7" d="M241.57,307s0,0,0,0a0,0,0,0,0,0,0c0,.07.07.12.1.15h0a0,0,0,0,0,0,0s0,0,0,0S241.57,307.08,241.57,307Z" transform="translate(-231.01 -261.82)"/><path class="cls-7" d="M240.17,305.11a.3.3,0,0,0-.13.19.6.6,0,0,0,0,.41.37.37,0,0,0,.33.15h.08a.77.77,0,0,0,.2.25h-.08a.52.52,0,0,0-.22.07c-.11.06-.2.1-.54,0-.15-.06-.31-.05-.65.17a.38.38,0,0,0-.2.35.39.39,0,0,0,.25.32,2.2,2.2,0,0,0,.75.24.67.67,0,0,0,.35-.12,1.3,1.3,0,0,1,.26-.12c0,.06,0,.27.16.28h0c.07,0,.09,0,.16.09a.61.61,0,0,0,.43.22.54.54,0,0,0,.34-.15l0,0a.3.3,0,0,1,.31-.07,1.12,1.12,0,0,0,.6,0,.57.57,0,0,1,.49,0,2.75,2.75,0,0,0,1.42.05l0,0a.49.49,0,0,0,.32.19.05.05,0,0,0,.05,0,0,0,0,0,0,0-.05.54.54,0,0,1,0-.27.91.91,0,0,0,.83,0s0,0,0,0,0,0,0-.05a1.5,1.5,0,0,1-.19-.14l-.11-.08a.47.47,0,0,0,.31,0l.05,0c.11-.06.3-.17.55-.72a0,0,0,0,0,0-.06.06.06,0,0,0-.07,0,.77.77,0,0,1-.27.09,1.16,1.16,0,0,0,.4-.62,0,0,0,0,0,0-.06s0,0-.06,0a.53.53,0,0,1-.18.1,1.31,1.31,0,0,0,.28-.47s0-.05,0-.06h-.07a.89.89,0,0,1-.41.17,1,1,0,0,0,.33-.41s0-.05,0-.06,0,0-.06,0a.6.6,0,0,1-.32.07c.25-.29.29-.6.2-1.33a.07.07,0,0,0,0-.05.07.07,0,0,0-.06,0,.9.9,0,0,1-.68.71h-.05a.74.74,0,0,0,.15-.19,1.13,1.13,0,0,0,0-1.08.08.08,0,0,0,0,0l0,0-.17.22a.59.59,0,0,1-.43.3.88.88,0,0,0-.63.55.61.61,0,0,0-.28-.07.83.83,0,0,0-.59.26.63.63,0,0,0-.72.15c-.1.12-.11.12-.18.07l-.12-.06a.81.81,0,0,0-.84,0s0,0,0,.06a.05.05,0,0,0,.06,0,.39.39,0,0,1,.29.05.16.16,0,0,1,0,.12.17.17,0,0,1-.06.11.14.14,0,0,1-.13,0h-.12l-.2,0a.18.18,0,0,1-.09,0,.84.84,0,0,0-.34-.09h0a.4.4,0,0,0-.34.18v0A.4.4,0,0,1,240.17,305.11Zm.37.73h0l.13-.05c0,.05,0,.1,0,.14a1.1,1.1,0,0,0,0,.18A.63.63,0,0,1,240.54,305.84Zm.22-.07a.31.31,0,0,1,.19,0,.85.85,0,0,0,.06.19s0,.07,0,.1v.1A.92.92,0,0,1,240.76,305.77Zm.09.32h0v0Zm-.55.93c-.28.17-.41.12-1-.14a.29.29,0,0,1-.19-.23.3.3,0,0,1,.15-.26.88.88,0,0,1,.44-.18.21.21,0,0,1,.12,0c.39.15.5.1.62,0a.68.68,0,0,1,.2-.06,1.12,1.12,0,0,1,.31,0l0,0h0v0l.12,0h0l.1.1h0a0,0,0,0,0,0,0v0a1.92,1.92,0,0,0,.42.13.6.6,0,0,0-.23.19h0a.65.65,0,0,1-.33-.28l-.07-.09h0a.66.66,0,0,0,0,.55l-.26,0h-.07A.69.69,0,0,0,240.3,307Zm1.22-.88.07,0,.12,0h.08a.45.45,0,0,0,.2,0l.1,0a.92.92,0,0,1,.28,0,1,1,0,0,0-.05.31.73.73,0,0,1-.21,0,.67.67,0,0,0-.2,0h0a2.77,2.77,0,0,1-.6-.18.78.78,0,0,1,.07-.24l.05,0a.08.08,0,0,0,0,.07S241.48,306.13,241.52,306.14Zm0-.18a.14.14,0,0,1,.08-.09h0a.52.52,0,0,0,.26-.35.42.42,0,0,0-.12-.32.47.47,0,0,1,.33.16.56.56,0,0,1,.07.43.41.41,0,0,1-.21.3h0a.32.32,0,0,1-.27,0l-.07,0,0-.05S241.47,306,241.48,306Zm.67.12a.46.46,0,0,0,.12-.25.31.31,0,0,1,0,.22A.47.47,0,0,0,242.15,306.08Zm.36-.14a.75.75,0,0,0,.23.38.44.44,0,0,0-.25.07l0,0s-.07.06-.11.06A1.08,1.08,0,0,1,242.51,305.94Zm-1.25.34a.88.88,0,0,1-.25-.46.28.28,0,0,0,.25,0,.6.6,0,0,0,.09.13A.51.51,0,0,0,241.26,306.28Zm-.19-.16h0v0h0Zm.38.57a.35.35,0,0,1-.16.1l-.15,0a.59.59,0,0,1-.06-.47l0,0A.72.72,0,0,0,241.45,306.69Zm4.31-1.88s0,0,0,.05a0,0,0,0,0,0,0,.67.67,0,0,0,.35,0,.83.83,0,0,1-.59.41.06.06,0,0,0-.05.06s0,0,.06,0a2.23,2.23,0,0,0,.74-.17,1,1,0,0,1-.4.46l0,0a3.77,3.77,0,0,1-.82,0,4.52,4.52,0,0,0,.49-.68v0h0a.76.76,0,0,1-.26,0l0,0a1.82,1.82,0,0,0,.75-.83A.9.9,0,0,1,245.76,304.81Zm-.41-.88a.64.64,0,0,1-.31.3h-.17a1.53,1.53,0,0,0,.35-.4s0,0,0,0h0l-.26,0a1.44,1.44,0,0,0,.47-.4A.84.84,0,0,1,245.35,303.93Zm-4.16.91.2,0h.12a.35.35,0,0,0,.21-.07.23.23,0,0,0,.09-.18.28.28,0,0,0-.07-.21.34.34,0,0,0-.16-.07.77.77,0,0,1,.56.06l.1.06c.12.07.18.08.32-.1a.51.51,0,0,1,.55-.13l0,.05a.06.06,0,0,0,0,.08.06.06,0,0,0,.07,0,.82.82,0,0,1,.63-.35h0a.49.49,0,0,1,.28.08h0a.52.52,0,0,1,.13.11,0,0,0,1,0,.08-.06.52.52,0,0,0-.13-.12.79.79,0,0,1,.56-.5.69.69,0,0,0,.49-.33.79.79,0,0,1,.12-.15,1.11,1.11,0,0,1,.08.3,1.48,1.48,0,0,1-.51.43l-.06,0s0,0,0,0l0,0a1.44,1.44,0,0,1,.31,0,2,2,0,0,1-.39.42c-.29.07-.43.22-.45.64a0,0,0,0,0,0,.05.05.05,0,0,0,.06-.05c0-.45.19-.52.54-.58h.1l.28,0a1,1,0,0,0,.69-.57,1.89,1.89,0,0,1,0,.32,1.74,1.74,0,0,1-.78.91l-.1.06s0,0,0,0l0,0a1.1,1.1,0,0,0,.3,0,5,5,0,0,1-.49.66,0,0,0,0,0,0,0,0,0,0,0,0,0,0,2.77,2.77,0,0,0,.49,0l.39,0a0,0,0,0,0,.05,0l.37-.13a.81.81,0,0,1-.57.55s0,0,0,.05a.06.06,0,0,0,.06.05,1.8,1.8,0,0,0,.5-.08,1.79,1.79,0,0,1-.27.4,2.6,2.6,0,0,1-1.17-.45s0,0,0,0a0,0,0,0,0,0,0,2.67,2.67,0,0,0,1.16.45l-.13.09,0,0a.62.62,0,0,1-.53-.07.05.05,0,0,0-.05.09l.37.28.11.08-.19,0a3.21,3.21,0,0,1-.72-.58,0,0,0,0,0,0,0,0,0,0,0,0,0,0,2.71,2.71,0,0,0,.65.55A.9.9,0,0,1,245,307a0,0,0,0,0-.06,0l0,0a1.71,1.71,0,0,0,0,.32.48.48,0,0,1-.18-.13v0l0,0h0a1.13,1.13,0,0,1-.17-.44s0,0,0,0l0,0a1.34,1.34,0,0,0,.15.43,2.83,2.83,0,0,1-1.36,0,.66.66,0,0,0-.58,0,1,1,0,0,1-.51,0,.41.41,0,0,0-.41.09l-.05,0c-.12.1-.31.26-.62-.06a.25.25,0,0,0-.23-.12h0s-.06-.12-.06-.19h.11a3.27,3.27,0,0,0,.5-.08.4.4,0,0,0,.27-.2.66.66,0,0,1,.32-.2h.17a.93.93,0,0,0,.24.05.34.34,0,0,0,.19-.07l0,0s.07-.06.26-.06a.1.1,0,0,0,.05,0s0,0,0-.05a1,1,0,0,0-.2-.17,1.07,1.07,0,0,1-.11-.26l0,0h0a.52.52,0,0,0-.09.17h0a.54.54,0,0,0-.09-.29s0,0,0,0l0,0v0a.42.42,0,0,1-.13.28h0l-.07,0a.53.53,0,0,0,.16-.28.62.62,0,0,0-.08-.47.6.6,0,0,0-.43-.19h0s0,0,0,0a.39.39,0,0,1,.15.33.54.54,0,0,1-.23.32s-.06,0-.09.07a.73.73,0,0,1-.09-.13.32.32,0,0,0,.16-.28.42.42,0,0,0-.19-.35.41.41,0,0,1-.19-.22.36.36,0,0,0,0-.09l0,0A.18.18,0,0,0,241.19,304.84Zm-.67,0a.28.28,0,0,1,.23-.11h0a.27.27,0,0,1,.25.16l0,.07a.47.47,0,0,0,.24.28.3.3,0,0,1,.13.26.2.2,0,0,1-.1.19c-.17.09-.2.07-.27,0h0a.51.51,0,0,0-.48,0,.36.36,0,0,1-.39-.07.57.57,0,0,1,0-.33.15.15,0,0,1,.08-.12A.57.57,0,0,0,240.52,304.83Z" transform="translate(-231.01 -261.82)"/><path class="cls-7" d="M242.85,305.41h0a0,0,0,0,0,0,0,.22.22,0,0,0-.18-.13.32.32,0,0,0,0-.24l.11-.06a.78.78,0,0,0,.37,0,.27.27,0,0,0-.11.21.26.26,0,0,0,.26.26h.06a1.26,1.26,0,0,0,.06.15h0l0,0a.16.16,0,0,1,0-.07l.05,0,0,0a.34.34,0,0,1,.13,0h0l-.18-.11v0a.25.25,0,0,0,0-.07.19.19,0,0,0,0-.07v0h0a.24.24,0,0,0-.1-.1l-.06-.07s0,0,0,0a1.22,1.22,0,0,1-.55.05s0,0,0,0a.54.54,0,0,1-.15.08h0a0,0,0,0,0,0,0c.08.07,0,.23,0,.23a0,0,0,0,0,0,0h0C242.81,305.32,242.85,305.4,242.85,305.41Zm.6-.43.09.09v0a.56.56,0,0,1,0,.13h0a1.26,1.26,0,0,1-.2-.19h0a.88.88,0,0,0,0,.33h0a.21.21,0,0,1,0-.42A.17.17,0,0,1,243.45,305Z" transform="translate(-231.01 -261.82)"/><path class="cls-7" d="M241.11,305.6l.09,0a.18.18,0,0,0,.07-.18h0a.12.12,0,0,0-.11-.1.08.08,0,0,0-.08,0,.15.15,0,0,0-.06.11s0,.05.07.07l-.08,0a0,0,0,0,0,0,0,0,0,0,0,0,0,0A.27.27,0,0,0,241.11,305.6Zm0-.12s0,0,0,0l0,0c-.06,0-.07,0-.07,0a.09.09,0,0,1,0-.07h0c.06,0,.07,0,.07.06v0s0,.1,0,.11a.15.15,0,0,1-.09,0Z" transform="translate(-231.01 -261.82)"/><path class="cls-7" d="M240.28,305.55h0a0,0,0,0,0,0,0,.11.11,0,0,1,0-.08.08.08,0,0,0,.07.06.15.15,0,0,0,.11-.06.09.09,0,0,0,0-.09.12.12,0,0,0-.1-.1h0a.17.17,0,0,0-.18.08.3.3,0,0,0,0,.22Zm0-.22s.1-.05.11-.05h0s.05,0,.06.07a0,0,0,0,1,0,0,.09.09,0,0,1-.07,0s0,0,0-.07l0,0h0a.21.21,0,0,0-.06.08A.34.34,0,0,1,240.29,305.33Z" transform="translate(-231.01 -261.82)"/><path class="cls-7" d="M243,285c.37-.57.92-1.43.57-2.15a1.33,1.33,0,0,0-1.09-.75,1.22,1.22,0,0,0-1.1.51,1,1,0,0,0,0,1,.6.6,0,0,0,.6.25.39.39,0,0,0,.26-.17.47.47,0,0,0,.06-.31A.49.49,0,0,0,242,283a.5.5,0,0,0-.21.05.41.41,0,0,1,.13-.34.63.63,0,0,1,.66-.13.85.85,0,0,1,.5.44.64.64,0,0,1,.09.5l0,.07c-.1.3-.2.62-1.11,1l0,0a.05.05,0,0,0,0,0,.52.52,0,0,0,.44.18,2.24,2.24,0,0,0-.38,1.34,6.11,6.11,0,0,0-.74-1.17.94.94,0,0,1-.09-.12,1.24,1.24,0,0,1,0-1.58,0,0,0,0,0,0-.05h0v-.58a0,0,0,0,0,0,0h-2.32a0,0,0,0,0,0,0v.57h0a0,0,0,0,0,0,.05,1.23,1.23,0,0,1,0,1.57l-.1.13a6.11,6.11,0,0,0-.76,1.2,2.18,2.18,0,0,0-.36-1.37.53.53,0,0,0,.44-.17.08.08,0,0,0,0-.05l0,0c-.91-.39-1-.71-1.1-1l0-.07a.61.61,0,0,1,.1-.5.85.85,0,0,1,.5-.43.63.63,0,0,1,.66.14.35.35,0,0,1,.12.33.42.42,0,0,0-.2-.05.49.49,0,0,0-.34.32.46.46,0,0,0,.05.31.39.39,0,0,0,.26.17.59.59,0,0,0,.6-.24,1,1,0,0,0,0-1,1.25,1.25,0,0,0-1.1-.52,1.32,1.32,0,0,0-1.09.74c-.36.71.19,1.58.55,2.16a3.08,3.08,0,0,1,.25.44,1,1,0,0,1,0,1.08l-.11-.12a.45.45,0,0,0-.47.09.52.52,0,0,0,0,.61.48.48,0,0,0,.32.23h.09a.65.65,0,0,0,.41-.15,1.77,1.77,0,0,0,.31-.46,2.43,2.43,0,0,0,1,2.55v.37h2.49v-.34h0a2.47,2.47,0,0,0,1-2.49,1.83,1.83,0,0,0,.27.39.65.65,0,0,0,.41.15h.09a.44.44,0,0,0,.31-.22.52.52,0,0,0,0-.61.45.45,0,0,0-.47-.09.63.63,0,0,0-.11.12,1,1,0,0,1,0-1.09C242.81,285.31,242.91,285.16,243,285Zm-4.1-2.24h2.24v.51h-2.24Zm-1.49,4.35a.54.54,0,0,1-.41.12.34.34,0,0,1-.25-.18.42.42,0,0,1,0-.48.39.39,0,0,1,.26-.1.11.11,0,0,1,.08,0,.39.39,0,0,1,.12.15s0,0,0,0l.05,0a1.09,1.09,0,0,0,.07-1.25,4.38,4.38,0,0,0-.27-.46c-.37-.59-.87-1.4-.54-2.05a1.23,1.23,0,0,1,1-.69,1.12,1.12,0,0,1,1,.47.92.92,0,0,1,0,.87.5.5,0,0,1-.5.19.26.26,0,0,1-.19-.12.38.38,0,0,1-.05-.24.48.48,0,0,1,.25-.24h0a.52.52,0,0,1,.2.07h.07a.05.05,0,0,0,0,0,.51.51,0,0,0-.15-.48.75.75,0,0,0-.75-.17.94.94,0,0,0-.57.48.76.76,0,0,0-.11.58l0,.07c.1.3.2.65,1.08,1a.38.38,0,0,1-.33.1h-.08s0,0,0,0a0,0,0,0,0,0,.05A1.67,1.67,0,0,1,237.43,287.09Zm3.72,2.43h-2.28v-.24h2.28Zm.08-.35h-2.4c-1.9-1.65-.63-3.29,0-4.08a1.13,1.13,0,0,0,.1-.13,1.31,1.31,0,0,0,.06-1.61h2.14a1.33,1.33,0,0,0,0,1.62,1.47,1.47,0,0,1,.1.13C241.87,285.89,243.13,287.53,241.23,289.17Zm1.49-2.54s0,0,.05,0l0,0a.51.51,0,0,1,.12-.16.35.35,0,0,1,.34.09.42.42,0,0,1,0,.48.32.32,0,0,1-.25.17.52.52,0,0,1-.41-.11,1.7,1.7,0,0,1,0-2.27,0,0,0,0,0,0-.05l0,0h-.07a.38.38,0,0,1-.33-.1c.88-.39,1-.73,1.09-1l0-.07a.75.75,0,0,0-.1-.58,1,1,0,0,0-.57-.49.77.77,0,0,0-.75.16.5.5,0,0,0-.15.49,0,0,0,0,0,0,0h.06a.58.58,0,0,1,.21-.06.39.39,0,0,1,.25.24.35.35,0,0,1,0,.23.29.29,0,0,1-.19.13.51.51,0,0,1-.5-.2.94.94,0,0,1,0-.87,1.11,1.11,0,0,1,1-.45,1.21,1.21,0,0,1,1,.69c.32.66-.19,1.46-.56,2.05a3.11,3.11,0,0,0-.27.45A1.09,1.09,0,0,0,242.72,286.63Z" transform="translate(-231.01 -261.82)"/><path class="cls-7" d="M241.2,286.2a.64.64,0,0,1-.08.49l-.37-.23.21-.2q.21-.22.15-.39c0-.1-.16-.15-.37-.17a1.29,1.29,0,0,0-1,.33c-.31-.11-.38-.29-.45-.84a.05.05,0,0,0,0,0h-.05c-.29.3-.31.48-.27.7a.65.65,0,0,0-.39.53,0,0,0,0,0,0,.05h0a1.1,1.1,0,0,1,.68-.05l.11.06a1.51,1.51,0,0,0-.11.22l-.16.36a1,1,0,0,0-.55-.12.36.36,0,0,0-.31.12.31.31,0,0,0,0,.3,1.17,1.17,0,0,0,.58.55l0,0a1.2,1.2,0,0,1-.44.36.06.06,0,0,0,0,.1,1.28,1.28,0,0,0,.61,0,.63.63,0,0,0,.43.34h0l0,0a0,0,0,0,0,0,0,1,1,0,0,1-.09-.6l.31,0a1.27,1.27,0,0,0,.61-.15l.06,0a2.54,2.54,0,0,0,.42-.28,1.75,1.75,0,0,0,.36.19.45.45,0,0,0,.18,0,.3.3,0,0,0,.22-.09.55.55,0,0,0,0-.61.35.35,0,0,0-.05-.08.81.81,0,0,1,.42,0,0,0,0,0,0,0,0,0,0,0,0,0,0,0,.56.56,0,0,0-.48-.31.61.61,0,0,0-.25-.5s0,0-.06,0S241.19,286.18,241.2,286.2Zm-1.82.1a1.13,1.13,0,0,0-.66,0A.48.48,0,0,1,239,286h0a.9.9,0,0,1,0,.12s0,0,.06,0,0,0,0-.05a.43.43,0,0,1,0-.11h0v-.08a.54.54,0,0,1,.16-.56c.05.44.14.66.46.79a3.17,3.17,0,0,0-.21.27Zm.05.41a1.54,1.54,0,0,1,.64-.76.44.44,0,0,0,.22.35h0l0,0a0,0,0,0,0,0,0,.38.38,0,0,1-.2-.34,1.25,1.25,0,0,1,.62-.12c.15,0,.25.05.27.11h0a.53.53,0,0,0-.3.1,0,0,0,0,0,0,0h0a.47.47,0,0,1,.26-.1.44.44,0,0,1-.13.24,8.26,8.26,0,0,1-1,.78,1.82,1.82,0,0,0-.27.28l-.05,0h0l-.16-.08-.15-.08Zm.69.25.12.12.16.18c-.35.14-.44.15-.66.05a1.44,1.44,0,0,1,.24-.25Zm-1,1.34a1.34,1.34,0,0,1,0-.14.06.06,0,0,0-.07,0,0,0,0,0,0,0,.06.42.42,0,0,0,0,.1,1.32,1.32,0,0,1-.4,0A1.32,1.32,0,0,0,239,288l0,0a2.39,2.39,0,0,0,.32.11h0a1,1,0,0,0,.06.56A.61.61,0,0,1,239.1,288.3Zm1.27-.49-.07,0a1.25,1.25,0,0,1-1,.09,1.35,1.35,0,0,1-.93-.64.37.37,0,0,1,0-.15c.13,0,.2.05.24.14l0,0h0a0,0,0,0,0,0,0,.32.32,0,0,0-.28-.17h0s.11-.08.23-.08h0a1.1,1.1,0,0,1,.51.13c0,.16,0,.26-.15.31s0,0,0,0h0c.1,0,.2-.12.18-.33l.15.08.16.08h0l.09,0h0c.3.15.4.15.83,0l.13.12.05.05.08.07A1.41,1.41,0,0,1,240.37,287.81Zm1.14-.11,0,0a.9.9,0,0,0-.33-.24s0,0,0,0l0,0a.82.82,0,0,1,.3.22l0,0a.3.3,0,0,1-.25,0,1.8,1.8,0,0,1-.5-.3l-.09-.08,0,0-.07-.07h0c-.07-.08-.14-.15-.2-.23l-.12-.11.47-.37a3.35,3.35,0,0,1,.52.34l0,0a1.06,1.06,0,0,1,.28.31A.47.47,0,0,1,241.51,287.7Zm-.2-1.37a.5.5,0,0,1,.12.37s0,.05,0,.06a.53.53,0,0,1,.39.17.89.89,0,0,0-.39.06s0,0,0,0l-.08-.07,0,0-.13-.1A.61.61,0,0,0,241.31,286.33Z" transform="translate(-231.01 -261.82)"/><path class="cls-7" d="M240.64,285.91s0,0,0,0,0,0,0,0a0,0,0,1,0,.06,0Z" transform="translate(-231.01 -261.82)"/><path class="cls-7" d="M241.28,287.31s0,0,0,0a0,0,0,0,0,0,0,0,0,0,0,0,0,0A0,0,0,0,0,241.28,287.31Z" transform="translate(-231.01 -261.82)"/><path class="cls-7" d="M238.71,287.1s0,0,0,0,0,0,0,0a0,0,0,1,0-.06,0Z" transform="translate(-231.01 -261.82)"/><path class="cls-7" d="M240.8,287a.23.23,0,0,0-.05.21l0,0h0s0,0,0,0a.18.18,0,0,1,0-.17.32.32,0,0,1,.24-.11l0,0s0,0,0,0A.37.37,0,0,0,240.8,287Z" transform="translate(-231.01 -261.82)"/><path class="cls-7" d="M238.59,282.4H239l0,0a0,0,0,0,0,0,0,1.89,1.89,0,0,0-1.13-.89l-.13-.05a2.91,2.91,0,0,0-2,0h0a2.84,2.84,0,0,0-1.13.65,2.9,2.9,0,0,0-.5.54l0,.06-.09.1h0l-.27.11a1,1,0,0,0-.59.82,2.25,2.25,0,0,0,0,.82.1.1,0,0,0,0,.06s.07,0,.14,0l.1-.13,0,0a1,1,0,0,0,.08-.14.05.05,0,0,0,0,0,.47.47,0,0,0,.06-.15v0c0-.07,0-.13.05-.18v-.08a.48.48,0,0,1,.13-.33l.12-.09a.18.18,0,0,1-.05.07l0,.06c-.05.07-.06.1-.07.26a2,2,0,0,1-.27.69c-.08.07-.13.23-.06.31h0a.1.1,0,0,0,.08,0,.36.36,0,0,0,.2-.1l.09-.07a1.18,1.18,0,0,0,.64-1.06c0-.08,0-.14,0-.2a.87.87,0,0,1,.13-.64h0a3.34,3.34,0,0,1,1.81-1.07l.18,0a2.3,2.3,0,0,1,.84,0h-.28a2.51,2.51,0,0,0-1,.37,1.66,1.66,0,0,0-.7,1.7l0,0h0a5.64,5.64,0,0,0,.66-.64l.16-.23a2.57,2.57,0,0,1,.4-.49A1.44,1.44,0,0,1,238.59,282.4Zm-4.3.94a.92.92,0,0,1,0,.19,1.12,1.12,0,0,1-.61,1l-.09.07c-.09.07-.15.08-.17.06s0-.14.05-.19a1.9,1.9,0,0,0,.3-.74c0-.15,0-.16.06-.22l0-.05a.34.34,0,0,0,.1-.21h0a.06.06,0,0,0,0,0h0a.58.58,0,0,0-.24.15.53.53,0,0,0-.15.38v.08a1.29,1.29,0,0,1-.32.64l0,0s0,0,0,0a2.11,2.11,0,0,1,0-.76.88.88,0,0,1,.55-.76l.26-.12h0l0,0,.07-.08.06-.06.24.05A1,1,0,0,0,234.29,283.34Zm1.89-.58L236,283c-.07.09-.44.45-.58.58a1.54,1.54,0,0,1,.66-1.55,2.36,2.36,0,0,1,1-.36,2.42,2.42,0,0,1,.9.13,0,0,0,1,0,0-.07,2.23,2.23,0,0,0-1.51-.2l-.18,0a3.31,3.31,0,0,0-1.85,1.09l-.25,0a2.64,2.64,0,0,1,.44-.47,2.57,2.57,0,0,1,1.11-.63l0,0a2.92,2.92,0,0,1,1.94,0l.13,0a1.87,1.87,0,0,1,1.06.8h-.3a1.5,1.5,0,0,0-2-.08A2.41,2.41,0,0,0,236.18,282.76Z" transform="translate(-231.01 -261.82)"/><path class="cls-7" d="M242.32,280.57a6.29,6.29,0,0,0-.95.86l0,0a2,2,0,0,0-.16.2,3.34,3.34,0,0,1,.51-.61,2.8,2.8,0,0,0,.81-1.86.05.05,0,0,0,0,0,0,0,0,0,0-.05,0,5.11,5.11,0,0,0-1.58,1.53h0a.91.91,0,0,0-.21-.18c.06-.2.12-.39.16-.58h0a1.13,1.13,0,0,0,.21-.44,0,0,0,0,0,0,0l0,0h-.07a3.56,3.56,0,0,0,.06-1.23s0,0,0,0,0,0,0,0a9.68,9.68,0,0,1-.6,1.25s0,0,0,0a.79.79,0,0,0-.4.29l0,0a.93.93,0,0,0-.38-.92h-.05a.87.87,0,0,0-.25,1,1.2,1.2,0,0,0-.31-.25c-.09-.25-.23-.59-.35-.89s-.25-.63-.26-.67a0,0,0,0,0,0,0h0a0,0,0,0,0,0,0,4.59,4.59,0,0,0,.1,1.42h-.11l0,0a0,0,0,0,0,0,0,1.74,1.74,0,0,0,.28.61,3.74,3.74,0,0,0-.59-.56,1.11,1.11,0,0,1-.18-.12l-.2-.12a3.7,3.7,0,0,0-1.34-.52h0a0,0,0,0,0,0,0l.06.16c.15.35.25.6,1.08,1a5.17,5.17,0,0,1,1.19.91.14.14,0,0,0,0,.07,8,8,0,0,0-1.81-.87,3.59,3.59,0,0,0-.7-.16,3.88,3.88,0,0,1-1.09-.35,0,0,0,0,0,0,0,0,0,0,0,0,0,.05s.23.34.35.55a2.89,2.89,0,0,0,1.25.58l.29.09a9.82,9.82,0,0,1,1,.34,2.73,2.73,0,0,1,1.57,1.12l0,0h.91s0,0,0,0,0-.06,0-.11a2.5,2.5,0,0,1,.25-1.12h.17l0,.06a2.38,2.38,0,0,0-.27,1.16l0,0h.59l0,0v0h0l.4,0h0a2.13,2.13,0,0,1,1.63-.33,3.26,3.26,0,0,1,1.77,1.35c.1.11.63.49.65.51h0s0,0,0,0a2.86,2.86,0,0,0,0-.74,2.11,2.11,0,0,0-1-1.35,3.2,3.2,0,0,0-1.88-.28,3.34,3.34,0,0,1,1-.17l.1,0a2.32,2.32,0,0,1,1.11.34,4.39,4.39,0,0,1,.75.71l.09.1s.06.06.06.08a.12.12,0,0,1,0,.08s0,.07,0,.11a.23.23,0,0,0,0,.12,0,0,0,0,0,0,0s0,0,0,.05h0a.18.18,0,0,1,0,.06h0l0,0c-.05.1-.06.16,0,.37h0v0a1,1,0,0,1-.08.77v0h0s0,0,0,0h0a1.31,1.31,0,0,0,.7-.31.06.06,0,0,0,0,0h0l0,0a.64.64,0,0,1-.22-.22.87.87,0,0,1-.07-.17.7.7,0,0,0,.17.28l.08.06,0,0a1.37,1.37,0,0,0,.75.13h0s0,0,0,0h0a0,0,0,0,0,0-.05,1.17,1.17,0,0,1-.33-.1l.13,0,.07,0,.25.05h0a.05.05,0,0,0,.05,0s0,0,0,0,0,0,0,0a.91.91,0,0,1-.16-.17.32.32,0,0,1,0-.09s0-.07,0-.11h0s0,0,0,0l0,0a1.09,1.09,0,0,0,.57-.35s0,0,0,0h0s0,0,0,0h-.06l-.1,0h0l-.1,0-.06,0-.14-.11a1.07,1.07,0,0,0-.46-.35h-.12c-.08,0-.12,0-.15-.05h0a.46.46,0,0,0-.28-.17h0s-.05,0-.1-.05l-.27-.31-.1-.12a3,3,0,0,0-.92-.67,3,3,0,0,0-.88-.18l.17,0a7,7,0,0,1,.93,0,2.14,2.14,0,0,0,1.7-.59s0,0,0,0-.06,0-.08,0a3,3,0,0,1-1,0,6,6,0,0,0-2.52.47l-.18.05a2.69,2.69,0,0,1,.38-.17h0a3.86,3.86,0,0,0,.48-.34c.14-.12.44-.35.68-.52a6.21,6.21,0,0,0,.92-.83,3.6,3.6,0,0,1,.87-.69s0,0,0,0,0,0,0,0a2.91,2.91,0,0,0-1.25.24l-.11.06a3.51,3.51,0,0,0-.79.59C243.8,279.39,242.69,280.29,242.32,280.57Zm-1.78-.09a1.33,1.33,0,0,0-.32-.12,1.6,1.6,0,0,0,.44-.28Zm.35-2.09a3.62,3.62,0,0,1-.08,1,1.33,1.33,0,0,0-.45,0C240.51,279.18,240.77,278.68,240.89,278.39Zm-.94,1.44a.92.92,0,0,1,1-.32,1.15,1.15,0,0,1-.72.78l-.09,0-.12,0a.09.09,0,0,0,0-.05h0a.33.33,0,0,0-.07-.13h0l0-.05s0,0,0,0A1.43,1.43,0,0,1,240,279.83Zm-.81.74s0-.07,0-.1h0v-.05a.4.4,0,0,1,.16-.31h0l0,0h0l.09,0,.12,0h0l.11,0,0,0a.41.41,0,0,1,.11.07v0l0,0h0a.75.75,0,0,1,.07.12h0a.29.29,0,0,1,0,.09h0v.05h0s0,.08,0,.11v0a.36.36,0,0,1-.07.1h0l0,0,0,0h0l-.11.06a.35.35,0,0,1-.14,0h-.07l-.08,0h0a.4.4,0,0,1-.22-.22Zm.3-1.58a.78.78,0,0,1,.27,1,.45.45,0,0,0-.2,0h0a.41.41,0,0,0-.18.05A.86.86,0,0,1,239.44,279Zm-1.2-.71c0,.11.11.28.2.49l.32.82a1.24,1.24,0,0,0-.4-.09A3.92,3.92,0,0,1,238.24,278.28Zm0,1.29h0a1,1,0,0,1,1,.49.48.48,0,0,0-.17.36h0a.5.5,0,0,0-.24,0A1.53,1.53,0,0,1,238.21,279.57Zm.5.9h0l-.11-.13Zm-1.49-.51c-.8-.38-.89-.61-1-.95l0-.09a3.75,3.75,0,0,1,1.25.5l.18.12.18.12a5.37,5.37,0,0,1,.86.87.85.85,0,0,0-.21.33A4.89,4.89,0,0,0,237.22,280Zm1.5.58a.51.51,0,0,1,.2,0H239l0,.09h0l0,.06h0a.46.46,0,0,0,.12.12l0,.07c-.15.27-.24.45-.86.51C238.46,280.9,238.55,280.63,238.72,280.54Zm.46.51a.28.28,0,0,0,0,.09l0,0Zm.18,1.25h-.16a2.8,2.8,0,0,0-1.6-1.13c-.49-.19-.65-.25-1-.35l-.3-.09c-.53-.17-1.08-.34-1.2-.54l-.27-.44a4.15,4.15,0,0,0,1,.3,4.27,4.27,0,0,1,.68.15,8.48,8.48,0,0,1,1.81.88c0,.1-.06.2-.09.33s0,0,0,0l0,0h0a3.21,3.21,0,0,0,.43-.07.68.68,0,0,1,.15.2c0,.06,0,.07.06.07h0s0,0,0,0,0,0,0,0h0l0,0a1.6,1.6,0,0,0-.1-.23.7.7,0,0,0,.25-.18l.08.12a.85.85,0,0,0,.3.61,3.84,3.84,0,0,1,.14.4Zm.33,0c0-.1-.06-.2-.1-.3h0l0,0a.47.47,0,0,0,.06-.09v0A1.67,1.67,0,0,1,239.69,282.3Zm-.07-.38a.9.9,0,0,1-.32-1.07h0l.09,0h.09a.41.41,0,0,0,.16,0l.08,0h0A1,1,0,0,1,239.62,281.92Zm.24-1.08,0,0v0Zm.2,1.41a.13.13,0,0,1,0,.06h-.28a1.58,1.58,0,0,0,0-.33l0-.23h0a1,1,0,0,0,.12-.67h0l0-.13a1.24,1.24,0,0,0,.35.19h0A2.53,2.53,0,0,0,240.06,282.25Zm.28-1.21h0a1.22,1.22,0,0,1-.45-.3l.07-.07v-.06h0l0-.1v-.09a1,1,0,0,1,.93.57A1.2,1.2,0,0,1,240.34,281Zm.48,1.26h-.48a2.37,2.37,0,0,1,.24-1.08l.08-.11A1.23,1.23,0,0,0,241,281l0,0v0a1.73,1.73,0,0,0-.14-.2l0,0a5.3,5.3,0,0,1,1.49-1.46,2.66,2.66,0,0,1-.76,1.73A2.63,2.63,0,0,0,240.82,282.3Zm5.51.36h0a.12.12,0,0,0,.08,0h.21a.77.77,0,0,1,.34.25l.08.07a.52.52,0,0,0,.19.14.85.85,0,0,0,.27.09,1.18,1.18,0,0,1-.41.25,1.09,1.09,0,0,0-.33-.59l0,0-.09,0a.44.44,0,0,0-.17-.07h0s0,0,0,0a0,0,0,0,0,0,.05,1.11,1.11,0,0,1,.39.32h0l0,.05s0,0,0,.06a.62.62,0,0,1,.05.25s0,.09,0,.13a.48.48,0,0,0,.12.22c-.32-.07-.53-.16-.63-.34a.45.45,0,0,1-.06-.14,1,1,0,0,0-.14-.37l-.07-.07h-.05s0,0,0,.05a.69.69,0,0,1,.07.2v0a1.16,1.16,0,0,1,0,.18s0,0,0,.07a.13.13,0,0,1,0,.06.59.59,0,0,0,.11.19h0l.11.1.25.11c-.32,0-.54-.12-.64-.45a1.25,1.25,0,0,1-.06-.42s0,0,0,0,0,0,0,0a1,1,0,0,0,.07.68.53.53,0,0,0,.11.14.31.31,0,0,0,.1.08,1.08,1.08,0,0,1-.54.24.06.06,0,0,0,0,0,1,1,0,0,0,.06-.58l0-.17,0-.1a.36.36,0,0,1,0-.19v0l0,0a.24.24,0,0,0,0-.1s0,0,0,0h0A1.15,1.15,0,0,1,246.33,282.66Zm.29,1.18-.08,0a.42.42,0,0,1-.2-.24v0a.67.67,0,0,0,.12.2l.05,0A.47.47,0,0,0,246.62,283.84Zm-1.81-5.17.11-.07a2.55,2.55,0,0,1,1.08-.22,3.47,3.47,0,0,0-.79.63,5.64,5.64,0,0,1-.9.82c-.22.16-.53.39-.68.52a3.63,3.63,0,0,1-.46.32,8.25,8.25,0,0,0-1,.52l-.18.09a0,0,0,0,0,0,.06s0,0,.05,0l0,0h0l.14-.08a8,8,0,0,1,.82-.32,6.18,6.18,0,0,1,2.49-.46,5.09,5.09,0,0,0,.94,0,2.11,2.11,0,0,1-1.53.47,7.4,7.4,0,0,0-1,0c-.18,0-.37.06-.51.09h-.05l-.17,0s0,0,0,.05,0,0,.19,0h.3a3,3,0,0,1,.95.17,2.82,2.82,0,0,1,.89.66l.1.11a2.37,2.37,0,0,0,.28.32.21.21,0,0,0,.14.07h0a.57.57,0,0,1,.18.09,1.25,1.25,0,0,0-.51.28.13.13,0,0,1,0-.06s0-.07,0-.1a.25.25,0,0,0,0-.12s0-.08-.08-.12l-.09-.09a4.24,4.24,0,0,0-.77-.72,2.47,2.47,0,0,0-1.14-.36l-.1,0h-.11a6.51,6.51,0,0,0-1.63.38s0,0,0,0a0,0,0,0,0,.05,0,3.81,3.81,0,0,1,2.52.15,2,2,0,0,1,1,1.3,2.82,2.82,0,0,1,0,.64,5.75,5.75,0,0,1-.58-.45A3.41,3.41,0,0,0,243,282a2.14,2.14,0,0,0-1.67.34l-.34,0a1.73,1.73,0,0,1,.43-.79l0,0a7.14,7.14,0,0,1,.93-.85c.34-.25,1.48-1.18,1.68-1.39A3.38,3.38,0,0,1,244.81,278.67Z" transform="translate(-231.01 -261.82)"/><path class="cls-7" d="M266.81,272.23V272H231v.2s0,18.41,0,21.45c0,6.94,6.13,14.29,17.26,20.71l.64.41.67-.4c11.12-6.4,17.25-13.76,17.25-20.72C266.83,290.64,266.81,272.23,266.81,272.23Zm-29.46,5v-.7l-.78.49.44-.9-.88.33.63-.86-.7.11.78-.77-.95.1.82-.65-.57-.11.72-.36-.64-.22.83-.25-.54-.24.63-.22-.43-.44,1.59,0-.53.31.52,0-.33.44.51-.11-.1.4.35-.21v.28l.31-.21,0,.32a4.51,4.51,0,0,0-.27.54l-.14-.06h-.06a0,0,0,0,0,0,0v2a1,1,0,0,0,.61.21,1.21,1.21,0,0,1,.63.12h0v.11a.91.91,0,0,0-.48-.13h-.14a1.5,1.5,0,0,1-.73-.23v-1.95s0,0,0,0a0,0,0,0,0,0,0v2h0a1.52,1.52,0,0,0,.77.24h.14a.77.77,0,0,1,.48.13v.08a.88.88,0,0,0-.47-.12h-.14a1.77,1.77,0,0,1-.85-.29v-1.95l0,0a0,0,0,0,0,0,0v2h0a2,2,0,0,0,.89.31h.14a.9.9,0,0,1,.47.13V277a1.09,1.09,0,0,0-.57-.15l-.32-.05a2.37,2.37,0,0,1-.71-.33v-1.92a0,0,0,0,0,0,0,0,0,0,0,0,0,0v1.93l0,0a3,3,0,0,0,.74.35l.33,0a1,1,0,0,1,.57.16h0v0a1.55,1.55,0,0,1,.56-.15,1.39,1.39,0,0,0,1.08-.32s0,0,0,0v-2.08s0,0,0,0a0,0,0,0,0,0,0l-.09,0v-.09s0,0,0,0h0l-.09.05v-.1s0,0,0,0h0l-.1.06v0s0,0,0,0a0,0,0,0,0,0,0,1.12,1.12,0,0,1-.43.12h0a1.87,1.87,0,0,0-.35,0c.05-.15.12-.31.19-.47h0s0,0,0-.29l.27.17,0-.4.41.33-.14-.47.51.22-.33-.47.48.06-.3-.31.56-.11-.42-.19,1.65,0-.67.41,1,.35-.87.11.9.41-.72,0,.88.49h-.91L244,275l-.75-.1.35.62-.82-.4.63,1-.63-.32.31.61-.62-.41.34,1.09-.73-.59.25,1-.63-.58-.08.73-.45-.58-.15.66-.41-.44-.2.52-.43-.44-.32.5-.28-.52-.45.44-.1-.56-.44.28-.1-.45-.44.36,0-.57Zm4.05-2.63.08,0v2a1.4,1.4,0,0,1-1,.3,1.2,1.2,0,0,0-.55.14v-.13a.82.82,0,0,1,.48-.12h.13c.5,0,.6-.08.75-.19l.14-.08a0,0,0,0,0,0,0Zm-.18,1.92c-.14.1-.23.16-.72.18h-.13a1,1,0,0,0-.48.12v-.08a.83.83,0,0,1,.56-.13h.1a1.14,1.14,0,0,0,.71-.22,0,0,0,0,0,0,0v-1.84l.08,0v2Zm0-2h0v1.85a1.07,1.07,0,0,1-.67.21h-.1a1,1,0,0,0-.56.13v-.11a1.18,1.18,0,0,1,.7-.1h0a.91.91,0,0,0,.52-.21s0,0,0,0v-1.78l.09-.05Zm-.14,1.73a.85.85,0,0,1-.48.18,1.3,1.3,0,0,0-.71.1v-.7h0c.1,0,.17-.11.21-.17a.5.5,0,0,0,.08-.42l0-.43.11-.3h0a1.08,1.08,0,0,1,.35,0,1,1,0,0,0,.46-.11Zm-1-1.45v0l.06.44a.51.51,0,0,1-.07.36c-.05.08-.11.13-.16.13a.07.07,0,0,1-.06,0,.34.34,0,0,1-.05-.14s0,0,0-.08a.42.42,0,0,1,.12,0s0,0,0,0h0a0,0,0,0,0,0,0s0,0-.07-.05a.2.2,0,0,0-.14,0,.76.76,0,0,0,0-.11,5.35,5.35,0,0,1-.15-.87.05.05,0,0,0,0,0,1.8,1.8,0,0,0-.27,0,1.17,1.17,0,0,1-.42-.1,5.71,5.71,0,0,1,.33-.62l0-.05h0c.29-.45.27-.7.26-.7v-.44l.93,0a1.6,1.6,0,0,0-.07.53,2.89,2.89,0,0,1,.06.91v0C240.23,274.31,240.08,274.76,240.07,274.77Zm-.28,1,.05,0v.73a1.36,1.36,0,0,0-.64-.12.9.9,0,0,1-.57-.18v-1.92a2.55,2.55,0,0,0,.57.18l.31,0a4.72,4.72,0,0,0,.15.86c0,.12.05.17.06.19h0A.33.33,0,0,0,239.79,275.76Zm-.36-3.32v.48a1.2,1.2,0,0,1-.25.66l0,0,0-.37-.29.21v-.26l-.29.17.08-.32-.41.09.28-.38-.37,0,.54-.31h.79Zm2.17.21-.44.08.24.25-.42-.06.25.36-.38-.16.12.37-.35-.27,0,.43-.15-.1c0-.14,0-.32-.06-.57a1.27,1.27,0,0,1,.08-.54v0h.57Zm7.19,41.62-.32-.21c-6.25-3.6-10.91-7.49-13.77-11.43l5.68-3,8.41,4.77Zm0-14.21-8.41-4.77-7.64,4a13.33,13.33,0,0,1-1.35-5.66v-3.55h17.4Zm0-10.21h-17.4c0-5.87,0-15.92,0-17.43h6.07l-1,0,.48.49-.72.25.53.23-.86.26.7.25-.77.39.64.12-.92.72,1-.1-.81.79.77-.12-.68.93,1-.36-.48,1,.92-.58v.72l.47-.36,0,.58.48-.4.1.43.43-.28.12.61.49-.49.29.55.35-.53.45.47.19-.52.44.46.14-.64.47.61.09-.78.73.67-.26-1.06.75.6-.35-1.13.7.46L243,276l.68.34-.63-1,.78.39-.4-.73,1.09.16-1.32-.73h.91l-.92-.51.79-.05-.95-.42.93-.12-1.2-.43.78-.47-.95,0h6.24Zm17.65,0H249.07V279.3h17.36C266.44,282.78,266.44,286.86,266.44,289.85ZM252,272.42h2.72v6.72H252Zm8.66,0h2.82v6.72h-2.82Zm-2.89,0h2.73v6.72h-2.73Zm-2.89,0h2.74v6.72h-2.74Zm8.75,6.72v-6.72h2.81v6.72Zm-11.78-6.72v6.72h-2.77v-6.72Zm-2.46,41.65-.31.19V290.13h17.37c0,1.64,0,2.92,0,3.55C266.45,302.88,255.76,310.4,249.38,314.07Z" transform="translate(-231.01 -261.82)"/><path class="cls-1" d="M234.67,268.82v-6.07l-1.18.11.18-.81,2-.19v7Z" transform="translate(-231.01 -261.82)"/><path class="cls-1" d="M244.6,267v1.84h-1V267h-2.74l-.17-.77L244,262h.65v4.23h.81V267Zm-1-3.31a9.4,9.4,0,0,1-.61.86l-1.27,1.66h1.89v-1.67c0-.27,0-.54,0-.84Z" transform="translate(-231.01 -261.82)"/><path class="cls-1" d="M251.7,269l-1-.45a5.6,5.6,0,0,0,2.83-2.76,1.5,1.5,0,0,1-1.09.44,2.14,2.14,0,0,1-2.2-2.21,2.19,2.19,0,0,1,2.28-2.24,2.3,2.3,0,0,1,2.33,2.49A5.75,5.75,0,0,1,251.7,269Zm.82-6.34a1.37,1.37,0,1,0,1.35,1.76c0-.11,0-.22,0-.34A1.43,1.43,0,0,0,252.52,262.7Z" transform="translate(-231.01 -261.82)"/><path class="cls-1" d="M261.52,268.94a3,3,0,0,1-1.3-.27l-.1-1a2.56,2.56,0,0,0,1.35.38,1.39,1.39,0,1,0,0-2.77,3.25,3.25,0,0,0-1.18.18l.11-3.53h3l-.18.84h-1.89l0,1.67.28,0a2.21,2.21,0,0,1,2.33,2.28A2.19,2.19,0,0,1,261.52,268.94Z" transform="translate(-231.01 -261.82)"/></svg>